<?xml version="1.0" standalone="no"?>
<!DOCTYPE svg PUBLIC "-//W3C//DTD SVG 1.1//EN" "http://www.w3.org/Graphics/SVG/1.1/DTD/svg11.dtd" >
<svg>
<metadata>
Created by FontForge 20120731 at Tue Oct 21 23:33:02 2014
 By Orthosie Webhosting
Copyright (c) 2011 by EdgarTolentino, PabloImpallari, IginoMarini. All rights reserved.
</metadata>
<defs>
<font id="DosisBook" horiz-adv-x="496" >
  <font-face 
    font-family="DosisBook"
    font-weight="400"
    font-stretch="normal"
    units-per-em="1000"
    panose-1="2 1 5 3 2 2 2 6 0 3"
    ascent="800"
    descent="-200"
    x-height="473"
    cap-height="731"
    bbox="-137 -237 1029 1022"
    underline-thickness="26"
    underline-position="-25"
    unicode-range="U+000D-FB02"
  />
<missing-glyph horiz-adv-x="340" 
d="M137 236l-80 122q-4 7 -4 14q0 12 8.5 19.5t20.5 7.5q13 0 22 -11l66 -106l67 106q8 11 21 11q11 0 20 -7.5t9 -19.5q0 -7 -4 -14l-80 -122l79 -121q5 -8 5 -15q0 -11 -9 -18.5t-20 -7.5q-14 0 -22 11l-66 104l-66 -104q-9 -11 -22 -11q-12 0 -20.5 7.5t-8.5 18.5
q0 8 4 15z" />
    <glyph glyph-name="fi" unicode="fi" horiz-adv-x="506" 
d="M411 473q14 0 23.5 -6.5t9.5 -17.5v-423q0 -10 -9.5 -18t-23.5 -8t-23 8t-9 18v423q0 11 9 17.5t23 6.5zM274 704q-41 0 -69 -12.5t-45 -31.5t-24.5 -42t-7.5 -44v-101h127q11 0 17 -8t6 -18q0 -11 -6 -19.5t-17 -8.5h-127v-394q0 -11 -10 -18t-24 -7q-13 0 -22 7t-9 18
v547q0 36 13.5 70t40 61t65 43.5t89.5 16.5q28 0 55.5 -5t49.5 -13.5t35.5 -19.5t13.5 -24q0 -10 -7.5 -23t-18.5 -13q-7 0 -15.5 6t-23 13.5t-35 13.5t-51.5 6z" />
    <glyph glyph-name="fl" unicode="fl" horiz-adv-x="515" 
d="M379 671q-20 20 -47 29.5t-55 9.5t-55 -9.5t-48 -27t-33.5 -42.5t-12.5 -57v-101h127q11 0 17 -8t6 -18q0 -11 -6 -19.5t-17 -8.5h-127v-394q0 -11 -10 -18t-24 -7q-13 0 -22 7t-9 18v547q0 45 18 80.5t48 60t69 37.5t81 13q44 0 90 -16.5t75 -51.5v-669q0 -10 -9.5 -18
t-23.5 -8t-23 8t-9 18v645z" />
    <glyph glyph-name=".notdef" horiz-adv-x="340" 
d="M137 236l-80 122q-4 7 -4 14q0 12 8.5 19.5t20.5 7.5q13 0 22 -11l66 -106l67 106q8 11 21 11q11 0 20 -7.5t9 -19.5q0 -7 -4 -14l-80 -122l79 -121q5 -8 5 -15q0 -11 -9 -18.5t-20 -7.5q-14 0 -22 11l-66 104l-66 -104q-9 -11 -22 -11q-12 0 -20.5 7.5t-8.5 18.5
q0 8 4 15z" />
    <glyph glyph-name=".null" horiz-adv-x="0" 
 />
    <glyph glyph-name="nonmarkingreturn" unicode="&#xd;" horiz-adv-x="0" 
 />
    <glyph glyph-name="space" unicode=" " horiz-adv-x="200" 
 />
    <glyph glyph-name="exclam" unicode="!" horiz-adv-x="205" 
d="M140 705q0 -124 -5.5 -258.5t-5.5 -258.5q0 -12 -9.5 -17.5t-17.5 -5.5q-10 0 -18 5.5t-8 17.5q0 124 -6 258.5t-6 258.5q0 19 11 29t27 10t27 -10t11 -29zM103 87q19 0 32 -13.5t13 -33.5q0 -18 -13 -32t-32 -14q-20 0 -33 14t-13 32q0 20 13 33.5t33 13.5z" />
    <glyph glyph-name="quotedbl" unicode="&#x22;" horiz-adv-x="270" 
d="M69 768q11 0 22 -6t11 -16l-10 -147q0 -9 -5.5 -16t-17.5 -7q-11 0 -16 7t-5 16l-10 147q0 10 10 16t21 6zM199 768q11 0 22 -6t11 -16l-10 -147q0 -9 -5.5 -16t-17.5 -7q-11 0 -16 7t-5 16l-10 147q0 10 10 16t21 6z" />
    <glyph glyph-name="numbersign" unicode="#" horiz-adv-x="583" 
d="M244 713q14 0 23 -7.5t9 -21.5l-27 -169h127l29 183q2 7 9 11t16 4q14 0 23 -7.5t9 -21.5l-27 -169h98q8 0 16.5 -7t8.5 -18t-6.5 -18.5t-14.5 -7.5h-110l-26 -160h98q8 0 16.5 -7t8.5 -19q0 -11 -6.5 -18t-14.5 -7h-111l-31 -199q-2 -9 -10.5 -14.5t-17.5 -5.5
q-12 0 -21.5 7.5t-9.5 21.5l29 190h-125l-31 -198q-2 -11 -10.5 -16t-16.5 -5q-12 0 -21.5 7.5t-9.5 21.5l28 190h-95q-24 0 -24 25q0 11 5.5 18.5t14.5 7.5h110l24 160h-96q-24 0 -24 26q0 11 5.5 18t14.5 7h110l29 183q2 7 9 11t16 4zM215 304h126l25 160h-126z" />
    <glyph glyph-name="dollar" unicode="$" horiz-adv-x="499" 
d="M239 3q-47 0 -84.5 12t-63 29t-39 35t-13.5 32q0 12 9.5 24.5t20.5 12.5q9 0 19 -12.5t28 -27.5t47 -28t76 -14v291q-33 12 -65.5 25t-58.5 33.5t-42 51.5t-16 79q0 47 16 79t42 52t58.5 29.5t65.5 11.5v31q0 8 6.5 13.5t16.5 5.5q8 0 15.5 -5.5t7.5 -13.5v-29
q27 -1 54 -6t49 -13t35.5 -19t13.5 -23q0 -10 -7.5 -23.5t-21.5 -13.5q-7 0 -16.5 5t-23.5 12t-34.5 12.5t-48.5 7.5v-248q31 -11 61.5 -26t54.5 -38.5t39 -58.5t15 -86q0 -91 -47.5 -138.5t-122.5 -57.5v-39q0 -8 -7.5 -13.5t-15.5 -5.5q-10 0 -16.5 5.5t-6.5 13.5v36z
M391 196q0 33 -8.5 56t-23.5 39.5t-35 28.5t-42 21v-273q53 8 81 40t28 88zM120 552q0 -29 10 -49t26.5 -34.5t38.5 -24t46 -18.5v232q-24 -2 -45.5 -8.5t-38.5 -19t-27 -31.5t-10 -47z" />
    <glyph glyph-name="percent" unicode="%" horiz-adv-x="757" 
d="M164 351q-53 0 -88.5 26t-35.5 88v152q0 62 35.5 88t88.5 26q26 0 49 -6t39.5 -19.5t26 -35.5t9.5 -53v-152q0 -31 -9.5 -53t-26 -35.5t-39.5 -19.5t-49 -6zM238 617q0 35 -19.5 52t-54.5 17t-54 -17t-19 -52v-152q0 -35 19 -52t54 -17t54.5 17t19.5 52v152zM593 -3
q-53 0 -88.5 26t-35.5 88v152q0 61 35.5 87.5t88.5 26.5q26 0 49 -6.5t39.5 -20t26 -35t9.5 -52.5v-152q0 -31 -9.5 -53t-26 -35.5t-39.5 -19.5t-49 -6zM667 263q0 35 -19.5 52t-54.5 17t-54 -17t-19 -52v-152q0 -35 19 -52t54 -17t54.5 17t19.5 52v152zM570 769
q10 0 19 -7.5t9 -19.5q0 -7 -3 -13l-379 -741q-8 -15 -24 -15q-11 0 -18.5 7.5t-7.5 17.5q0 6 3 12l381 747q3 7 8.5 9.5t11.5 2.5z" />
    <glyph glyph-name="ampersand" unicode="&#x26;" horiz-adv-x="610" 
d="M263 -10q-54 0 -97 17t-72 46.5t-44.5 68t-15.5 81.5q0 38 11.5 69.5t31 56.5t43.5 43t50 30q-15 18 -29.5 37t-26 40.5t-18.5 45.5t-7 53q0 41 14.5 72.5t39 53.5t57.5 33t70 11q41 0 71.5 -11t51 -26.5t30.5 -32t10 -26.5q0 -13 -9 -21.5t-22 -8.5q-10 0 -18.5 11
t-21.5 24.5t-34 24.5t-55 11q-54 0 -85 -32.5t-31 -86.5q0 -26 8 -49.5t21 -44.5t29.5 -40.5t34.5 -38.5l203 -222q21 48 26.5 97.5t7.5 84.5q1 14 7 20.5t23 6.5q16 0 22 -8.5t6 -26.5q0 -15 -2 -40t-7.5 -54.5t-15 -61.5t-25.5 -63l91 -99q7 -8 7 -14q0 -11 -9.5 -19.5
t-20.5 -8.5q-10 0 -19 9l-81 87q-32 -43 -80.5 -71t-119.5 -28zM272 50q56 0 92 23t58 58l-215 229q-17 -10 -35.5 -22.5t-34 -30.5t-26 -42t-10.5 -56t11 -61t33 -50.5t54 -34.5t73 -13z" />
    <glyph glyph-name="quotesingle" unicode="'" horiz-adv-x="140" 
d="M69 768q11 0 22 -6t11 -16l-10 -147q0 -9 -5.5 -16t-17.5 -7q-11 0 -16 7t-5 16l-10 147q0 10 10 16t21 6z" />
    <glyph glyph-name="parenleft" unicode="(" horiz-adv-x="299" 
d="M247 -20q-39 0 -72.5 11t-58.5 32.5t-39.5 53.5t-14.5 74v433q0 38 14.5 71.5t40 58.5t59.5 39.5t72 14.5q17 0 24.5 -8.5t7.5 -20.5q0 -14 -7 -22.5t-17 -8.5q-31 0 -54.5 -11t-40 -28.5t-25 -40t-8.5 -44.5v-433q0 -34 12 -55.5t30.5 -34t41.5 -17t44 -4.5
q14 0 19 -9.5t5 -20.5q0 -14 -7.5 -22t-25.5 -8z" />
    <glyph glyph-name="parenright" unicode=")" horiz-adv-x="299" 
d="M52 -20q-18 0 -25.5 8t-7.5 22q0 11 5 20.5t19 9.5q21 0 44 4.5t41.5 17t30.5 34t12 55.5v433q0 22 -8.5 44.5t-25 40t-40 28.5t-54.5 11q-11 0 -17.5 8.5t-6.5 22.5q0 12 7.5 20.5t24.5 8.5q38 0 72 -14.5t59.5 -39.5t40 -58.5t14.5 -71.5v-433q0 -42 -14.5 -74
t-39.5 -53.5t-58.5 -32.5t-72.5 -11z" />
    <glyph glyph-name="asterisk" unicode="*" horiz-adv-x="431" 
d="M337 423q4 -5 4 -14q0 -12 -9.5 -20t-20.5 -8q-5 0 -10 2t-9 8l-76 112l-76 -113q-6 -9 -17 -9q-9 0 -20.5 7t-11.5 20q0 8 6 16l80 106l-127 38q-9 2 -13 9t-4 15q0 11 7.5 20t20.5 9q4 0 7 -1l126 -44l-5 130q1 13 8.5 19t18.5 6t18.5 -6t8.5 -19l-5 -131l126 45
q2 1 4.5 1h4.5q11 0 18 -9.5t7 -20.5q0 -19 -17 -23l-125 -36z" />
    <glyph glyph-name="plus" unicode="+" horiz-adv-x="431" 
d="M216 56q-12 0 -20.5 6.5t-8.5 17.5v132h-132q-11 0 -17.5 7.5t-6.5 20.5t6.5 21.5t17.5 8.5h132v130q0 10 8.5 18t20.5 8q13 0 21 -8t8 -18v-130h130q10 0 18 -8.5t8 -21.5t-8 -20.5t-18 -7.5h-130v-132q0 -11 -8 -17.5t-21 -6.5z" />
    <glyph glyph-name="comma" unicode="," horiz-adv-x="171" 
d="M85 87q17 0 31.5 -12.5t14.5 -34.5q0 -3 -0.5 -8t-4.5 -16.5t-11.5 -32t-21.5 -55.5q-6 -12 -20 -12q-8 0 -16 5t-8 14q0 6 1 10l20 52q-14 5 -22 17t-8 26q0 20 13 33.5t32 13.5z" />
    <glyph glyph-name="hyphen" unicode="-" horiz-adv-x="413" 
d="M52 240q0 13 7 21.5t18 8.5h260q10 0 17.5 -8.5t7.5 -21.5t-7.5 -20.5t-17.5 -7.5h-260q-25 0 -25 28z" />
    <glyph glyph-name="period" unicode="." horiz-adv-x="171" 
d="M86 87q18 0 31.5 -13.5t13.5 -33.5q0 -18 -13.5 -32t-31.5 -14q-20 0 -33 14t-13 32q0 20 13 33.5t33 13.5z" />
    <glyph glyph-name="slash" unicode="/" horiz-adv-x="474" 
d="M424 769q10 0 19.5 -7.5t9.5 -19.5q0 -8 -4 -13l-379 -741q-3 -8 -9.5 -11.5t-14.5 -3.5q-11 0 -18.5 7.5t-7.5 17.5q0 6 3 12l381 747q3 7 8.5 9.5t11.5 2.5z" />
    <glyph glyph-name="zero" unicode="0" horiz-adv-x="532" 
d="M266 -6q-44 0 -82 11.5t-66 37t-44 66t-16 99.5v310q0 58 16 98.5t44 66t66 37t82 11.5t82 -11.5t66 -37t44 -66t16 -98.5v-310q0 -59 -16 -99.5t-44 -66t-66 -37t-82 -11.5zM408 518q0 78 -37.5 115t-104.5 37t-104.5 -37t-37.5 -115v-310q0 -79 37.5 -116t104.5 -37
t104.5 37t37.5 116v310zM267 398q15 0 25.5 -10t10.5 -26q0 -15 -10.5 -26t-25.5 -11q-17 0 -27 11t-10 26q0 16 10 26t27 10z" />
    <glyph glyph-name="one" unicode="1" horiz-adv-x="233" 
d="M98 619l-40 -65q-8 -12 -19 -12t-18.5 9t-7.5 20q0 7 5 16t10 14l82 116q5 6 10 10.5t15 4.5q11 0 20 -6.5t9 -18.5v-681q0 -13 -10.5 -19.5t-22.5 -6.5q-13 0 -23 6.5t-10 19.5v593z" />
    <glyph glyph-name="two" unicode="2" horiz-adv-x="475" 
d="M51 565q0 36 14.5 66.5t40 52.5t59.5 34.5t74 12.5q43 0 79.5 -15t63 -40.5t41.5 -61t15 -75.5q0 -54 -25 -96.5t-62 -77.5t-81 -65t-81 -58t-62 -57t-25 -62v-62h319q10 0 17 -9t7 -21t-7 -21.5t-17 -9.5h-356q-10 0 -20.5 7t-10.5 19v97q0 41 25 76t62.5 66.5
t81.5 61.5t81.5 62t62.5 68t25 80q0 24 -8 47.5t-25 42t-42.5 30.5t-59.5 12q-52 0 -86.5 -29t-34.5 -89q0 -10 -9 -18.5t-26 -8.5q-15 0 -22.5 9t-7.5 32z" />
    <glyph glyph-name="three" unicode="3" horiz-adv-x="487" 
d="M234 55q70 0 107 36t37 114v19q0 69 -38.5 101t-103.5 32q-14 0 -20 8.5t-6 19.5t5.5 20t19.5 9q60 0 92.5 27t32.5 101q0 66 -29 97.5t-92 31.5q-39 0 -64 -10.5t-39.5 -26.5t-19.5 -35t-5 -35q0 -32 -32 -32q-20 0 -27 8t-7 30q0 21 8.5 48.5t30 52.5t59.5 42.5
t98 17.5q40 0 74 -9.5t58 -30.5t37.5 -54.5t13.5 -81.5q0 -69 -23.5 -110.5t-58.5 -58.5q45 -18 73.5 -56.5t28.5 -105.5v-19q0 -57 -16.5 -97.5t-44.5 -65.5t-66.5 -36.5t-81.5 -11.5q-53 0 -92 15.5t-64.5 39.5t-38 53t-12.5 57q0 21 7 28t24 7q20 0 27 -7.5t7 -20.5
q0 -16 6.5 -35.5t22.5 -36t43.5 -28t68.5 -11.5z" />
    <glyph glyph-name="four" unicode="4" horiz-adv-x="444" 
d="M288 172h-254q-13 0 -19.5 8t-6.5 19q0 10 4 17l251 495q5 11 13.5 15.5t17.5 4.5q10 0 21 -7.5t11 -19.5q0 -6 -3 -13l-231 -456h196v193q0 13 10 19t23 6q12 0 22.5 -6t10.5 -19v-193h55q13 0 19 -10t6 -21q0 -12 -7 -22t-18 -10h-55v-146q0 -13 -10.5 -19.5
t-22.5 -6.5q-13 0 -23 6.5t-10 19.5v146z" />
    <glyph glyph-name="five" unicode="5" horiz-adv-x="474" 
d="M236 430q44 0 82 -11t65.5 -35.5t43.5 -63.5t16 -95v-19q0 -58 -16 -98t-44 -65.5t-66 -37t-81 -11.5q-50 0 -88.5 14t-65 37t-40.5 54t-14 65q0 18 9 25.5t23 7.5q34 0 34 -28q0 -27 11 -48.5t30 -36t44.5 -22t55.5 -7.5q67 0 104.5 36.5t37.5 114.5v19
q0 75 -37.5 111.5t-103.5 36.5h-139q-21 0 -27.5 7t-6.5 18q0 3 0.5 10t0.5 10l20 288q3 25 21 25h280q11 0 16.5 -9.5t5.5 -20.5q0 -12 -5.5 -21.5t-16.5 -9.5h-242l-16 -240h109z" />
    <glyph glyph-name="six" unicode="6" horiz-adv-x="517" 
d="M275 431q42 0 78 -9.5t63 -33t42.5 -61.5t15.5 -95v-24q0 -59 -16 -99.5t-44 -66t-66 -37t-82 -11.5t-82 11.5t-66 37t-44 66t-16 99.5v310q0 58 16 98.5t44.5 66t66.5 37t83 11.5q50 0 88.5 -14.5t64.5 -38.5t39.5 -54.5t13.5 -63.5q0 -17 -8.5 -23.5t-22.5 -6.5
t-24.5 6t-10.5 21q0 26 -11 47t-30.5 35.5t-45.5 22.5t-55 8q-67 0 -104.5 -37t-37.5 -115v-153q26 35 65 50.5t86 15.5zM124 205q0 -78 37.5 -115t104.5 -37t104.5 37t37.5 115v24q0 79 -37.5 112t-104.5 33q-65 0 -103.5 -31t-38.5 -105v-33z" />
    <glyph glyph-name="seven" unicode="7" horiz-adv-x="459" 
d="M443 620q0 -14 -10 -29l-297 -580q-7 -13 -22 -13t-27.5 9t-12.5 23q0 4 4 14l299 572v54h-284v-115q0 -11 -10 -18t-23 -7q-14 0 -23.5 7t-9.5 18v151q0 9 9.5 17t20.5 8h355q11 0 21 -8t10 -17v-86z" />
    <glyph glyph-name="eight" unicode="8" horiz-adv-x="502" 
d="M251 731q40 0 74.5 -9t60 -29t39.5 -54t14 -83q0 -65 -24 -102.5t-64 -54.5q49 -20 78.5 -64.5t29.5 -122.5v-12q0 -56 -16 -95t-44 -64t-66 -36t-82 -11t-82 11t-66 36t-44 64t-16 95v12q0 78 30 122.5t79 64.5q-40 17 -64.5 54.5t-24.5 102.5q0 49 14.5 83t39.5 54
t59.5 29t74.5 9zM393 219q0 78 -37.5 113.5t-104.5 35.5q-66 0 -104 -35.5t-38 -113.5v-14q0 -78 38 -115.5t105 -37.5t104 37.5t37 115.5v14zM251 673q-58 0 -90.5 -28t-32.5 -94t32.5 -95t90.5 -29q59 0 91.5 29t32.5 95t-32.5 94t-91.5 28z" />
    <glyph glyph-name="nine" unicode="9" horiz-adv-x="517" 
d="M242 294q-42 0 -78 9.5t-63 33t-42.5 62t-15.5 95.5v24q0 58 16 98.5t43.5 66t65.5 37t82 11.5t82 -11.5t66.5 -37t44.5 -66t16 -98.5v-310q0 -59 -16 -99.5t-44.5 -66t-67 -37t-82.5 -11.5q-51 0 -89.5 14.5t-64.5 38.5t-39 54.5t-13 63.5q0 31 31 31q13 0 23.5 -6.5
t10.5 -21.5q0 -26 11 -47t30.5 -35.5t45.5 -22.5t55 -8q68 0 105.5 37t37.5 116v153q-26 -35 -65 -51t-86 -16zM393 520q0 79 -38 116t-105 37t-104 -37t-37 -116v-24q0 -79 37 -112t105 -33q32 0 58.5 7.5t45 23.5t28.5 42t10 63v33z" />
    <glyph glyph-name="colon" unicode=":" horiz-adv-x="203" 
d="M102 87q18 0 31.5 -13.5t13.5 -33.5q0 -18 -13.5 -32t-31.5 -14q-20 0 -33 14t-13 32q0 20 13 33.5t33 13.5zM102 423q18 0 31.5 -13.5t13.5 -33.5q0 -18 -13.5 -32t-31.5 -14q-20 0 -33 14t-13 32q0 20 13 33.5t33 13.5z" />
    <glyph glyph-name="semicolon" unicode=";" horiz-adv-x="209" 
d="M103 87q17 0 31.5 -12.5t14.5 -34.5q0 -3 -0.5 -8t-4.5 -16.5t-11.5 -32t-21.5 -55.5q-6 -12 -20 -12q-8 0 -16 5t-8 14q0 6 1 10l20 52q-14 5 -22 17t-8 26q0 20 13 33.5t32 13.5zM107 423q18 0 31.5 -13.5t13.5 -33.5q0 -18 -13.5 -32t-31.5 -14q-20 0 -33 14t-13 32
q0 20 13 33.5t33 13.5z" />
    <glyph glyph-name="less" unicode="&#x3c;" horiz-adv-x="400" 
d="M25 277q0 8 4.5 15.5t11.5 12.5l269 178q5 4 12 4q11 0 21 -9t10 -22q0 -14 -11 -21l-238 -158l238 -157q11 -7 11 -21q0 -13 -10 -22t-21 -9q-7 0 -12 4l-269 178q-16 10 -16 27z" />
    <glyph glyph-name="equal" unicode="=" horiz-adv-x="434" 
d="M66 166q0 12 6.5 20.5t17.5 8.5h253q10 0 17.5 -8.5t7.5 -20.5q0 -13 -7.5 -21t-17.5 -8h-253q-11 0 -17.5 8t-6.5 21zM66 369q0 12 6.5 20.5t17.5 8.5h253q10 0 17.5 -8.5t7.5 -20.5q0 -13 -7.5 -21t-17.5 -8h-253q-11 0 -17.5 8t-6.5 21z" />
    <glyph glyph-name="greater" unicode="&#x3e;" horiz-adv-x="399" 
d="M375 277q0 -17 -16 -27l-269 -178q-5 -4 -12 -4q-11 0 -21 9t-10 22q0 14 11 21l238 157l-238 158q-11 7 -11 21q0 13 10 22t21 9q7 0 12 -4l269 -178q7 -5 11.5 -12.5t4.5 -15.5z" />
    <glyph glyph-name="question" unicode="?" horiz-adv-x="398" 
d="M365 566q0 -47 -15.5 -82t-37 -61.5t-44 -46.5t-36.5 -36q-13 -14 -20 -28.5t-10.5 -32.5t-4 -40.5t-0.5 -50.5q0 -23 -27 -23q-12 0 -19.5 6t-7.5 23q0 42 3.5 70.5t9 48t13.5 32.5t17 23q16 17 37 34.5t40 40t32 51t13 67.5q0 60 -34.5 94t-100.5 34q-33 0 -53 -7.5
t-33 -17t-21 -17t-18 -7.5q-8 0 -16.5 7t-8.5 20q0 12 11.5 25.5t32 25t48.5 19t61 7.5q47 0 82.5 -14t59 -38t35.5 -56.5t12 -69.5zM170 87q19 0 32.5 -13.5t13.5 -33.5q0 -18 -13 -32t-33 -14t-33 14t-13 32q0 20 13.5 33.5t32.5 13.5z" />
    <glyph glyph-name="at" unicode="@" horiz-adv-x="716" 
d="M234 370q0 10 11.5 19t29.5 16t40.5 10.5t44.5 3.5q66 0 104 -33t38 -95v-166q3 -23 19.5 -36.5t36.5 -13.5q21 0 34 15t20.5 37.5t10 50t2.5 51.5q0 132 -63.5 206t-196.5 74q-75 0 -125 -24t-81 -64.5t-44 -93t-13 -109.5q0 -53 12 -102.5t39 -87.5t71.5 -61t110.5 -23
q33 0 56 5t39.5 10.5t27.5 10.5t18 5q10 0 15.5 -8t5.5 -14q0 -11 -15.5 -21t-40 -17.5t-54.5 -12.5t-59 -5q-54 0 -103.5 19t-87.5 58t-61 99.5t-23 143.5q0 70 18 132.5t56 108.5t97.5 73t142.5 27q149 0 228.5 -83t79.5 -239q0 -40 -6 -76.5t-20.5 -65t-37.5 -45.5
t-57 -17q-38 0 -64.5 19.5t-32.5 45.5q-26 -27 -53 -41.5t-70 -14.5q-26 0 -48.5 6t-39.5 18.5t-27 33.5t-10 51q0 34 13.5 56t39 34.5t62 17.5t81.5 5h43v19q0 44 -23.5 64.5t-74.5 20.5q-24 0 -39.5 -4t-26 -8.5t-17 -8.5t-12.5 -4q-10 0 -15.5 10t-5.5 18zM450 222h-41
q-31 0 -57.5 -2.5t-45.5 -10t-30 -21.5t-11 -38q0 -35 22 -50t54 -15q25 0 45 7.5t34.5 19.5t22 26.5t7.5 28.5v55z" />
    <glyph glyph-name="A" unicode="A" horiz-adv-x="540" 
d="M59 0q-13 0 -25.5 7.5t-12.5 20.5q0 5 1 7l209 679q4 12 15 17.5t24 5.5q14 0 25 -6t15 -17l208 -679q0 -2 0.5 -3t0.5 -3q0 -12 -13 -20.5t-27 -8.5q-19 0 -25 17l-46 154h-277l-46 -154q-2 -9 -9.5 -13t-16.5 -4zM391 228l-121 403l-122 -403h243z" />
    <glyph glyph-name="B" unicode="B" horiz-adv-x="538" 
d="M76 706q0 13 9.5 19t20.5 6h164q42 0 79 -6.5t65 -25.5t44 -52t16 -86q0 -63 -23.5 -105.5t-61.5 -59.5q23 -9 42 -23t32.5 -34t21 -48.5t7.5 -66.5v-18q0 -57 -15.5 -96.5t-42 -63.5t-62.5 -35t-78 -11h-188q-14 0 -22 7.5t-8 17.5v681zM286 61q66 0 103 35t37 113v17
q0 78 -37 110t-103 32h-145v-307h145zM141 425h131q69 0 102.5 28.5t33.5 100.5q0 34 -10.5 56.5t-29 36t-44 18.5t-56.5 5h-127v-245z" />
    <glyph glyph-name="C" unicode="C" horiz-adv-x="523" 
d="M418 549q-1 16 -6 37t-20 39.5t-42 31.5t-72 13q-70 0 -107 -37t-37 -115v-310q0 -79 37.5 -116t110.5 -37q45 0 71 12.5t39.5 31t18.5 40t7 39.5q3 26 33 26q17 0 25 -8t8 -33q0 -34 -14 -64.5t-41 -54t-66 -37t-88 -13.5q-42 0 -80 11.5t-66 37t-44.5 66t-16.5 99.5
v310q0 58 17 98.5t45.5 66t66.5 37t81 11.5q49 0 87.5 -13.5t64.5 -36.5t40 -53t14 -64q0 -25 -8 -32.5t-25 -7.5t-24.5 7t-8.5 18z" />
    <glyph glyph-name="D" unicode="D" horiz-adv-x="560" 
d="M283 731q44 0 82 -11.5t66.5 -37t44.5 -66t16 -98.5v-304q0 -59 -16 -99.5t-44.5 -66t-66.5 -37t-82 -11.5h-177q-14 0 -22 7.5t-8 17.5v682q0 10 8 17t22 7h177zM142 670v-609h141q67 0 105 37.5t38 115.5v304q0 78 -38 115t-105 37h-141z" />
    <glyph glyph-name="E" unicode="E" horiz-adv-x="508" 
d="M142 395h157q12 0 18.5 -9t6.5 -21q0 -10 -5.5 -18.5t-19.5 -8.5h-157v-277h320q12 0 18.5 -9.5t6.5 -21.5q0 -11 -5.5 -20.5t-19.5 -9.5h-356q-11 0 -20.5 6.5t-9.5 19.5v680q0 13 9.5 19t20.5 6h356q14 0 19.5 -9t5.5 -20q0 -13 -6.5 -22.5t-18.5 -9.5h-320v-275z" />
    <glyph glyph-name="F" unicode="F" horiz-adv-x="494" 
d="M76 706q0 13 9.5 19t20.5 6h354q13 0 19 -9t6 -20q0 -13 -6.5 -22.5t-18.5 -9.5h-318v-275h158q11 0 17.5 -9t6.5 -21q0 -10 -5.5 -18.5t-18.5 -8.5h-158v-313q0 -13 -10.5 -19t-22.5 -6q-13 0 -23 6t-10 19v681z" />
    <glyph glyph-name="G" unicode="G" horiz-adv-x="541" 
d="M418 549q-7 58 -41.5 89.5t-100.5 31.5q-67 0 -104.5 -37t-37.5 -115v-310q0 -78 37.5 -115.5t104.5 -37.5t104.5 37.5t37.5 115.5v119h-134q-11 0 -17.5 9t-6.5 20t6.5 19.5t17.5 8.5h176q12 0 18 -7.5t6 -18.5v-150q0 -59 -16 -99.5t-44 -66t-66 -37t-82 -11.5
t-82 11.5t-66 37t-44 66t-16 99.5v310q0 58 16 98.5t44 66t65.5 37t81.5 11.5q48 0 86.5 -13t66 -36t42 -55t14.5 -69q0 -20 -9 -27t-24 -7q-13 0 -22.5 5.5t-10.5 19.5z" />
    <glyph glyph-name="H" unicode="H" horiz-adv-x="573" 
d="M431 351h-289v-325q0 -13 -10.5 -19.5t-22.5 -6.5q-13 0 -23 6.5t-10 19.5v681q0 13 10 18.5t23 5.5q12 0 22.5 -5.5t10.5 -18.5v-299h289v299q0 13 10 18.5t23 5.5q12 0 22.5 -5.5t10.5 -18.5v-681q0 -13 -10.5 -19.5t-22.5 -6.5q-13 0 -23 6.5t-10 19.5v325z" />
    <glyph glyph-name="I" unicode="I" horiz-adv-x="218" 
d="M76 707q0 13 10 18.5t23 5.5q12 0 22.5 -5.5t10.5 -18.5v-681q0 -13 -10.5 -19.5t-22.5 -6.5q-13 0 -23 6.5t-10 19.5v681z" />
    <glyph glyph-name="J" unicode="J" horiz-adv-x="512" 
d="M232 670q-12 0 -18.5 9.5t-6.5 22.5q0 11 6 20t19 9h176q12 0 21.5 -6t9.5 -19v-498q0 -59 -16 -99.5t-44 -66t-65.5 -37t-80.5 -11.5q-48 0 -87 13t-66 36.5t-42 56t-15 70.5q0 20 8.5 27t23.5 7q13 0 23.5 -6t10.5 -20q0 -57 38.5 -90t103.5 -33q67 0 104.5 37.5
t37.5 115.5v462h-141z" />
    <glyph glyph-name="K" unicode="K" horiz-adv-x="522" 
d="M76 707q0 13 10 18.5t23 5.5q12 0 22.5 -5.5t10.5 -18.5v-354l289 368q7 10 21 10q12 0 24 -10.5t12 -23.5q0 -3 -1 -7t-4 -8l-215 -267l246 -370q4 -8 4 -13q0 -14 -12 -24t-26 -10q-15 0 -25 15l-231 347l-82 -104v-230q0 -13 -10.5 -19.5t-22.5 -6.5q-13 0 -23 6.5
t-10 19.5v681z" />
    <glyph glyph-name="L" unicode="L" horiz-adv-x="463" 
d="M106 0q-11 0 -20.5 6.5t-9.5 19.5v681q0 13 10 18.5t23 5.5q12 0 22.5 -5.5t10.5 -18.5v-646h285q11 0 16.5 -9.5t5.5 -20.5q0 -12 -5.5 -21.5t-16.5 -9.5h-321z" />
    <glyph glyph-name="M" unicode="M" horiz-adv-x="668" 
d="M360 274q-11 -21 -27 -21q-15 0 -26 21l-165 317v-565q0 -13 -10.5 -19.5t-22.5 -6.5q-13 0 -23 6.5t-10 19.5v673q0 18 10 25t23 7q18 0 30.5 -13.5t22.5 -32.5l172 -332l172 332q10 19 22.5 32.5t30.5 13.5q14 0 23.5 -7t9.5 -25v-673q0 -13 -10 -19.5t-23 -6.5
q-12 0 -22.5 6.5t-10.5 19.5v562z" />
    <glyph glyph-name="N" unicode="N" horiz-adv-x="573" 
d="M464 0q-14 0 -25 11.5t-19 26.5l-278 541v-553q0 -13 -10.5 -19.5t-22.5 -6.5q-13 0 -23 6.5t-10 19.5v680q0 14 10 19.5t23 5.5q18 0 30 -13.5t22 -32.5l270 -532v554q0 13 10 18.5t23 5.5q12 0 22.5 -5.5t10.5 -18.5v-681q0 -13 -10.5 -19.5t-22.5 -6.5z" />
    <glyph glyph-name="O" unicode="O" horiz-adv-x="552" 
d="M276 -6q-44 0 -82 11.5t-66 37t-44 66t-16 99.5v310q0 58 16 98.5t44 66t66 37t82 11.5t82 -11.5t66 -37t44 -66t16 -98.5v-310q0 -59 -16 -99.5t-44 -66t-66 -37t-82 -11.5zM418 518q0 78 -37.5 115t-104.5 37t-104.5 -37t-37.5 -115v-310q0 -79 37.5 -116t104.5 -37
t104.5 37t37.5 116v310z" />
    <glyph glyph-name="P" unicode="P" horiz-adv-x="527" 
d="M76 707q0 22 28 24h184q43 0 81 -11.5t65.5 -36.5t43.5 -65.5t16 -98.5v-10q0 -58 -16 -98.5t-44 -66t-66 -37t-82 -11.5h-144v-270q0 -13 -10.5 -19.5t-22.5 -6.5q-13 0 -23 6.5t-10 19.5v681zM142 670v-317h144q67 0 104.5 37.5t37.5 115.5v12q0 78 -37.5 115
t-104.5 37h-144z" />
    <glyph glyph-name="Q" unicode="Q" horiz-adv-x="552" 
d="M277 -109q-10 0 -18 6t-8 19v79q-39 3 -72.5 16t-58 38.5t-38.5 64.5t-14 94v310q0 58 16 98.5t44 66t66 37t82 11.5t82 -11.5t66 -37t44 -66t16 -98.5v-310q0 -54 -14 -93t-38 -64.5t-57.5 -39t-72.5 -16.5v-79q0 -13 -8 -19t-17 -6zM418 518q0 78 -37.5 115t-104.5 37
t-104.5 -37t-37.5 -115v-310q0 -71 30.5 -107.5t86.5 -42.5v74q0 13 8 18.5t18 5.5q9 0 17 -5.5t8 -18.5v-74q55 7 85.5 43t30.5 107v310z" />
    <glyph glyph-name="R" unicode="R" horiz-adv-x="529" 
d="M76 707q0 22 25 24h177q44 0 83 -9.5t68.5 -32.5t47 -61t17.5 -94q0 -47 -12 -80.5t-33 -57t-49.5 -36.5t-61.5 -19l154 -296q4 -5 4 -13q0 -13 -12 -23.5t-26 -10.5q-12 0 -20.5 11.5t-14.5 23.5l-154 300h-127v-307q0 -13 -10.5 -19.5t-22.5 -6.5q-13 0 -23 6.5
t-10 19.5v681zM142 670v-280h136q67 0 108.5 32.5t41.5 108.5q0 75 -41.5 107t-108.5 32h-136z" />
    <glyph glyph-name="S" unicode="S" horiz-adv-x="494" 
d="M237 55q70 0 109.5 34.5t39.5 103.5q0 55 -24.5 86.5t-61.5 51t-80 33.5t-80 35t-61.5 56t-24.5 96q0 55 20 90t51 55.5t68.5 28.5t72.5 8q28 0 58 -4.5t54.5 -12.5t40 -19.5t15.5 -24.5q0 -10 -7.5 -23.5t-21.5 -13.5q-7 0 -17.5 6t-26.5 13t-39.5 13t-56.5 6
q-28 0 -54 -5.5t-46.5 -19t-32.5 -36t-12 -55.5q0 -46 24.5 -71.5t61.5 -42.5t80 -31t80 -38.5t61.5 -65t24.5 -109.5q0 -53 -15.5 -92t-43.5 -64.5t-67 -37.5t-85 -12q-48 0 -86 12t-64.5 28.5t-40.5 35t-14 32.5q0 12 9.5 24.5t20.5 12.5q10 0 20 -13t28 -28.5t47 -28.5
t76 -13z" />
    <glyph glyph-name="T" unicode="T" horiz-adv-x="481" 
d="M441 731q13 0 19 -9.5t6 -20.5q0 -12 -6 -22t-19 -10h-167v-643q0 -13 -10.5 -19.5t-22.5 -6.5q-13 0 -23 6.5t-10 19.5v643h-168q-12 0 -18.5 9.5t-6.5 21.5q0 11 6 21t19 10h401z" />
    <glyph glyph-name="U" unicode="U" horiz-adv-x="566" 
d="M427 707q0 13 10 18.5t23 5.5q12 0 22.5 -5.5t10.5 -18.5v-499q0 -59 -16.5 -99.5t-45 -66t-66.5 -37t-82 -11.5t-82.5 11.5t-67 37t-44.5 66t-16 99.5v499q0 13 10.5 18.5t22.5 5.5q13 0 23 -5.5t10 -18.5v-499q0 -78 38 -115.5t106 -37.5t106 37.5t38 115.5v499z" />
    <glyph glyph-name="V" unicode="V" horiz-adv-x="538" 
d="M21 696q-1 2 -1 7q0 13 12.5 20.5t25.5 7.5q9 0 16.5 -4t9.5 -13l185 -614l184 614q6 17 25 17q14 0 27 -8.5t13 -20.5q0 -2 -0.5 -3t-0.5 -3l-208 -678q-4 -12 -15 -18t-25 -6q-13 0 -24 5.5t-15 18.5z" />
    <glyph glyph-name="W" unicode="W" horiz-adv-x="787" 
d="M568 18q-4 -12 -15 -18t-25 -6q-13 0 -24.5 5.5t-14.5 18.5l-95 353l-95 -353q-3 -12 -14 -18t-25 -6t-25 5.5t-15 18.5l-197 678q-1 3 -1 8q0 12 12 19.5t26 7.5q9 0 16.5 -4.5t9.5 -12.5l173 -614l100 373q3 13 13 18t22 5t21 -5t13 -18l100 -373l173 614q2 8 9.5 12.5
t16.5 4.5q14 0 26 -7.5t12 -19.5q0 -5 -1 -8z" />
    <glyph glyph-name="X" unicode="X" horiz-adv-x="484" 
d="M242 310l-148 -280q-5 -11 -12.5 -21.5t-18.5 -10.5q-14 0 -26.5 9.5t-12.5 23.5q0 8 4 16l172 319l-169 317q-6 10 -6 21q0 13 12 21t27 8q12 0 20 -11.5t14 -22.5l144 -275l144 275q6 11 14 22.5t20 11.5q15 0 27 -8t12 -21q0 -11 -6 -21l-170 -317l173 -319
q4 -8 4 -16q0 -14 -12.5 -23.5t-26.5 -9.5q-11 0 -18.5 10.5t-12.5 21.5z" />
    <glyph glyph-name="Y" unicode="Y" horiz-adv-x="531" 
d="M232 280q0 5 -1 8l-207 397q-3 5 -4 10t-1 8q0 13 12 20.5t24 7.5q16 0 26 -20l184 -365l185 365q10 20 26 20q12 0 24 -7.5t12 -20.5q0 -3 -1 -8t-3 -10l-208 -397q-2 -6 -2 -8v-254q0 -13 -10 -19.5t-23 -6.5q-12 0 -22.5 6.5t-10.5 19.5v254z" />
    <glyph glyph-name="Z" unicode="Z" horiz-adv-x="484" 
d="M109 61h327q13 0 19 -9.5t6 -20.5t-6 -21t-19 -10h-388q-11 0 -17.5 6.5t-6.5 16.5q0 11 6 23l333 624h-302q-12 0 -18.5 9.5t-6.5 21.5q0 11 6 20.5t19 9.5h363q13 0 19 -6t6 -15q0 -12 -8 -26z" />
    <glyph glyph-name="bracketleft" unicode="[" horiz-adv-x="303" 
d="M134 39h125q11 0 18 -9t7 -21q0 -11 -7 -20.5t-18 -9.5h-161q-11 0 -20.5 6.5t-9.5 18.5v739q0 11 9 18t21 7h161q11 0 18 -9t7 -20q0 -13 -7 -22t-18 -9h-125v-669z" />
    <glyph glyph-name="backslash" unicode="\" horiz-adv-x="346" 
d="M24 718q-1 2 -1 4.5v4.5q0 12 8.5 19.5t19.5 7.5q16 0 22 -14l249 -707q1 -3 1 -8q0 -11 -8 -18t-19 -7q-8 0 -14.5 4t-9.5 13z" />
    <glyph glyph-name="bracketright" unicode="]" horiz-adv-x="303" 
d="M169 708h-126q-11 0 -17.5 9t-6.5 22q0 11 6.5 20t17.5 9h161q12 0 21.5 -7t9.5 -18v-739q0 -12 -10 -18.5t-21 -6.5h-161q-11 0 -17.5 9.5t-6.5 20.5q0 12 6.5 21t17.5 9h126v669z" />
    <glyph glyph-name="asciicircum" unicode="^" horiz-adv-x="268" 
d="M30 595q-2 -1 -4.5 -2t-4.5 -1q-8 0 -14.5 7.5t-6.5 18.5q0 6 3 12t10 10l104 56q8 5 17 5t17 -5l104 -56q7 -3 10 -9.5t3 -13.5q0 -10 -6 -17t-14 -7q-2 0 -5 1t-5 2l-104 55z" />
    <glyph glyph-name="underscore" unicode="_" horiz-adv-x="336" 
d="M-17 -30q0 13 7 21.5t18 8.5h320q10 0 17.5 -8.5t7.5 -21.5t-7.5 -20.5t-17.5 -7.5h-320q-25 0 -25 28z" />
    <glyph glyph-name="grave" unicode="`" horiz-adv-x="155" 
d="M13 651q-13 6 -13 22q0 10 6.5 19t17.5 9q4 0 9 -3l111 -61q11 -6 11 -18q0 -11 -7.5 -19.5t-18.5 -8.5q-6 0 -10 3z" />
    <glyph glyph-name="a" unicode="a" horiz-adv-x="438" 
d="M198 479q50 0 84.5 -16t56 -43t31 -62t9.5 -72v-260q0 -11 -9 -18.5t-23 -7.5q-13 0 -21.5 7.5t-8.5 18.5v44q-26 -30 -63 -53.5t-88 -23.5q-29 0 -53.5 8t-43 24.5t-29 41t-10.5 58.5q0 41 17 67.5t47.5 42t73.5 21.5t95 6h51v24q0 24 -6.5 48t-20.5 43.5t-36.5 32
t-54.5 12.5q-25 0 -42.5 -4.5t-30 -10t-20.5 -10t-14 -4.5q-13 0 -19.5 12t-6.5 23q0 10 12 19t31.5 16t43.5 11.5t48 4.5zM314 217h-42q-35 0 -66.5 -2.5t-56.5 -11.5t-39.5 -26t-14.5 -46q0 -44 25 -63.5t62 -19.5q24 0 47.5 10t42.5 25.5t30.5 34t11.5 35.5v64z" />
    <glyph glyph-name="b" unicode="b" horiz-adv-x="484" 
d="M95 763q14 0 23.5 -6.5t9.5 -17.5v-336q17 29 50 52.5t83 23.5q37 0 69.5 -14.5t57 -40t38.5 -59.5t14 -73v-109q0 -37 -14.5 -71.5t-39 -60.5t-56.5 -42t-67 -16q-47 0 -84 23t-53 54v-44q0 -10 -9 -18t-22 -8q-14 0 -23 8t-9 18v713q0 11 9 17.5t23 6.5zM375 292
q0 24 -10 47t-27 40.5t-39.5 28.5t-48.5 11q-23 0 -44.5 -8.5t-39 -25t-28 -40t-10.5 -53.5v-140q0 -11 9.5 -28t26 -33t39 -27t48.5 -11q25 0 47.5 11t39.5 29t27 41.5t10 48.5v109z" />
    <glyph glyph-name="c" unicode="c" horiz-adv-x="411" 
d="M240 -7q-50 0 -86.5 14.5t-60.5 40t-35.5 60t-11.5 75.5v107q0 40 11.5 74.5t35 60t60 40t86.5 14.5q32 0 58 -6.5t44.5 -16t28.5 -21t10 -21.5q0 -11 -8.5 -21.5t-20.5 -10.5q-7 0 -14.5 6t-19.5 12.5t-30 12.5t-45 6q-66 0 -98.5 -34.5t-32.5 -94.5v-107
q0 -61 33 -95.5t99 -34.5q29 0 47.5 6t30.5 13t19.5 13t15.5 6q14 0 22 -10.5t8 -21.5q0 -10 -10.5 -21.5t-29.5 -21.5t-46 -16.5t-60 -6.5z" />
    <glyph glyph-name="d" unicode="d" horiz-adv-x="484" 
d="M390 763q14 0 22.5 -6.5t8.5 -17.5v-713q0 -10 -8.5 -18t-22.5 -8q-13 0 -22 8t-9 18v44q-17 -31 -53.5 -54t-83.5 -23q-36 0 -68 16t-56 42t-38.5 60.5t-14.5 71.5v109q0 39 14 73t38.5 59.5t57 40t69.5 14.5q50 0 83 -23.5t49 -52.5v336q0 11 10 17.5t24 6.5zM110 183
q0 -25 10 -48.5t27 -41.5t39.5 -29t47.5 -11q26 0 48.5 11t39 27t25.5 33t9 28v140q0 30 -10.5 53.5t-27.5 40t-39 25t-44 8.5q-26 0 -48.5 -11t-39.5 -28.5t-27 -40.5t-10 -47v-109z" />
    <glyph glyph-name="e" unicode="e" horiz-adv-x="458" 
d="M236 479q37 0 71 -13.5t59.5 -37.5t41 -57.5t15.5 -73.5q0 -29 -7.5 -45t-19.5 -24t-28 -9.5t-32 -1.5h-226v-37q0 -60 43 -95t109 -35q30 0 49 6t32 13.5t22 14t17 6.5q12 0 20 -11t8 -20t-10.5 -20.5t-30 -21.5t-47 -17t-62.5 -7q-47 0 -86.5 13.5t-68 38.5t-44.5 60
t-16 78v112q0 37 15 70.5t41 59t61 40t74 14.5zM310 265q30 0 40 6.5t10 27.5q0 24 -9 46.5t-25.5 40.5t-39.5 28.5t-51 10.5q-26 0 -48.5 -9.5t-39.5 -26t-27 -39t-10 -47.5v-38h200z" />
    <glyph glyph-name="f" unicode="f" horiz-adv-x="305" 
d="M128 473h143q11 0 17 -8t6 -18q0 -11 -6 -19.5t-17 -8.5h-143v-394q0 -11 -10 -18t-24 -7q-13 0 -22 7t-9 18v554q0 38 14.5 71.5t38.5 58.5t56.5 39.5t68.5 14.5h25q13 0 20.5 -9t7.5 -21q0 -11 -7.5 -20t-20.5 -9h-17q-26 0 -48 -10t-38 -26.5t-25.5 -38t-9.5 -45.5
v-111z" />
    <glyph glyph-name="g" unicode="g" horiz-adv-x="452" 
d="M221 111q-41 0 -77 17q-11 -6 -21 -14.5t-10 -24.5q0 -23 23 -32t57.5 -14t75 -9t75 -16.5t57.5 -37.5t23 -70q0 -35 -14.5 -61.5t-40.5 -44.5t-62 -27t-79 -9q-44 0 -81 9t-64 26.5t-42.5 42t-15.5 55.5q0 22 7 39t19 30.5t27.5 23.5t31.5 16q-24 8 -39.5 23.5
t-15.5 45.5q0 28 13.5 44t36.5 28q-26 22 -40.5 54.5t-14.5 71.5v38q0 36 12 66t34.5 52t54.5 34t71 12q35 0 65 -11t52 -31q15 30 34.5 46.5t36.5 16.5q15 0 22.5 -8.5t7.5 -17.5t-5 -14.5t-12 -7.5q-12 -2 -27 -11t-29 -32q14 -19 21 -43.5t7 -50.5v-38q0 -36 -13 -66
t-36 -52.5t-55 -35t-70 -12.5zM331 315q0 49 -28.5 82t-80.5 33t-80.5 -33t-28.5 -82v-37q0 -51 29 -84.5t81 -33.5q51 0 79.5 33t28.5 84v38zM361 -92q0 31 -20 47.5t-48.5 24.5t-60 10.5t-55.5 5.5q-35 -11 -62 -32t-27 -57q0 -41 37 -66t102 -25q63 0 98.5 25t35.5 67z
" />
    <glyph glyph-name="h" unicode="h" 
d="M128 26q0 -10 -9.5 -18t-23.5 -8t-23 8t-9 18v713q0 11 9 17.5t23 6.5t23.5 -6.5t9.5 -17.5v-336q16 29 49 52.5t83 23.5q36 0 68 -14.5t56.5 -40t38.5 -59.5t14 -73v-266q0 -13 -10 -19.5t-23 -6.5q-11 0 -21.5 6.5t-10.5 19.5v266q0 24 -10 47t-26.5 40.5t-39.5 28.5
t-48 11q-22 0 -43.5 -8.5t-38.5 -25t-27.5 -40t-10.5 -53.5v-266z" />
    <glyph glyph-name="i" unicode="i" horiz-adv-x="191" 
d="M95 473q14 0 23.5 -6.5t9.5 -17.5v-423q0 -10 -9.5 -18t-23.5 -8t-23 8t-9 18v423q0 11 9 17.5t23 6.5zM95 696q18 0 30.5 -12t12.5 -29t-12.5 -29.5t-30.5 -12.5q-19 0 -32 12.5t-13 29.5t13 29t32 12z" />
    <glyph glyph-name="j" unicode="j" horiz-adv-x="191" 
d="M95 696q18 0 30.5 -12t12.5 -29t-12.5 -29.5t-30.5 -12.5q-19 0 -32 12.5t-13 29.5t13 29t32 12zM95 473q14 0 23.5 -6.5t9.5 -17.5v-492q0 -42 -7.5 -76.5t-23 -59.5t-40.5 -39t-61 -14q-18 0 -25.5 9t-7.5 20q0 14 8 22t20 8q24 0 38 10t21.5 27t10 41t2.5 52v492
q0 11 9 17.5t23 6.5z" />
    <glyph glyph-name="k" unicode="k" horiz-adv-x="456" 
d="M266 297l173 -253q4 -8 4 -14q0 -11 -11 -22t-24 -11t-20 12l-168 247l-92 -81v-149q0 -10 -9.5 -18t-23.5 -8t-23 8t-9 18v713q0 11 9 17.5t23 6.5t23.5 -6.5t9.5 -17.5v-487l244 217q4 2 7.5 4t7.5 2q12 0 22.5 -9t10.5 -22q0 -5 -1 -9.5t-6 -8.5z" />
    <glyph glyph-name="l" unicode="l" horiz-adv-x="207" 
d="M103 763q14 0 23.5 -6.5t9.5 -17.5v-713q0 -10 -9.5 -18t-23.5 -8t-23 8t-9 18v713q0 11 9 17.5t23 6.5z" />
    <glyph glyph-name="m" unicode="m" horiz-adv-x="780" 
d="M360 295q0 27 -9 49.5t-24.5 39t-36.5 26t-44 9.5q-22 0 -43 -8.5t-37.5 -24.5t-27 -40t-10.5 -54v-266q0 -10 -9.5 -18t-23.5 -8t-23 8t-9 18v423q0 11 9 17.5t23 6.5q13 0 22 -6.5t9 -17.5v-46q17 29 50 52.5t83 23.5t87 -27.5t55 -72.5q26 51 67 75.5t85 24.5
q32 0 62.5 -12.5t54 -36.5t37.5 -58.5t14 -79.5v-266q0 -10 -9.5 -18t-23.5 -8q-13 0 -22.5 8t-9.5 18v266q0 31 -10 55t-26.5 40t-36.5 24t-41 8q-22 0 -43 -8.5t-37.5 -24.5t-26.5 -39t-10 -51v-271q0 -14 -10.5 -19.5t-22.5 -5.5q-11 0 -21.5 5.5t-10.5 19.5v270z" />
    <glyph glyph-name="n" unicode="n" 
d="M128 26q0 -10 -9.5 -18t-23.5 -8t-23 8t-9 18v423q0 11 9 17.5t23 6.5q12 0 21 -6.5t9 -17.5v-46q16 29 49.5 52.5t84.5 23.5q36 0 68.5 -14.5t56.5 -40t38.5 -59.5t14.5 -73v-266q0 -13 -10.5 -19.5t-22.5 -6.5q-11 0 -21.5 6.5t-10.5 19.5v266q0 24 -10 47t-27 40.5
t-39.5 28.5t-48.5 11q-22 0 -43.5 -8.5t-38 -25t-27 -40t-10.5 -53.5v-266z" />
    <glyph glyph-name="o" unicode="o" horiz-adv-x="468" 
d="M233 479q38 0 72.5 -14.5t61 -40t42 -59.5t15.5 -73v-109q0 -37 -15.5 -71.5t-42 -60.5t-61 -42t-72.5 -16t-72 15.5t-60 42t-41.5 60.5t-15.5 72v109q0 37 15 71t40.5 60t60 41t73.5 15zM359 292q0 24 -10 47t-27 40.5t-40 28.5t-49 11t-49 -11t-39.5 -28.5t-26 -40.5
t-9.5 -47v-109q0 -25 9.5 -48.5t26.5 -41.5t39.5 -29t48.5 -11t49 11t40 29t27 41.5t10 48.5v109z" />
    <glyph glyph-name="p" unicode="p" horiz-adv-x="484" 
d="M95 473q13 0 22 -6.5t9 -17.5v-46q17 29 50.5 52.5t83.5 23.5q37 0 70 -14.5t57.5 -40t38.5 -59.5t14 -73v-109q0 -37 -14.5 -71.5t-39 -60.5t-56.5 -42t-67 -16q-46 0 -82 23t-53 54v-277q0 -9 -9.5 -17t-23.5 -8t-23 8t-9 17v656q0 11 9 17.5t23 6.5zM375 292
q0 24 -10 47t-27 40.5t-40 28.5t-49 11q-23 0 -44.5 -8.5t-38.5 -25t-27.5 -40t-10.5 -53.5v-140q0 -11 9 -28t25.5 -33t39 -27t49.5 -11q25 0 47.5 11t39.5 29t27 41.5t10 48.5v109z" />
    <glyph glyph-name="q" unicode="q" horiz-adv-x="484" 
d="M390 473q14 0 22.5 -6.5t8.5 -17.5v-656q0 -9 -8.5 -17t-22.5 -8t-24 8t-10 17v277q-16 -31 -52.5 -54t-81.5 -23q-36 0 -68 16t-56 42t-38.5 60.5t-14.5 71.5v109q0 39 14 73t38.5 59.5t57.5 40t70 14.5q50 0 83.5 -23.5t50.5 -52.5v46q0 11 8.5 17.5t22.5 6.5zM110 183
q0 -25 10 -48.5t27 -41.5t39.5 -29t47.5 -11q26 0 48.5 11t39 27t25.5 33t9 28v140q0 30 -10.5 53.5t-27.5 40t-39 25t-44 8.5q-26 0 -48.5 -11t-39.5 -28.5t-27 -40.5t-10 -47v-109z" />
    <glyph glyph-name="r" unicode="r" horiz-adv-x="331" 
d="M260 419q-25 0 -48.5 -10t-42 -29t-30 -46t-11.5 -61v-247q0 -10 -9.5 -18t-23.5 -8t-23 8t-9 18v423q0 11 9 17.5t23 6.5q13 0 22 -6.5t9 -17.5v-49q17 30 51 54.5t83 24.5h35q11 0 18.5 -9t7.5 -21t-7.5 -21t-18.5 -9h-35z" />
    <glyph glyph-name="s" unicode="s" horiz-adv-x="385" 
d="M188 48q57 0 80 21t23 50q0 33 -18.5 51t-45.5 29t-59.5 19.5t-59.5 22.5t-45.5 37t-18.5 65q0 24 8.5 48t27.5 43.5t49 32t73 12.5q25 0 49 -4.5t43 -11t30.5 -15.5t11.5 -18q0 -8 -7.5 -21t-19.5 -13q-6 0 -15 4.5t-22 9.5t-30 9.5t-39 4.5q-28 0 -47 -7.5t-31 -19
t-17 -25.5t-5 -26q0 -29 18.5 -44t46 -24.5t59.5 -18t59.5 -24t46 -42t18.5 -71.5q0 -60 -42 -94.5t-119 -34.5q-35 0 -64 7t-49.5 17.5t-32 23.5t-11.5 24q0 10 6.5 20t16.5 10q8 0 17 -7.5t23.5 -16t36 -16t55.5 -7.5z" />
    <glyph glyph-name="t" unicode="t" horiz-adv-x="297" 
d="M126 147q0 -49 20.5 -68.5t72.5 -19.5h28q14 0 22 -9t8 -20q0 -12 -8 -21t-22 -9h-28q-78 0 -118 34.5t-40 112.5v527q0 11 10.5 17.5t21.5 6.5q12 0 22.5 -6.5t10.5 -17.5v-201h129q10 0 16.5 -8t6.5 -19t-6.5 -19t-16.5 -8h-129v-272z" />
    <glyph glyph-name="u" unicode="u" 
d="M248 -7q-39 0 -74 15.5t-60.5 41.5t-40.5 60t-15 71v267q0 9 9.5 17t23.5 8q13 0 22.5 -8t9.5 -17v-267q0 -24 9.5 -47t26.5 -41t40 -29t49 -11t48.5 10.5t39.5 28.5t27 41t10 48v268q0 10 9.5 17t23.5 7t23 -7t9 -17v-268q0 -38 -15 -72t-41 -59.5t-60.5 -41
t-73.5 -15.5z" />
    <glyph glyph-name="v" unicode="v" horiz-adv-x="420" 
d="M19 430q-2 2 -3 7t-1 8q0 13 13 21.5t26 8.5q8 0 14.5 -3.5t9.5 -11.5l132 -360l132 356q3 8 7.5 13.5t15.5 5.5t25.5 -8.5t14.5 -20.5q0 -8 -4 -16l-161 -422q-3 -8 -11 -12t-19 -4t-19 4t-11 12z" />
    <glyph glyph-name="w" unicode="w" horiz-adv-x="667" 
d="M491 8q-3 -9 -10.5 -12.5t-15.5 -3.5q-20 0 -27 15l-104 325l-103 -320q-6 -20 -29 -20q-10 0 -16.5 4t-10.5 16l-156 419q-4 8 -4 15q0 12 12.5 20.5t26.5 8.5q8 0 14.5 -3.5t8.5 -11.5l128 -356l103 325q5 17 26 17q9 0 16 -3.5t10 -13.5l99 -329l131 360q2 7 8 11
t14 4q13 0 26 -7.5t13 -21.5q0 -9 -4 -15z" />
    <glyph glyph-name="x" unicode="x" horiz-adv-x="410" 
d="M25 25q0 6 4 14l133 200l-130 194q-2 3 -3.5 6t-1.5 7q0 12 13.5 22.5t26.5 10.5q5 0 10.5 -2t9.5 -8l118 -183l119 183q3 5 8.5 7.5t10.5 2.5q12 0 26 -10t14 -23q0 -5 -5 -13l-131 -194l134 -200q4 -6 4 -14q0 -11 -12.5 -21.5t-26.5 -10.5q-13 0 -19 10l-122 187
l-121 -187q-7 -10 -21 -10q-11 0 -24.5 10t-13.5 22z" />
    <glyph glyph-name="y" unicode="y" horiz-adv-x="420" 
d="M17 439q-3 4 -3 9q0 13 13.5 22t26.5 9q8 0 14.5 -3t8.5 -11l137 -368l129 368q6 14 22 14q12 0 26 -9t14 -23v-4t-2 -4l-155 -420q-15 -41 -32.5 -85t-41.5 -81t-55.5 -61t-73.5 -24q-13 0 -21.5 6t-8.5 23q0 11 4.5 20.5t15.5 9.5q24 0 46 15.5t41 42t34 61.5t24 74z
" />
    <glyph glyph-name="z" unicode="z" horiz-adv-x="401" 
d="M354 58q10 0 17 -8.5t7 -21.5q0 -11 -6.5 -19.5t-17.5 -8.5h-303q-13 0 -20 8t-7 18q0 6 3 13t7 12l245 365h-221q-10 0 -17 8.5t-7 19.5q0 12 6.5 20.5t17.5 8.5h283q10 0 17.5 -7t7.5 -19q0 -13 -8 -24l-246 -365h242z" />
    <glyph glyph-name="braceleft" unicode="{" horiz-adv-x="310" 
d="M30 385q0 15 9.5 20t20.5 7t20.5 5.5t9.5 16.5q0 7 -3 30t-6.5 50.5t-6.5 52.5t-3 37q0 33 15 62.5t40.5 52t59 36t71.5 13.5q18 0 26 -9.5t8 -20.5t-6.5 -20t-17.5 -9q-26 0 -49.5 -9t-41.5 -24.5t-28.5 -36t-10.5 -43.5q0 -11 3 -35.5t6.5 -51.5t6.5 -50t3 -30
q0 -18 -13.5 -30.5t-22.5 -14.5q10 -2 23 -13.5t13 -30.5q0 -9 -3 -37t-6.5 -61t-6.5 -63t-3 -43q0 -29 14.5 -47.5t34.5 -29.5t42.5 -15.5t38.5 -4.5q14 0 19 -10t5 -19q0 -15 -9.5 -22.5t-25.5 -7.5q-38 0 -71.5 11t-58.5 31.5t-40 48.5t-15 62q0 8 1.5 25t3.5 38
t4.5 43.5t4.5 42.5t3.5 34.5t1.5 19.5q0 13 -9.5 16t-20.5 5t-20.5 7t-9.5 21z" />
    <glyph glyph-name="bar" unicode="|" horiz-adv-x="202" 
d="M101 768q13 0 23 -7t10 -17v-740q0 -10 -10 -17.5t-23 -7.5q-14 0 -23.5 7.5t-9.5 17.5v740q0 10 9.5 17t23.5 7z" />
    <glyph glyph-name="braceright" unicode="}" horiz-adv-x="310" 
d="M280 385q0 -16 -9.5 -21t-20.5 -7t-20.5 -5t-9.5 -16q0 -5 1.5 -19.5t3.5 -34.5t4.5 -42.5t4.5 -43.5t3.5 -38t1.5 -25q0 -34 -15 -62t-40 -48.5t-59 -31.5t-71 -11q-16 0 -25.5 7.5t-9.5 22.5q0 9 5 19t19 10q16 0 38.5 4.5t42.5 15.5t34.5 29.5t14.5 47.5q0 13 -3 43
t-6.5 63t-6.5 61t-3 37q0 19 13 30.5t23 13.5q-9 2 -22.5 14.5t-13.5 30.5q0 7 3 30t6.5 50t6.5 51.5t3 35.5q0 23 -10.5 43.5t-28.5 36t-41.5 24.5t-49.5 9q-11 0 -17.5 9t-6.5 20t8 20.5t26 9.5q37 0 71 -13.5t59.5 -36t40.5 -52t15 -62.5q0 -12 -3 -37t-6.5 -52.5
t-6.5 -50.5t-3 -30q0 -13 9.5 -16.5t20.5 -5.5t20.5 -7t9.5 -20z" />
    <glyph glyph-name="asciitilde" unicode="~" horiz-adv-x="401" 
d="M139 250q-16 0 -27.5 -5t-19.5 -11t-14.5 -11t-12.5 -5q-10 0 -14.5 8.5t-4.5 16.5q0 14 9 24.5t22.5 18t29 11t27.5 3.5q19 0 35 -5.5t31 -11.5t30.5 -11.5t35.5 -5.5q17 0 27.5 4.5t17.5 10t12.5 10t12.5 4.5q10 0 15 -8t5 -15q0 -15 -9 -26t-22 -18t-27.5 -10
t-25.5 -3q-20 0 -36 5.5t-30.5 12t-30.5 12t-36 5.5z" />
    <glyph glyph-name="uni00A0" unicode="&#xa0;" horiz-adv-x="200" 
 />
    <glyph glyph-name="exclamdown" unicode="&#xa1;" horiz-adv-x="204" 
d="M64 33q0 124 6 258.5t6 258.5q0 12 8.5 17.5t16.5 5.5q10 0 18.5 -5.5t8.5 -17.5q0 -124 6 -258.5t6 -258.5q0 -19 -11 -29t-28 -10q-16 0 -26.5 10t-10.5 29zM102 651q-20 0 -33 13.5t-13 33.5q0 18 13 32t33 14q19 0 32 -14t13 -32q0 -20 -13 -33.5t-32 -13.5z" />
    <glyph glyph-name="cent" unicode="&#xa2;" horiz-adv-x="413" 
d="M214 694q10 0 17.5 -6.5t7.5 -15.5v-107q28 -1 52.5 -6.5t42.5 -14t28.5 -19.5t10.5 -23q0 -11 -8.5 -21t-20.5 -10q-6 0 -13.5 5.5t-19 12t-28.5 12t-44 6.5v-279q27 1 44 6.5t28.5 12.5t18.5 12.5t14 5.5q13 0 22 -10t9 -21q0 -12 -11.5 -23.5t-30.5 -20.5t-43.5 -14.5
t-50.5 -6.5v-106q0 -9 -7.5 -16t-17.5 -7t-17 7t-7 16v108q-79 11 -117 62.5t-38 124.5v19q0 36 9 67.5t28 56t48.5 41t69.5 22.5v108q0 9 7 15.5t17 6.5zM95 358q0 -52 23 -85t72 -43v275q-49 -11 -72 -44t-23 -84v-19z" />
    <glyph glyph-name="sterling" unicode="&#xa3;" horiz-adv-x="487" 
d="M425 61q11 0 17 -9.5t6 -20.5q0 -12 -6 -21.5t-17 -9.5h-376q-13 0 -19 9.5t-6 21.5q0 11 6 20.5t19 9.5h59l43 306h-76q-11 0 -17 7.5t-6 18.5t6 19.5t17 8.5h84l22 158q6 40 26 74.5t49.5 60t67 40t77.5 14.5h19q14 0 21 -9.5t7 -20.5t-7 -20.5t-21 -9.5h-24
q-29 0 -55 -10.5t-46 -28.5t-33 -41.5t-16 -48.5l-22 -158h149q11 0 16 -8.5t5 -19.5q0 -10 -5 -18t-16 -8h-157l-44 -306h253z" />
    <glyph glyph-name="currency" unicode="&#xa4;" horiz-adv-x="478" 
d="M240 652q31 0 59 -10.5t51 -29.5l27 27q5 5 13 5t14.5 -6.5t6.5 -14.5q0 -7 -6 -13l-27 -27q19 -23 29.5 -51t10.5 -60q0 -31 -11 -59.5t-30 -51.5l28 -28q6 -6 6 -12q0 -8 -6.5 -14.5t-14.5 -6.5t-12 5l-28 27q-23 -20 -51 -31t-59 -11q-32 0 -61 12t-53 33l-31 -30
q-5 -5 -12 -5q-8 0 -14.5 6.5t-6.5 14.5q0 7 5 12l32 32q-36 47 -36 107t36 107l-26 26q-6 4 -6 13q0 8 7 14.5t15 6.5q7 0 12 -5l25 -25q23 20 52.5 31.5t61.5 11.5zM370 472q0 25 -10 48.5t-28 42t-41.5 29.5t-50.5 11t-50.5 -11t-40.5 -29.5t-27 -42t-10 -48.5
q0 -26 10 -49.5t27.5 -42.5t40.5 -30t50 -11t50.5 11t41 30t28 42.5t10.5 49.5z" />
    <glyph glyph-name="yen" unicode="&#xa5;" horiz-adv-x="505" 
d="M79 336q0 11 6.5 19t17.5 8h98l-174 331q-3 4 -3 10q0 11 11.5 20t25.5 9q15 0 24 -17l165 -322l172 322q9 17 23 17q13 0 24.5 -9t11.5 -20q0 -4 -2 -10l-182 -331h104q10 0 17.5 -8t7.5 -19t-7.5 -18.5t-17.5 -7.5h-119v-73h119q10 0 17.5 -8t7.5 -19q0 -12 -7.5 -19
t-17.5 -7h-119v-159q0 -11 -9.5 -18t-22.5 -7q-14 0 -23.5 7t-9.5 18v159h-114q-11 0 -17.5 7t-6.5 18q0 12 6.5 20t17.5 8h114v73h-114q-11 0 -17.5 7.5t-6.5 18.5z" />
    <glyph glyph-name="brokenbar" unicode="&#xa6;" horiz-adv-x="203" 
d="M101 768q14 0 23.5 -7t9.5 -17v-272q0 -10 -9.5 -17.5t-23.5 -7.5t-23 7.5t-9 17.5v272q0 10 9 17t23 7zM101 300q14 0 23.5 -7t9.5 -17v-272q0 -10 -9.5 -17.5t-23.5 -7.5t-23 7.5t-9 17.5v272q0 10 9 17t23 7z" />
    <glyph glyph-name="section" unicode="&#xa7;" horiz-adv-x="467" 
d="M62 540q0 58 17 95t42.5 58.5t56 29.5t58.5 8q40 0 70 -12.5t50.5 -34t30.5 -51t10 -63.5q0 -18 -8.5 -24.5t-20.5 -6.5q-30 0 -30 31q0 14 -4 32t-15 33.5t-30.5 26.5t-50.5 11q-21 0 -41 -6.5t-36 -21t-26 -38.5t-10 -59q0 -41 21.5 -63.5t53.5 -37t70 -26.5t70 -32
t53.5 -53.5t21.5 -90.5v-122q0 -52 -15 -88t-40.5 -58.5t-58.5 -33t-69 -10.5q-43 0 -77 13.5t-57.5 36.5t-36 53t-12.5 63q0 17 8.5 23.5t21.5 6.5q17 0 23.5 -7t6.5 -17q0 -15 4.5 -34.5t17.5 -37t36 -29.5t59 -12q60 0 91.5 31.5t31.5 88.5q0 41 -21.5 64t-53 37.5
t-69 26t-69 31.5t-53 53.5t-21.5 91.5v124zM357 249q0 35 -12.5 57.5t-33 37t-46.5 24t-52 18.5t-50.5 20.5t-41.5 30.5v-28q0 -35 13 -58t33.5 -37.5t46 -24t52 -18.5t50.5 -20.5t41 -30.5v29z" />
    <glyph glyph-name="dieresis" unicode="&#xa8;" horiz-adv-x="196" 
d="M37 666q15 0 25.5 -10t10.5 -26q0 -15 -10.5 -26t-25.5 -11q-16 0 -26.5 11t-10.5 26q0 16 10.5 26t26.5 10zM160 666q16 0 26 -10t10 -26q0 -15 -10 -26t-26 -11t-26.5 11t-10.5 26q0 16 10.5 26t26.5 10z" />
    <glyph glyph-name="copyright" unicode="&#xa9;" horiz-adv-x="718" 
d="M52 358q0 84 29 145.5t74 102t100 60t107 19.5q53 0 107 -20t98 -60t71.5 -101t27.5 -142q0 -84 -29 -145.5t-74 -102t-100 -60t-107 -19.5q-53 0 -107 20t-98 60t-71.5 101t-27.5 142zM622 362q0 61 -18.5 112t-52.5 88t-82 58t-107 21q-58 0 -107 -20.5t-84 -58
t-55 -89.5t-20 -115q0 -61 18.5 -112t52.5 -88t82 -58t107 -21q58 0 107 20.5t84 58t55 89.5t20 115zM419 460q0 8 -2 18.5t-8 20.5t-17 16.5t-30 6.5q-59 0 -59 -76v-158q0 -76 59 -76q19 0 29.5 6.5t16.5 16t8 21t3 20.5q1 17 23 17q13 0 18.5 -5.5t5.5 -20.5
q0 -42 -29 -70t-78 -28q-21 0 -40 6.5t-33 20.5t-22.5 36.5t-8.5 55.5v158q0 65 31 92t74 27q49 0 77.5 -27t28.5 -68q0 -17 -5.5 -22t-17.5 -5q-24 0 -24 17z" />
    <glyph glyph-name="ordfeminine" unicode="&#xaa;" horiz-adv-x="314" 
d="M144 740q33 0 56 -10t37.5 -27.5t21 -39.5t6.5 -46v-162q0 -8 -7.5 -13.5t-18.5 -5.5q-10 0 -17 5.5t-7 13.5v25q-17 -20 -40.5 -34t-56.5 -14q-35 0 -59.5 19.5t-24.5 63.5q0 26 10.5 43.5t30 27.5t47 14t60.5 4h31v13q0 14 -4 28t-12 25.5t-21.5 18.5t-32.5 7
q-17 0 -28 -3t-19 -6.5t-13 -6.5t-9 -3q-10 0 -15 9t-5 18q0 7 8.5 13.5t21.5 11.5t29 8t31 3zM213 571h-28q-20 0 -37.5 -2t-31.5 -7t-22 -15.5t-8 -26.5q0 -25 14.5 -36t34.5 -11q14 0 28 6t25 15.5t18 21t7 22.5v33z" />
    <glyph glyph-name="guillemotleft" unicode="&#xab;" horiz-adv-x="407" 
d="M191 117q3 -6 3 -11q0 -11 -11.5 -21.5t-26.5 -10.5t-22 12l-89 164q-5 9 -7.5 14.5t-2.5 12.5t2.5 13.5t7.5 14.5l89 164q6 12 23 12q15 0 26 -10.5t11 -21.5q0 -5 -3 -11l-87 -161zM363 117q3 -6 3 -11q0 -11 -11.5 -21.5t-26.5 -10.5t-22 12l-89 164q-5 9 -7.5 14.5
t-2.5 12.5t2.5 12.5t7.5 15.5l89 164q6 12 23 12q15 0 26 -10.5t11 -21.5q0 -5 -3 -11l-87 -161z" />
    <glyph glyph-name="logicalnot" unicode="&#xac;" horiz-adv-x="485" 
d="M51 240q0 13 7 21.5t18 8.5h318q9 0 17 -8.5t8 -21.5v-152q0 -11 -9 -18t-23 -7t-23.5 7t-9.5 18v124h-278q-25 0 -25 28z" />
    <glyph glyph-name="uni00AD" unicode="&#xad;" horiz-adv-x="473" 
d="M52 240q0 13 7 21.5t18 8.5h320q10 0 17.5 -8.5t7.5 -21.5t-7.5 -20.5t-17.5 -7.5h-320q-25 0 -25 28z" />
    <glyph glyph-name="registered" unicode="&#xae;" horiz-adv-x="718" 
d="M52 358q0 84 29 145.5t74 102t100 60t107 19.5q53 0 107 -20t98 -60t71.5 -101t27.5 -142q0 -84 -29 -145.5t-74 -102t-100 -60t-107 -19.5q-53 0 -107 20t-98 60t-71.5 101t-27.5 142zM264 543q0 15 16 17h89q21 0 40.5 -5.5t34 -18t23 -33t8.5 -50.5q0 -48 -19.5 -72
t-48.5 -32l66 -146q2 -6 2 -7q0 -10 -8.5 -17.5t-17.5 -7.5q-7 0 -11 5.5t-8 13.5l-70 153h-50v-154q0 -8 -6.5 -12.5t-15.5 -4.5t-16.5 4.5t-7.5 12.5v354zM310 518v-136h59q27 0 43.5 15.5t16.5 51.5q0 38 -16.5 53.5t-43.5 15.5h-59zM622 362q0 61 -18.5 112t-52.5 88
t-82 58t-107 21q-58 0 -107 -20.5t-84 -58t-55 -89.5t-20 -115q0 -61 18.5 -112t52.5 -88t82 -58t107 -21q58 0 107 20.5t84 58t55 89.5t20 115z" />
    <glyph glyph-name="macron" unicode="&#xaf;" horiz-adv-x="265" 
d="M0 660q0 11 7 18.5t18 7.5h215q9 0 17 -7.5t8 -18.5t-8 -18t-17 -7h-215q-11 0 -18 7t-7 18z" />
    <glyph glyph-name="degree" unicode="&#xb0;" horiz-adv-x="419" 
d="M209 768q36 0 68 -14t56.5 -38.5t39 -57.5t14.5 -70q0 -36 -14.5 -68.5t-39 -58t-56.5 -40.5t-68 -15t-68 15t-56 40t-38.5 58t-14.5 69t14 68.5t38 57.5t56.5 39.5t68.5 14.5zM339 588q0 25 -10 48.5t-28 42t-41.5 29.5t-50.5 11t-50.5 -11t-40.5 -29.5t-27 -42
t-10 -48.5q0 -26 10 -49.5t27.5 -42.5t40.5 -30t50 -11t50.5 11t41 30t28 42.5t10.5 49.5z" />
    <glyph glyph-name="plusminus" unicode="&#xb1;" horiz-adv-x="471" 
d="M236 171q-12 0 -20.5 6.5t-8.5 17.5v129h-132q-11 0 -17.5 8t-6.5 21q0 12 6.5 20.5t17.5 8.5h132v128q0 10 8.5 18t20.5 8q13 0 21 -8t8 -18v-128h130q10 0 18 -8.5t8 -20.5q0 -13 -8 -21t-18 -8h-130v-129q0 -11 -8 -17.5t-21 -6.5zM51 85q0 13 6.5 21.5t17.5 8.5h320
q10 0 18 -8.5t8 -21.5t-8 -20.5t-18 -7.5h-320q-11 0 -17.5 7.5t-6.5 20.5z" />
    <glyph glyph-name="twosuperior" unicode="&#xb2;" horiz-adv-x="307" 
d="M41 640q0 42 33 66.5t80 24.5q25 0 46.5 -7.5t37.5 -21t25 -32.5t9 -41q0 -28 -14 -49.5t-34.5 -39.5t-45 -32.5t-45 -28.5t-34.5 -27.5t-14 -28.5v-24h173q8 0 13 -6.5t5 -15.5q0 -8 -5 -15.5t-13 -7.5h-202q-8 0 -15.5 5t-7.5 13v49q0 21 14 39t35 34t45.5 31t45.5 31
t35 33.5t14 37.5q0 21 -16.5 39.5t-52.5 18.5q-26 0 -44 -13t-18 -41q0 -7 -7 -12.5t-19 -5.5q-11 0 -17.5 5.5t-6.5 21.5z" />
    <glyph glyph-name="threesuperior" unicode="&#xb3;" horiz-adv-x="313" 
d="M152 396q38 0 56.5 16t18.5 51v9q0 32 -20.5 45.5t-54.5 13.5q-10 0 -14 6t-4 14t4 14.5t14 6.5q29 0 46.5 11.5t17.5 46.5q0 30 -15 43.5t-47 13.5q-39 0 -52 -14.5t-13 -30.5q0 -10 -5 -15.5t-19 -5.5q-17 0 -21.5 5t-4.5 19q0 12 5 27t18 28t35.5 22t57.5 9
q48 0 79 -20.5t31 -70.5q0 -33 -13 -55.5t-33 -31.5q26 -9 42 -28.5t16 -52.5v-9q0 -30 -10 -51.5t-27 -35t-39.5 -19.5t-48.5 -6q-32 0 -55 8.5t-38 21.5t-22.5 29t-7.5 31q0 13 5.5 17t18.5 4q15 0 20.5 -4.5t5.5 -13.5q0 -17 16.5 -32.5t56.5 -15.5z" />
    <glyph glyph-name="acute" unicode="&#xb4;" horiz-adv-x="155" 
d="M36 594q-5 -3 -10 -3q-11 0 -18.5 8.5t-7.5 19.5q0 12 11 18l112 61q3 3 8 3q11 0 17.5 -9t6.5 -19q0 -16 -12 -22z" />
    <glyph glyph-name="mu" unicode="&#xb5;" horiz-adv-x="491" 
d="M261 -7q-45 0 -79 19.5t-51 44.5v-264q0 -11 -8.5 -18t-19.5 -7q-14 0 -23 7t-9 18v655q0 9 9 17t23 8t23.5 -8t9.5 -17v-285q0 -16 10.5 -35.5t28 -36t40.5 -27.5t47 -11t45.5 11t38 29t26 41t9.5 47v267q0 11 10 18t23 7q14 0 23 -7t9 -18v-267q0 -39 -14.5 -73
t-39 -59.5t-58.5 -40.5t-73 -15z" />
    <glyph glyph-name="paragraph" unicode="&#xb6;" horiz-adv-x="524" 
d="M423 731q10 0 17.5 -6t7.5 -19v-681q0 -14 -7.5 -19.5t-17.5 -5.5t-18 5.5t-8 19.5v663h-77v-662q0 -13 -8 -19.5t-18 -6.5q-9 0 -17 6.5t-8 19.5v280h-41q-41 0 -77 11t-62.5 36t-41.5 64.5t-15 95.5v12q0 56 15 95.5t41.5 64t62.5 35.5t77 11h195z" />
    <glyph glyph-name="periodcentered" unicode="&#xb7;" horiz-adv-x="184" 
d="M92 345q20 0 33.5 -13t13.5 -32q0 -18 -13.5 -31.5t-33.5 -13.5t-33.5 13.5t-13.5 31.5q0 19 13.5 32t33.5 13z" />
    <glyph glyph-name="cedilla" unicode="&#xb8;" horiz-adv-x="167" 
d="M71 -61q51 -2 73.5 -23.5t22.5 -48.5q0 -14 -5.5 -27.5t-16.5 -24.5t-27.5 -18t-39.5 -7q-10 0 -23.5 1.5t-25.5 4.5t-20.5 8t-8.5 12q0 5 4 14.5t12 9.5q6 0 18.5 -7t37.5 -7q29 0 41 11.5t12 27.5q0 20 -17 30t-46 12l-38 3l26 99h40z" />
    <glyph glyph-name="onesuperior" unicode="&#xb9;" horiz-adv-x="169" 
d="M69 662l-21 -25q-5 -5 -12 -5q-8 0 -13 6t-5 14q0 5 3 11t7 8l55 55q6 6 14 6t15 -5t7 -13v-342q0 -9 -7.5 -13.5t-16.5 -4.5q-11 0 -18.5 4.5t-7.5 13.5v290z" />
    <glyph glyph-name="ordmasculine" unicode="&#xba;" horiz-adv-x="328" 
d="M164 740q25 0 47.5 -9.5t40 -26t27.5 -38.5t10 -47v-65q0 -24 -10 -46.5t-27.5 -39.5t-40 -27t-47.5 -10t-47.5 10t-40 27t-27.5 39.5t-10 46.5v65q0 24 10 46t27 38.5t39.5 26.5t48.5 10zM237 619q0 28 -21 51t-52 23t-52 -23t-21 -51v-65q0 -15 5.5 -28.5t15.5 -24
t23.5 -17t28.5 -6.5t28.5 6.5t23 17t15.5 24t6 28.5v65z" />
    <glyph glyph-name="guillemotright" unicode="&#xbb;" horiz-adv-x="408" 
d="M303 277l-87 161q-3 6 -3 11q0 11 11 21.5t26 10.5q17 0 23 -12l89 -164q5 -9 8 -15t3 -13t-3 -13t-8 -14l-89 -164q-5 -12 -22 -12q-14 0 -26 10.5t-12 21.5q0 5 3 11zM131 277l-87 161q-3 6 -3 11q0 11 11 21.5t26 10.5q17 0 23 -12l89 -164q5 -9 8 -15t3 -13t-3 -13
t-8 -14l-89 -164q-5 -12 -22 -12q-14 0 -26 10.5t-12 21.5q0 5 3 11z" />
    <glyph glyph-name="onequarter" unicode="&#xbc;" horiz-adv-x="604" 
d="M81 662l-21 -25q-5 -5 -12 -5q-8 0 -13 6t-5 14q0 5 3 11t7 8l55 55q6 6 14 6t15 -5t7 -13v-342q0 -9 -7.5 -13.5t-16.5 -4.5q-11 0 -18.5 4.5t-7.5 13.5v290zM474 769q10 0 19 -7.5t9 -19.5q0 -7 -3 -13l-379 -741q-8 -15 -24 -15q-11 0 -18.5 7.5t-7.5 17.5q0 6 3 12
l381 747q3 7 8.5 9.5t11.5 2.5zM482 86h-143q-8 0 -13 5t-5 14q0 4 3 10l140 247q9 15 23 15q8 0 16.5 -5.5t8.5 -14.5q0 -4 -2 -8l-124 -216h96v77q0 8 7.5 12t17.5 4t17.5 -4t7.5 -12v-77h30q8 0 13 -7.5t5 -16.5t-5.5 -16t-12.5 -7h-30v-69q0 -8 -7.5 -12.5t-17.5 -4.5
t-17.5 4.5t-7.5 12.5v69z" />
    <glyph glyph-name="onehalf" unicode="&#xbd;" horiz-adv-x="619" 
d="M352 286q0 42 33 66.5t80 24.5q25 0 46.5 -7.5t37.5 -21t25 -32.5t9 -41q0 -28 -14 -49.5t-34.5 -39.5t-45 -33t-45 -28.5t-34.5 -27t-14 -28.5v-24h173q8 0 13 -6.5t5 -15.5t-5 -16t-13 -7h-202q-8 0 -15.5 4.5t-7.5 12.5v50q0 21 14 39t35 34t45.5 31t45.5 31t35 33.5
t14 37.5t-16.5 38.5t-52.5 18.5q-26 0 -44 -12.5t-18 -40.5q0 -7 -7 -13t-19 -6q-11 0 -17.5 6t-6.5 22zM82 662l-21 -25q-5 -5 -12 -5q-8 0 -13 6t-5 14q0 5 3 11t7 8l55 55q6 6 14 6t15 -5t7 -13v-342q0 -9 -7.5 -13.5t-16.5 -4.5q-11 0 -18.5 4.5t-7.5 13.5v290zM459 769
q10 0 19 -7.5t9 -19.5q0 -7 -3 -13l-379 -741q-8 -15 -24 -15q-11 0 -18.5 7.5t-7.5 17.5q0 6 3 12l381 747q3 7 8.5 9.5t11.5 2.5z" />
    <glyph glyph-name="threequarters" unicode="&#xbe;" horiz-adv-x="734" 
d="M155 396q38 0 56.5 16t18.5 51v9q0 32 -20.5 45.5t-54.5 13.5q-10 0 -14 6t-4 14t4 14.5t14 6.5q29 0 46.5 11.5t17.5 46.5q0 30 -15 43.5t-47 13.5q-39 0 -52 -14.5t-13 -30.5q0 -10 -5 -15.5t-19 -5.5q-17 0 -21.5 5t-4.5 19q0 12 5 27t18 28t35.5 22t57.5 9
q48 0 79 -20.5t31 -70.5q0 -33 -13 -55.5t-33 -31.5q26 -9 42 -28.5t16 -52.5v-9q0 -30 -10 -51.5t-27 -35t-39.5 -19.5t-48.5 -6q-32 0 -55 8.5t-38 21.5t-22.5 29t-7.5 31q0 13 5.5 17t18.5 4q15 0 20.5 -4.5t5.5 -13.5q0 -17 16.5 -32.5t56.5 -15.5zM613 86h-143
q-8 0 -13 5t-5 14q0 4 3 10l140 247q9 15 23 15q8 0 16.5 -5.5t8.5 -14.5q0 -4 -2 -8l-124 -216h96v77q0 8 7.5 12t17.5 4t17.5 -4t7.5 -12v-77h30q8 0 13 -7.5t5 -16.5t-5.5 -16t-12.5 -7h-30v-69q0 -8 -7.5 -12.5t-17.5 -4.5t-17.5 4.5t-7.5 12.5v69zM599 769
q10 0 19 -7.5t9 -19.5q0 -7 -3 -13l-379 -741q-8 -15 -24 -15q-11 0 -18.5 7.5t-7.5 17.5q0 6 3 12l381 747q3 7 8.5 9.5t11.5 2.5z" />
    <glyph glyph-name="questiondown" unicode="&#xbf;" horiz-adv-x="397" 
d="M32 172q0 47 15.5 82t37 61.5t44 46t36.5 36.5q25 27 30 61.5t5 90.5q0 23 27 23q12 0 19.5 -6t7.5 -23q0 -42 -3.5 -70.5t-9 -48t-13.5 -32.5t-17 -23q-16 -17 -37 -35t-40 -40t-32 -50.5t-13 -67.5q0 -60 34.5 -94t100.5 -34q33 0 53 7.5t33 17t21 17t18 7.5
q8 0 16.5 -7t8.5 -20q0 -12 -11.5 -25.5t-32 -25t-48.5 -19t-61 -7.5q-47 0 -82.5 14t-59 38t-35.5 56.5t-12 69.5zM227 651q-19 0 -32.5 13.5t-13.5 33.5q0 18 13 32t33 14t33 -14t13 -32q0 -20 -13.5 -33.5t-32.5 -13.5z" />
    <glyph glyph-name="Agrave" unicode="&#xc0;" horiz-adv-x="540" 
d="M59 0q-13 0 -25.5 7.5t-12.5 20.5q0 5 1 7l209 679q4 12 15 17.5t24 5.5q14 0 25 -6t15 -17l208 -679q0 -2 0.5 -3t0.5 -3q0 -12 -13 -20.5t-27 -8.5q-19 0 -25 17l-46 154h-277l-46 -154q-2 -9 -9.5 -13t-16.5 -4zM391 228l-121 403l-122 -403h243zM201 905
q-13 6 -13 22q0 10 6.5 19t17.5 9q4 0 9 -3l111 -61q11 -6 11 -18q0 -11 -7.5 -19.5t-18.5 -8.5q-6 0 -10 3z" />
    <glyph glyph-name="Aacute" unicode="&#xc1;" horiz-adv-x="540" 
d="M59 0q-13 0 -25.5 7.5t-12.5 20.5q0 5 1 7l209 679q4 12 15 17.5t24 5.5q14 0 25 -6t15 -17l208 -679q0 -2 0.5 -3t0.5 -3q0 -12 -13 -20.5t-27 -8.5q-19 0 -25 17l-46 154h-277l-46 -154q-2 -9 -9.5 -13t-16.5 -4zM391 228l-121 403l-122 -403h243zM238 848
q-5 -3 -10 -3q-11 0 -18.5 8.5t-7.5 19.5q0 12 11 18l112 61q3 3 8 3q11 0 17.5 -9t6.5 -19q0 -16 -12 -22z" />
    <glyph glyph-name="Acircumflex" unicode="&#xc2;" horiz-adv-x="540" 
d="M59 0q-13 0 -25.5 7.5t-12.5 20.5q0 5 1 7l209 679q4 12 15 17.5t24 5.5q14 0 25 -6t15 -17l208 -679q0 -2 0.5 -3t0.5 -3q0 -12 -13 -20.5t-27 -8.5q-19 0 -25 17l-46 154h-277l-46 -154q-2 -9 -9.5 -13t-16.5 -4zM391 228l-121 403l-122 -403h243zM165 849
q-2 -1 -4.5 -2t-4.5 -1q-8 0 -14.5 7.5t-6.5 18.5q0 6 3 12t10 10l104 56q8 5 17 5t17 -5l104 -56q7 -3 10 -9.5t3 -13.5q0 -10 -6 -17t-14 -7q-2 0 -5 1t-5 2l-104 55z" />
    <glyph glyph-name="Atilde" unicode="&#xc3;" horiz-adv-x="540" 
d="M59 0q-13 0 -25.5 7.5t-12.5 20.5q0 5 1 7l209 679q4 12 15 17.5t24 5.5q14 0 25 -6t15 -17l208 -679q0 -2 0.5 -3t0.5 -3q0 -12 -13 -20.5t-27 -8.5q-19 0 -25 17l-46 154h-277l-46 -154q-2 -9 -9.5 -13t-16.5 -4zM391 228l-121 403l-122 -403h243zM208 898
q-16 0 -27.5 -5t-19.5 -11t-14.5 -11t-12.5 -5q-10 0 -14.5 8.5t-4.5 16.5q0 14 9 24.5t22.5 18t29 11t27.5 3.5q19 0 35 -5.5t31 -11.5t30.5 -11.5t35.5 -5.5q17 0 27.5 4.5t17.5 10t12.5 10t12.5 4.5q10 0 15 -8t5 -15q0 -15 -9 -26t-22 -18t-27.5 -10t-25.5 -3
q-20 0 -36 5.5t-30.5 12t-30.5 12t-36 5.5z" />
    <glyph glyph-name="Adieresis" unicode="&#xc4;" horiz-adv-x="540" 
d="M59 0q-13 0 -25.5 7.5t-12.5 20.5q0 5 1 7l209 679q4 12 15 17.5t24 5.5q14 0 25 -6t15 -17l208 -679q0 -2 0.5 -3t0.5 -3q0 -12 -13 -20.5t-27 -8.5q-19 0 -25 17l-46 154h-277l-46 -154q-2 -9 -9.5 -13t-16.5 -4zM391 228l-121 403l-122 -403h243zM209 920
q15 0 25.5 -10t10.5 -26q0 -15 -10.5 -26t-25.5 -11q-16 0 -26.5 11t-10.5 26q0 16 10.5 26t26.5 10zM332 920q16 0 26 -10t10 -26q0 -15 -10 -26t-26 -11t-26.5 11t-10.5 26q0 16 10.5 26t26.5 10z" />
    <glyph glyph-name="Aring" unicode="&#xc5;" horiz-adv-x="540" 
d="M59 0q-13 0 -25.5 7.5t-12.5 20.5q0 5 1 7l209 679q4 12 15 17.5t24 5.5q14 0 25 -6t15 -17l208 -679q0 -2 0.5 -3t0.5 -3q0 -12 -13 -20.5t-27 -8.5q-19 0 -25 17l-46 154h-277l-46 -154q-2 -9 -9.5 -13t-16.5 -4zM391 228l-121 403l-122 -403h243zM269 1022
q18 0 35 -7.5t30 -20.5t20.5 -30t7.5 -35q0 -19 -7.5 -36t-20.5 -30.5t-30 -21.5t-35 -8q-19 0 -35.5 8t-29 21.5t-20 30.5t-7.5 36q0 18 7 35t19.5 29.5t29 20.5t36.5 8zM328 929q0 21 -17.5 39.5t-40.5 18.5q-26 0 -43 -18.5t-17 -39.5q0 -24 17.5 -43.5t42.5 -19.5
q23 0 40.5 19.5t17.5 43.5z" />
    <glyph glyph-name="AE" unicode="&#xc6;" horiz-adv-x="715" 
d="M432 395h147q12 0 18.5 -9t6.5 -21q0 -10 -5.5 -18.5t-19.5 -8.5h-147v-277h235q11 0 17.5 -9.5t6.5 -21.5q0 -11 -5.5 -20.5t-18.5 -9.5h-270q-11 0 -21 6.5t-10 19.5v312h-229v-307q0 -14 -5.5 -22.5t-27.5 -8.5q-17 0 -24 8.5t-7 22.5v487q0 58 16 98.5t44 66t65.5 37
t80.5 11.5h388q13 0 18.5 -9t5.5 -20q0 -13 -6.5 -22.5t-17.5 -9.5h-235v-275zM137 395h229v275h-87q-67 0 -104.5 -37t-37.5 -115v-123z" />
    <glyph glyph-name="Ccedilla" unicode="&#xc7;" horiz-adv-x="523" 
d="M418 549q-1 16 -6 37t-20 39.5t-42 31.5t-72 13q-70 0 -107 -37t-37 -115v-310q0 -79 37.5 -116t110.5 -37q45 0 71 12.5t39.5 31t18.5 40t7 39.5q3 26 33 26q17 0 25 -8t8 -33q0 -31 -11.5 -59t-33.5 -50.5t-54.5 -37.5t-73.5 -19l-15 -58q51 -2 73.5 -23.5t22.5 -48.5
q0 -14 -5.5 -27.5t-16.5 -24.5t-27.5 -18t-39.5 -7q-10 0 -23.5 1.5t-25.5 4.5t-20.5 8t-8.5 12q0 5 4 14.5t12 9.5q6 0 18.5 -7t37.5 -7q29 0 41 11.5t12 27.5q0 20 -17 30t-46 12l-38 3l22 84q-42 1 -78.5 12.5t-64.5 37t-44 66t-16 98.5v310q0 58 17 98.5t45.5 66
t66.5 37t81 11.5q49 0 87.5 -13.5t64.5 -36.5t40 -53t14 -64q0 -25 -8 -32.5t-25 -7.5t-24.5 7t-8.5 18z" />
    <glyph glyph-name="Egrave" unicode="&#xc8;" horiz-adv-x="508" 
d="M142 395h157q12 0 18.5 -9t6.5 -21q0 -10 -5.5 -18.5t-19.5 -8.5h-157v-277h320q12 0 18.5 -9.5t6.5 -21.5q0 -11 -5.5 -20.5t-19.5 -9.5h-356q-11 0 -20.5 6.5t-9.5 19.5v680q0 13 9.5 19t20.5 6h356q14 0 19.5 -9t5.5 -20q0 -13 -6.5 -22.5t-18.5 -9.5h-320v-275z
M215 905q-13 6 -13 22q0 10 6.5 19t17.5 9q4 0 9 -3l111 -61q11 -6 11 -18q0 -11 -7.5 -19.5t-18.5 -8.5q-6 0 -10 3z" />
    <glyph glyph-name="Eacute" unicode="&#xc9;" horiz-adv-x="508" 
d="M246 848q-5 -3 -10 -3q-11 0 -18.5 8.5t-7.5 19.5q0 12 11 18l112 61q3 3 8 3q11 0 17.5 -9t6.5 -19q0 -16 -12 -22zM142 395h157q12 0 18.5 -9t6.5 -21q0 -10 -5.5 -18.5t-19.5 -8.5h-157v-277h320q12 0 18.5 -9.5t6.5 -21.5q0 -11 -5.5 -20.5t-19.5 -9.5h-356
q-11 0 -20.5 6.5t-9.5 19.5v680q0 13 9.5 19t20.5 6h356q14 0 19.5 -9t5.5 -20q0 -13 -6.5 -22.5t-18.5 -9.5h-320v-275z" />
    <glyph glyph-name="Ecircumflex" unicode="&#xca;" horiz-adv-x="508" 
d="M179 849q-2 -1 -4.5 -2t-4.5 -1q-8 0 -14.5 7.5t-6.5 18.5q0 6 3 12t10 10l104 56q8 5 17 5t17 -5l104 -56q7 -3 10 -9.5t3 -13.5q0 -10 -6 -17t-14 -7q-2 0 -5 1t-5 2l-104 55zM142 395h157q12 0 18.5 -9t6.5 -21q0 -10 -5.5 -18.5t-19.5 -8.5h-157v-277h320
q12 0 18.5 -9.5t6.5 -21.5q0 -11 -5.5 -20.5t-19.5 -9.5h-356q-11 0 -20.5 6.5t-9.5 19.5v680q0 13 9.5 19t20.5 6h356q14 0 19.5 -9t5.5 -20q0 -13 -6.5 -22.5t-18.5 -9.5h-320v-275z" />
    <glyph glyph-name="Edieresis" unicode="&#xcb;" horiz-adv-x="508" 
d="M221 920q15 0 25.5 -10t10.5 -26q0 -15 -10.5 -26t-25.5 -11q-16 0 -26.5 11t-10.5 26q0 16 10.5 26t26.5 10zM344 920q16 0 26 -10t10 -26q0 -15 -10 -26t-26 -11t-26.5 11t-10.5 26q0 16 10.5 26t26.5 10zM142 395h157q12 0 18.5 -9t6.5 -21q0 -10 -5.5 -18.5
t-19.5 -8.5h-157v-277h320q12 0 18.5 -9.5t6.5 -21.5q0 -11 -5.5 -20.5t-19.5 -9.5h-356q-11 0 -20.5 6.5t-9.5 19.5v680q0 13 9.5 19t20.5 6h356q14 0 19.5 -9t5.5 -20q0 -13 -6.5 -22.5t-18.5 -9.5h-320v-275z" />
    <glyph glyph-name="Igrave" unicode="&#xcc;" horiz-adv-x="218" 
d="M76 707q0 13 10 18.5t23 5.5q12 0 22.5 -5.5t10.5 -18.5v-681q0 -13 -10.5 -19.5t-22.5 -6.5q-13 0 -23 6.5t-10 19.5v681zM42 905q-13 6 -13 22q0 10 6.5 19t17.5 9q4 0 9 -3l111 -61q11 -6 11 -18q0 -11 -7.5 -19.5t-18.5 -8.5q-6 0 -10 3z" />
    <glyph glyph-name="Iacute" unicode="&#xcd;" horiz-adv-x="218" 
d="M76 707q0 13 10 18.5t23 5.5q12 0 22.5 -5.5t10.5 -18.5v-681q0 -13 -10.5 -19.5t-22.5 -6.5q-13 0 -23 6.5t-10 19.5v681zM69 848q-5 -3 -10 -3q-11 0 -18.5 8.5t-7.5 19.5q0 12 11 18l112 61q3 3 8 3q11 0 17.5 -9t6.5 -19q0 -16 -12 -22z" />
    <glyph glyph-name="Icircumflex" unicode="&#xce;" horiz-adv-x="218" 
d="M76 707q0 13 10 18.5t23 5.5q12 0 22.5 -5.5t10.5 -18.5v-681q0 -13 -10.5 -19.5t-22.5 -6.5q-13 0 -23 6.5t-10 19.5v681zM5 849q-2 -1 -4.5 -2t-4.5 -1q-8 0 -14.5 7.5t-6.5 18.5q0 6 3 12t10 10l104 56q8 5 17 5t17 -5l104 -56q7 -3 10 -9.5t3 -13.5q0 -10 -6 -17
t-14 -7q-2 0 -5 1t-5 2l-104 55z" />
    <glyph glyph-name="Idieresis" unicode="&#xcf;" horiz-adv-x="218" 
d="M76 707q0 13 10 18.5t23 5.5q12 0 22.5 -5.5t10.5 -18.5v-681q0 -13 -10.5 -19.5t-22.5 -6.5q-13 0 -23 6.5t-10 19.5v681zM48 920q15 0 25.5 -10t10.5 -26q0 -15 -10.5 -26t-25.5 -11q-16 0 -26.5 11t-10.5 26q0 16 10.5 26t26.5 10zM171 920q16 0 26 -10t10 -26
q0 -15 -10 -26t-26 -11t-26.5 11t-10.5 26q0 16 10.5 26t26.5 10z" />
    <glyph glyph-name="Eth" unicode="&#xd0;" horiz-adv-x="569" 
d="M292 731q44 0 82 -11.5t66.5 -37t44.5 -66t16 -98.5v-304q0 -59 -16 -99.5t-44.5 -66t-66.5 -37t-82 -11.5h-177q-14 0 -22 7.5t-8 17.5v332h-63q-11 0 -17 8t-6 19t6 19t17 8h63v296q0 10 8 17t22 7h177zM151 670v-259h113q10 0 16.5 -8t6.5 -19t-6.5 -19t-16.5 -8h-113
v-296h141q67 0 105 37.5t38 115.5v304q0 78 -38 115t-105 37h-141z" />
    <glyph glyph-name="Ntilde" unicode="&#xd1;" horiz-adv-x="573" 
d="M464 0q-14 0 -25 11.5t-19 26.5l-278 541v-553q0 -13 -10.5 -19.5t-22.5 -6.5q-13 0 -23 6.5t-10 19.5v680q0 14 10 19.5t23 5.5q18 0 30 -13.5t22 -32.5l270 -532v554q0 13 10 18.5t23 5.5q12 0 22.5 -5.5t10.5 -18.5v-681q0 -13 -10.5 -19.5t-22.5 -6.5zM222 898
q-16 0 -27.5 -5t-19.5 -11t-14.5 -11t-12.5 -5q-10 0 -14.5 8.5t-4.5 16.5q0 14 9 24.5t22.5 18t29 11t27.5 3.5q19 0 35 -5.5t31 -11.5t30.5 -11.5t35.5 -5.5q17 0 27.5 4.5t17.5 10t12.5 10t12.5 4.5q10 0 15 -8t5 -15q0 -15 -9 -26t-22 -18t-27.5 -10t-25.5 -3
q-20 0 -36 5.5t-30.5 12t-30.5 12t-36 5.5z" />
    <glyph glyph-name="Ograve" unicode="&#xd2;" horiz-adv-x="552" 
d="M276 -6q-44 0 -82 11.5t-66 37t-44 66t-16 99.5v310q0 58 16 98.5t44 66t66 37t82 11.5t82 -11.5t66 -37t44 -66t16 -98.5v-310q0 -59 -16 -99.5t-44 -66t-66 -37t-82 -11.5zM418 518q0 78 -37.5 115t-104.5 37t-104.5 -37t-37.5 -115v-310q0 -79 37.5 -116t104.5 -37
t104.5 37t37.5 116v310zM208 905q-13 6 -13 22q0 10 6.5 19t17.5 9q4 0 9 -3l111 -61q11 -6 11 -18q0 -11 -7.5 -19.5t-18.5 -8.5q-6 0 -10 3z" />
    <glyph glyph-name="Oacute" unicode="&#xd3;" horiz-adv-x="552" 
d="M246 848q-5 -3 -10 -3q-11 0 -18.5 8.5t-7.5 19.5q0 12 11 18l112 61q3 3 8 3q11 0 17.5 -9t6.5 -19q0 -16 -12 -22zM276 -6q-44 0 -82 11.5t-66 37t-44 66t-16 99.5v310q0 58 16 98.5t44 66t66 37t82 11.5t82 -11.5t66 -37t44 -66t16 -98.5v-310q0 -59 -16 -99.5
t-44 -66t-66 -37t-82 -11.5zM418 518q0 78 -37.5 115t-104.5 37t-104.5 -37t-37.5 -115v-310q0 -79 37.5 -116t104.5 -37t104.5 37t37.5 116v310z" />
    <glyph glyph-name="Ocircumflex" unicode="&#xd4;" horiz-adv-x="552" 
d="M172 849q-2 -1 -4.5 -2t-4.5 -1q-8 0 -14.5 7.5t-6.5 18.5q0 6 3 12t10 10l104 56q8 5 17 5t17 -5l104 -56q7 -3 10 -9.5t3 -13.5q0 -10 -6 -17t-14 -7q-2 0 -5 1t-5 2l-104 55zM276 -6q-44 0 -82 11.5t-66 37t-44 66t-16 99.5v310q0 58 16 98.5t44 66t66 37t82 11.5
t82 -11.5t66 -37t44 -66t16 -98.5v-310q0 -59 -16 -99.5t-44 -66t-66 -37t-82 -11.5zM418 518q0 78 -37.5 115t-104.5 37t-104.5 -37t-37.5 -115v-310q0 -79 37.5 -116t104.5 -37t104.5 37t37.5 116v310z" />
    <glyph glyph-name="Otilde" unicode="&#xd5;" horiz-adv-x="552" 
d="M276 -6q-44 0 -82 11.5t-66 37t-44 66t-16 99.5v310q0 58 16 98.5t44 66t66 37t82 11.5t82 -11.5t66 -37t44 -66t16 -98.5v-310q0 -59 -16 -99.5t-44 -66t-66 -37t-82 -11.5zM418 518q0 78 -37.5 115t-104.5 37t-104.5 -37t-37.5 -115v-310q0 -79 37.5 -116t104.5 -37
t104.5 37t37.5 116v310zM214 898q-16 0 -27.5 -5t-19.5 -11t-14.5 -11t-12.5 -5q-10 0 -14.5 8.5t-4.5 16.5q0 14 9 24.5t22.5 18t29 11t27.5 3.5q19 0 35 -5.5t31 -11.5t30.5 -11.5t35.5 -5.5q17 0 27.5 4.5t17.5 10t12.5 10t12.5 4.5q10 0 15 -8t5 -15q0 -15 -9 -26
t-22 -18t-27.5 -10t-25.5 -3q-20 0 -36 5.5t-30.5 12t-30.5 12t-36 5.5z" />
    <glyph glyph-name="Odieresis" unicode="&#xd6;" horiz-adv-x="552" 
d="M215 920q15 0 25.5 -10t10.5 -26q0 -15 -10.5 -26t-25.5 -11q-16 0 -26.5 11t-10.5 26q0 16 10.5 26t26.5 10zM338 920q16 0 26 -10t10 -26q0 -15 -10 -26t-26 -11t-26.5 11t-10.5 26q0 16 10.5 26t26.5 10zM276 -6q-44 0 -82 11.5t-66 37t-44 66t-16 99.5v310
q0 58 16 98.5t44 66t66 37t82 11.5t82 -11.5t66 -37t44 -66t16 -98.5v-310q0 -59 -16 -99.5t-44 -66t-66 -37t-82 -11.5zM418 518q0 78 -37.5 115t-104.5 37t-104.5 -37t-37.5 -115v-310q0 -79 37.5 -116t104.5 -37t104.5 37t37.5 116v310z" />
    <glyph glyph-name="multiply" unicode="&#xd7;" horiz-adv-x="398" 
d="M339 166q0 -11 -9 -21t-22 -10q-9 0 -16 7l-94 93l-92 -93q-7 -7 -17 -7q-11 0 -21 10t-10 21q0 9 7 16l96 93l-96 93q-6 6 -6 17t9.5 20.5t20.5 9.5q10 0 18 -6l91 -93l93 93q6 6 17 6q12 0 21.5 -9.5t9.5 -20.5q0 -10 -7 -17l-95 -93l96 -93q6 -6 6 -16z" />
    <glyph glyph-name="Oslash" unicode="&#xd8;" horiz-adv-x="552" 
d="M464 769q10 0 19.5 -7.5t9.5 -19.5q0 -8 -4 -13l-39 -77q16 -25 25 -58t9 -76v-310q0 -59 -16 -99.5t-44 -66t-66 -37t-82 -11.5q-42 0 -77.5 10t-63.5 33l-25 -49q-3 -8 -9.5 -11.5t-14.5 -3.5q-11 0 -18.5 7.5t-7.5 17.5q0 6 3 12l35 69q-30 48 -30 129v310
q0 58 16 98.5t44 66t66 37t82 11.5q39 0 73.5 -9.5t61.5 -29.5l33 65q3 7 8.5 9.5t11.5 2.5zM418 518q0 17 -2 31t-5 27l-245 -478q36 -43 110 -43q67 0 104.5 37t37.5 116v310zM134 208q0 -30 4 -50l242 475q-36 37 -104 37q-67 0 -104.5 -37t-37.5 -115v-310z" />
    <glyph glyph-name="Ugrave" unicode="&#xd9;" horiz-adv-x="566" 
d="M427 707q0 13 10 18.5t23 5.5q12 0 22.5 -5.5t10.5 -18.5v-499q0 -59 -16.5 -99.5t-45 -66t-66.5 -37t-82 -11.5t-82.5 11.5t-67 37t-44.5 66t-16 99.5v499q0 13 10.5 18.5t22.5 5.5q13 0 23 -5.5t10 -18.5v-499q0 -78 38 -115.5t106 -37.5t106 37.5t38 115.5v499z
M213 905q-13 6 -13 22q0 10 6.5 19t17.5 9q4 0 9 -3l111 -61q11 -6 11 -18q0 -11 -7.5 -19.5t-18.5 -8.5q-6 0 -10 3z" />
    <glyph glyph-name="Uacute" unicode="&#xda;" horiz-adv-x="566" 
d="M248 848q-5 -3 -10 -3q-11 0 -18.5 8.5t-7.5 19.5q0 12 11 18l112 61q3 3 8 3q11 0 17.5 -9t6.5 -19q0 -16 -12 -22zM427 707q0 13 10 18.5t23 5.5q12 0 22.5 -5.5t10.5 -18.5v-499q0 -59 -16.5 -99.5t-45 -66t-66.5 -37t-82 -11.5t-82.5 11.5t-67 37t-44.5 66t-16 99.5
v499q0 13 10.5 18.5t22.5 5.5q13 0 23 -5.5t10 -18.5v-499q0 -78 38 -115.5t106 -37.5t106 37.5t38 115.5v499z" />
    <glyph glyph-name="Ucircumflex" unicode="&#xdb;" horiz-adv-x="566" 
d="M177 849q-2 -1 -4.5 -2t-4.5 -1q-8 0 -14.5 7.5t-6.5 18.5q0 6 3 12t10 10l104 56q8 5 17 5t17 -5l104 -56q7 -3 10 -9.5t3 -13.5q0 -10 -6 -17t-14 -7q-2 0 -5 1t-5 2l-104 55zM427 707q0 13 10 18.5t23 5.5q12 0 22.5 -5.5t10.5 -18.5v-499q0 -59 -16.5 -99.5t-45 -66
t-66.5 -37t-82 -11.5t-82.5 11.5t-67 37t-44.5 66t-16 99.5v499q0 13 10.5 18.5t22.5 5.5q13 0 23 -5.5t10 -18.5v-499q0 -78 38 -115.5t106 -37.5t106 37.5t38 115.5v499z" />
    <glyph glyph-name="Udieresis" unicode="&#xdc;" horiz-adv-x="566" 
d="M222 920q15 0 25.5 -10t10.5 -26q0 -15 -10.5 -26t-25.5 -11q-16 0 -26.5 11t-10.5 26q0 16 10.5 26t26.5 10zM345 920q16 0 26 -10t10 -26q0 -15 -10 -26t-26 -11t-26.5 11t-10.5 26q0 16 10.5 26t26.5 10zM427 707q0 13 10 18.5t23 5.5q12 0 22.5 -5.5t10.5 -18.5v-499
q0 -59 -16.5 -99.5t-45 -66t-66.5 -37t-82 -11.5t-82.5 11.5t-67 37t-44.5 66t-16 99.5v499q0 13 10.5 18.5t22.5 5.5q13 0 23 -5.5t10 -18.5v-499q0 -78 38 -115.5t106 -37.5t106 37.5t38 115.5v499z" />
    <glyph glyph-name="Yacute" unicode="&#xdd;" horiz-adv-x="531" 
d="M232 280q0 5 -1 8l-207 397q-3 5 -4 10t-1 8q0 13 12 20.5t24 7.5q16 0 26 -20l184 -365l185 365q10 20 26 20q12 0 24 -7.5t12 -20.5q0 -3 -1 -8t-3 -10l-208 -397q-2 -6 -2 -8v-254q0 -13 -10 -19.5t-23 -6.5q-12 0 -22.5 6.5t-10.5 19.5v254zM229 848q-5 -3 -10 -3
q-11 0 -18.5 8.5t-7.5 19.5q0 12 11 18l112 61q3 3 8 3q11 0 17.5 -9t6.5 -19q0 -16 -12 -22z" />
    <glyph glyph-name="Thorn" unicode="&#xde;" horiz-adv-x="495" 
d="M107 735q15 0 24.5 -6.5t9.5 -17.5v-168q17 31 51 53.5t87 22.5q34 0 65.5 -11t55.5 -31.5t38 -50.5t14 -68v-161q0 -38 -14.5 -68t-38.5 -51.5t-54 -33t-61 -11.5q-23 0 -46 6t-42.5 16.5t-34 25t-20.5 31.5v-186q0 -10 -9.5 -18t-23.5 -8t-23 8t-9 18v686q0 11 9 17
t22 6zM387 458q0 25 -10 43.5t-26.5 31.5t-38 19.5t-44.5 6.5q-25 0 -48 -7t-40.5 -20.5t-28 -32t-10.5 -41.5v-165q0 -17 9.5 -34.5t26.5 -32t40 -24t51 -9.5q22 0 43.5 6.5t38.5 20t27 32.5t10 45v161z" />
    <glyph glyph-name="germandbls" unicode="&#xdf;" horiz-adv-x="551" 
d="M330 -20q-12 0 -30 1.5t-35 6t-29 13t-12 23.5q0 10 5 20.5t15 10.5t27 -9.5t51 -9.5q59 0 93.5 41t34.5 120v17q0 29 -8.5 57.5t-27 51.5t-47.5 38.5t-70 20.5q-15 2 -24.5 6t-9.5 21t10 22t25 7q27 2 43.5 16t25 33.5t11.5 42t3 40.5q0 63 -26.5 100.5t-83.5 37.5
q-30 0 -50 -10.5t-32 -28t-17 -40t-5 -46.5v-558q0 -11 -10 -18t-24 -7t-22.5 7t-8.5 18v394h-73q-11 0 -17 8t-6 19t6 19t17 8h73v110q0 37 9 70.5t29 59t51.5 40.5t76.5 15q36 0 67 -10.5t54 -33t36 -56.5t13 -81q0 -26 -4.5 -52.5t-13.5 -50t-22 -41t-31 -25.5
q25 -5 51 -22t47 -43.5t34 -61t13 -73.5v-17q0 -56 -15.5 -97.5t-41 -69t-58 -41t-67.5 -13.5z" />
    <glyph glyph-name="agrave" unicode="&#xe0;" horiz-adv-x="438" 
d="M198 479q50 0 84.5 -16t56 -43t31 -62t9.5 -72v-260q0 -11 -9 -18.5t-23 -7.5q-13 0 -21.5 7.5t-8.5 18.5v44q-26 -30 -63 -53.5t-88 -23.5q-29 0 -53.5 8t-43 24.5t-29 41t-10.5 58.5q0 41 17 67.5t47.5 42t73.5 21.5t95 6h51v24q0 24 -6.5 48t-20.5 43.5t-36.5 32
t-54.5 12.5q-25 0 -42.5 -4.5t-30 -10t-20.5 -10t-14 -4.5q-13 0 -19.5 12t-6.5 23q0 10 12 19t31.5 16t43.5 11.5t48 4.5zM314 217h-42q-35 0 -66.5 -2.5t-56.5 -11.5t-39.5 -26t-14.5 -46q0 -44 25 -63.5t62 -19.5q24 0 47.5 10t42.5 25.5t30.5 34t11.5 35.5v64zM141 651
q-13 6 -13 22q0 10 6.5 19t17.5 9q4 0 9 -3l111 -61q11 -6 11 -18q0 -11 -7.5 -19.5t-18.5 -8.5q-6 0 -10 3z" />
    <glyph glyph-name="aacute" unicode="&#xe1;" horiz-adv-x="438" 
d="M198 479q50 0 84.5 -16t56 -43t31 -62t9.5 -72v-260q0 -11 -9 -18.5t-23 -7.5q-13 0 -21.5 7.5t-8.5 18.5v44q-26 -30 -63 -53.5t-88 -23.5q-29 0 -53.5 8t-43 24.5t-29 41t-10.5 58.5q0 41 17 67.5t47.5 42t73.5 21.5t95 6h51v24q0 24 -6.5 48t-20.5 43.5t-36.5 32
t-54.5 12.5q-25 0 -42.5 -4.5t-30 -10t-20.5 -10t-14 -4.5q-13 0 -19.5 12t-6.5 23q0 10 12 19t31.5 16t43.5 11.5t48 4.5zM314 217h-42q-35 0 -66.5 -2.5t-56.5 -11.5t-39.5 -26t-14.5 -46q0 -44 25 -63.5t62 -19.5q24 0 47.5 10t42.5 25.5t30.5 34t11.5 35.5v64zM169 594
q-5 -3 -10 -3q-11 0 -18.5 8.5t-7.5 19.5q0 12 11 18l112 61q3 3 8 3q11 0 17.5 -9t6.5 -19q0 -16 -12 -22z" />
    <glyph glyph-name="acircumflex" unicode="&#xe2;" horiz-adv-x="438" 
d="M102 595q-2 -1 -4.5 -2t-4.5 -1q-8 0 -14.5 7.5t-6.5 18.5q0 6 3 12t10 10l104 56q8 5 17 5t17 -5l104 -56q7 -3 10 -9.5t3 -13.5q0 -10 -6 -17t-14 -7q-2 0 -5 1t-5 2l-104 55zM198 479q50 0 84.5 -16t56 -43t31 -62t9.5 -72v-260q0 -11 -9 -18.5t-23 -7.5
q-13 0 -21.5 7.5t-8.5 18.5v44q-26 -30 -63 -53.5t-88 -23.5q-29 0 -53.5 8t-43 24.5t-29 41t-10.5 58.5q0 41 17 67.5t47.5 42t73.5 21.5t95 6h51v24q0 24 -6.5 48t-20.5 43.5t-36.5 32t-54.5 12.5q-25 0 -42.5 -4.5t-30 -10t-20.5 -10t-14 -4.5q-13 0 -19.5 12t-6.5 23
q0 10 12 19t31.5 16t43.5 11.5t48 4.5zM314 217h-42q-35 0 -66.5 -2.5t-56.5 -11.5t-39.5 -26t-14.5 -46q0 -44 25 -63.5t62 -19.5q24 0 47.5 10t42.5 25.5t30.5 34t11.5 35.5v64z" />
    <glyph glyph-name="atilde" unicode="&#xe3;" horiz-adv-x="438" 
d="M198 479q50 0 84.5 -16t56 -43t31 -62t9.5 -72v-260q0 -11 -9 -18.5t-23 -7.5q-13 0 -21.5 7.5t-8.5 18.5v44q-26 -30 -63 -53.5t-88 -23.5q-29 0 -53.5 8t-43 24.5t-29 41t-10.5 58.5q0 41 17 67.5t47.5 42t73.5 21.5t95 6h51v24q0 24 -6.5 48t-20.5 43.5t-36.5 32
t-54.5 12.5q-25 0 -42.5 -4.5t-30 -10t-20.5 -10t-14 -4.5q-13 0 -19.5 12t-6.5 23q0 10 12 19t31.5 16t43.5 11.5t48 4.5zM314 217h-42q-35 0 -66.5 -2.5t-56.5 -11.5t-39.5 -26t-14.5 -46q0 -44 25 -63.5t62 -19.5q24 0 47.5 10t42.5 25.5t30.5 34t11.5 35.5v64zM143 644
q-16 0 -27.5 -5t-19.5 -11t-14.5 -11t-12.5 -5q-10 0 -14.5 8.5t-4.5 16.5q0 14 9 24.5t22.5 18t29 11t27.5 3.5q19 0 35 -5.5t31 -11.5t30.5 -11.5t35.5 -5.5q17 0 27.5 4.5t17.5 10t12.5 10t12.5 4.5q10 0 15 -8t5 -15q0 -15 -9 -26t-22 -18t-27.5 -10t-25.5 -3
q-20 0 -36 5.5t-30.5 12t-30.5 12t-36 5.5z" />
    <glyph glyph-name="adieresis" unicode="&#xe4;" horiz-adv-x="438" 
d="M144 666q15 0 25.5 -10t10.5 -26q0 -15 -10.5 -26t-25.5 -11q-16 0 -26.5 11t-10.5 26q0 16 10.5 26t26.5 10zM267 666q16 0 26 -10t10 -26q0 -15 -10 -26t-26 -11t-26.5 11t-10.5 26q0 16 10.5 26t26.5 10zM198 479q50 0 84.5 -16t56 -43t31 -62t9.5 -72v-260
q0 -11 -9 -18.5t-23 -7.5q-13 0 -21.5 7.5t-8.5 18.5v44q-26 -30 -63 -53.5t-88 -23.5q-29 0 -53.5 8t-43 24.5t-29 41t-10.5 58.5q0 41 17 67.5t47.5 42t73.5 21.5t95 6h51v24q0 24 -6.5 48t-20.5 43.5t-36.5 32t-54.5 12.5q-25 0 -42.5 -4.5t-30 -10t-20.5 -10t-14 -4.5
q-13 0 -19.5 12t-6.5 23q0 10 12 19t31.5 16t43.5 11.5t48 4.5zM314 217h-42q-35 0 -66.5 -2.5t-56.5 -11.5t-39.5 -26t-14.5 -46q0 -44 25 -63.5t62 -19.5q24 0 47.5 10t42.5 25.5t30.5 34t11.5 35.5v64z" />
    <glyph glyph-name="aring" unicode="&#xe5;" horiz-adv-x="438" 
d="M198 479q50 0 84.5 -16t56 -43t31 -62t9.5 -72v-260q0 -11 -9 -18.5t-23 -7.5q-13 0 -21.5 7.5t-8.5 18.5v44q-26 -30 -63 -53.5t-88 -23.5q-29 0 -53.5 8t-43 24.5t-29 41t-10.5 58.5q0 41 17 67.5t47.5 42t73.5 21.5t95 6h51v24q0 24 -6.5 48t-20.5 43.5t-36.5 32
t-54.5 12.5q-25 0 -42.5 -4.5t-30 -10t-20.5 -10t-14 -4.5q-13 0 -19.5 12t-6.5 23q0 10 12 19t31.5 16t43.5 11.5t48 4.5zM314 217h-42q-35 0 -66.5 -2.5t-56.5 -11.5t-39.5 -26t-14.5 -46q0 -44 25 -63.5t62 -19.5q24 0 47.5 10t42.5 25.5t30.5 34t11.5 35.5v64zM206 768
q18 0 35 -7.5t30 -20.5t20.5 -30t7.5 -35q0 -19 -7.5 -36t-20.5 -30.5t-30 -21.5t-35 -8q-19 0 -35.5 8t-29 21.5t-20 30.5t-7.5 36q0 18 7 35t19.5 29.5t29 20.5t36.5 8zM265 675q0 21 -17.5 39.5t-40.5 18.5q-26 0 -43 -18.5t-17 -39.5q0 -24 17.5 -43.5t42.5 -19.5
q23 0 40.5 19.5t17.5 43.5z" />
    <glyph glyph-name="ae" unicode="&#xe6;" horiz-adv-x="728" 
d="M504 479q32 0 65.5 -11t60.5 -34.5t44.5 -60t17.5 -87.5q0 -23 -4.5 -36.5t-15 -20.5t-27 -9.5t-40.5 -2.5h-224v-37q0 -30 11 -54t31 -41t47.5 -26t59.5 -9q28 0 47.5 6t33 13.5t23 14t17.5 6.5q11 0 19.5 -10t8.5 -21q0 -12 -14 -23.5t-36.5 -21t-51 -15.5t-57.5 -6
q-57 0 -104.5 26.5t-72.5 75.5q-32 -54 -79.5 -78t-92.5 -24q-28 0 -53.5 8t-45 24.5t-31 41t-11.5 58.5q0 41 16.5 67.5t47 42t73.5 21.5t95 6h51v24q0 25 -6.5 49.5t-20.5 44t-37 31.5t-56 12q-24 0 -41.5 -4.5t-29.5 -10t-20.5 -10t-14.5 -4.5q-11 0 -18.5 11.5
t-7.5 22.5q0 10 12 19t31.5 16.5t44 12t48.5 4.5q60 0 97 -26t56 -68q23 41 63.5 67t90.5 26zM579 265q32 0 41 6.5t9 25.5q0 25 -9 48t-25.5 41t-39.5 28.5t-51 10.5q-26 0 -48.5 -9.5t-39 -26t-26 -38.5t-9.5 -47v-39h198zM313 217h-43q-35 0 -66.5 -2.5t-55.5 -11.5
t-38.5 -26.5t-14.5 -47.5q0 -41 25 -61t61 -20q26 0 50 10.5t42 26t29 34t11 34.5v64z" />
    <glyph glyph-name="ccedilla" unicode="&#xe7;" horiz-adv-x="411" 
d="M386 59q0 -19 -34.5 -40t-93.5 -25l-15 -55q51 -2 73.5 -23.5t22.5 -48.5q0 -14 -5.5 -27.5t-16.5 -24.5t-27.5 -18t-39.5 -7q-10 0 -23.5 1.5t-25.5 4.5t-20.5 8t-8.5 12q0 5 4 14.5t12 9.5q6 0 18.5 -7t37.5 -7q29 0 41 11.5t12 27.5q0 20 -17 30t-46 12l-38 3l22 84
q-44 3 -76.5 18.5t-53.5 40.5t-31.5 58t-10.5 72v107q0 40 11.5 74.5t35 60t60 40t86.5 14.5q32 0 58 -6.5t44.5 -16t28.5 -21t10 -21.5q0 -11 -8.5 -21.5t-20.5 -10.5q-7 0 -14.5 6t-19.5 12.5t-30 12.5t-45 6q-66 0 -98.5 -34.5t-32.5 -94.5v-107q0 -61 33 -95.5t99 -34.5
q29 0 47.5 6t30.5 13t19.5 13t15.5 6q14 0 22 -10.5t8 -21.5z" />
    <glyph glyph-name="egrave" unicode="&#xe8;" horiz-adv-x="458" 
d="M236 479q37 0 71 -13.5t59.5 -37.5t41 -57.5t15.5 -73.5q0 -29 -7.5 -45t-19.5 -24t-28 -9.5t-32 -1.5h-226v-37q0 -60 43 -95t109 -35q30 0 49 6t32 13.5t22 14t17 6.5q12 0 20 -11t8 -20t-10.5 -20.5t-30 -21.5t-47 -17t-62.5 -7q-47 0 -86.5 13.5t-68 38.5t-44.5 60
t-16 78v112q0 37 15 70.5t41 59t61 40t74 14.5zM310 265q30 0 40 6.5t10 27.5q0 24 -9 46.5t-25.5 40.5t-39.5 28.5t-51 10.5q-26 0 -48.5 -9.5t-39.5 -26t-27 -39t-10 -47.5v-38h200zM167 651q-13 6 -13 22q0 10 6.5 19t17.5 9q4 0 9 -3l111 -61q11 -6 11 -18
q0 -11 -7.5 -19.5t-18.5 -8.5q-6 0 -10 3z" />
    <glyph glyph-name="eacute" unicode="&#xe9;" horiz-adv-x="458" 
d="M195 594q-5 -3 -10 -3q-11 0 -18.5 8.5t-7.5 19.5q0 12 11 18l112 61q3 3 8 3q11 0 17.5 -9t6.5 -19q0 -16 -12 -22zM236 479q37 0 71 -13.5t59.5 -37.5t41 -57.5t15.5 -73.5q0 -29 -7.5 -45t-19.5 -24t-28 -9.5t-32 -1.5h-226v-37q0 -60 43 -95t109 -35q30 0 49 6
t32 13.5t22 14t17 6.5q12 0 20 -11t8 -20t-10.5 -20.5t-30 -21.5t-47 -17t-62.5 -7q-47 0 -86.5 13.5t-68 38.5t-44.5 60t-16 78v112q0 37 15 70.5t41 59t61 40t74 14.5zM310 265q30 0 40 6.5t10 27.5q0 24 -9 46.5t-25.5 40.5t-39.5 28.5t-51 10.5q-26 0 -48.5 -9.5
t-39.5 -26t-27 -39t-10 -47.5v-38h200z" />
    <glyph glyph-name="ecircumflex" unicode="&#xea;" horiz-adv-x="458" 
d="M131 595q-2 -1 -4.5 -2t-4.5 -1q-8 0 -14.5 7.5t-6.5 18.5q0 6 3 12t10 10l104 56q8 5 17 5t17 -5l104 -56q7 -3 10 -9.5t3 -13.5q0 -10 -6 -17t-14 -7q-2 0 -5 1t-5 2l-104 55zM236 479q37 0 71 -13.5t59.5 -37.5t41 -57.5t15.5 -73.5q0 -29 -7.5 -45t-19.5 -24
t-28 -9.5t-32 -1.5h-226v-37q0 -60 43 -95t109 -35q30 0 49 6t32 13.5t22 14t17 6.5q12 0 20 -11t8 -20t-10.5 -20.5t-30 -21.5t-47 -17t-62.5 -7q-47 0 -86.5 13.5t-68 38.5t-44.5 60t-16 78v112q0 37 15 70.5t41 59t61 40t74 14.5zM310 265q30 0 40 6.5t10 27.5
q0 24 -9 46.5t-25.5 40.5t-39.5 28.5t-51 10.5q-26 0 -48.5 -9.5t-39.5 -26t-27 -39t-10 -47.5v-38h200z" />
    <glyph glyph-name="edieresis" unicode="&#xeb;" horiz-adv-x="458" 
d="M174 666q15 0 25.5 -10t10.5 -26q0 -15 -10.5 -26t-25.5 -11q-16 0 -26.5 11t-10.5 26q0 16 10.5 26t26.5 10zM297 666q16 0 26 -10t10 -26q0 -15 -10 -26t-26 -11t-26.5 11t-10.5 26q0 16 10.5 26t26.5 10zM236 479q37 0 71 -13.5t59.5 -37.5t41 -57.5t15.5 -73.5
q0 -29 -7.5 -45t-19.5 -24t-28 -9.5t-32 -1.5h-226v-37q0 -60 43 -95t109 -35q30 0 49 6t32 13.5t22 14t17 6.5q12 0 20 -11t8 -20t-10.5 -20.5t-30 -21.5t-47 -17t-62.5 -7q-47 0 -86.5 13.5t-68 38.5t-44.5 60t-16 78v112q0 37 15 70.5t41 59t61 40t74 14.5zM310 265
q30 0 40 6.5t10 27.5q0 24 -9 46.5t-25.5 40.5t-39.5 28.5t-51 10.5q-26 0 -48.5 -9.5t-39.5 -26t-27 -39t-10 -47.5v-38h200z" />
    <glyph glyph-name="igrave" unicode="&#xec;" horiz-adv-x="191" 
d="M95 473q14 0 23.5 -6.5t9.5 -17.5v-423q0 -10 -9.5 -18t-23.5 -8t-23 8t-9 18v423q0 11 9 17.5t23 6.5zM25 651q-13 6 -13 22q0 10 6.5 19t17.5 9q4 0 9 -3l111 -61q11 -6 11 -18q0 -11 -7.5 -19.5t-18.5 -8.5q-6 0 -10 3z" />
    <glyph glyph-name="iacute" unicode="&#xed;" horiz-adv-x="191" 
d="M58 594q-5 -3 -10 -3q-11 0 -18.5 8.5t-7.5 19.5q0 12 11 18l112 61q3 3 8 3q11 0 17.5 -9t6.5 -19q0 -16 -12 -22zM95 473q14 0 23.5 -6.5t9.5 -17.5v-423q0 -10 -9.5 -18t-23.5 -8t-23 8t-9 18v423q0 11 9 17.5t23 6.5z" />
    <glyph glyph-name="icircumflex" unicode="&#xee;" horiz-adv-x="191" 
d="M-9 595q-2 -1 -4.5 -2t-4.5 -1q-8 0 -14.5 7.5t-6.5 18.5q0 6 3 12t10 10l104 56q8 5 17 5t17 -5l104 -56q7 -3 10 -9.5t3 -13.5q0 -10 -6 -17t-14 -7q-2 0 -5 1t-5 2l-104 55zM95 473q14 0 23.5 -6.5t9.5 -17.5v-423q0 -10 -9.5 -18t-23.5 -8t-23 8t-9 18v423
q0 11 9 17.5t23 6.5z" />
    <glyph glyph-name="idieresis" unicode="&#xef;" horiz-adv-x="191" 
d="M36 666q15 0 25.5 -10t10.5 -26q0 -15 -10.5 -26t-25.5 -11q-16 0 -26.5 11t-10.5 26q0 16 10.5 26t26.5 10zM159 666q16 0 26 -10t10 -26q0 -15 -10 -26t-26 -11t-26.5 11t-10.5 26q0 16 10.5 26t26.5 10zM95 473q14 0 23.5 -6.5t9.5 -17.5v-423q0 -10 -9.5 -18
t-23.5 -8t-23 8t-9 18v423q0 11 9 17.5t23 6.5z" />
    <glyph glyph-name="eth" unicode="&#xf0;" horiz-adv-x="482" 
d="M344 645q36 -54 58.5 -126.5t22.5 -158.5v-177q0 -38 -15.5 -72t-42 -60.5t-61 -42t-72.5 -15.5t-72.5 15.5t-60.5 42t-41.5 60.5t-15.5 72v109q0 37 14 71t38 60t56.5 41t68.5 15q22 0 44 -6t40.5 -16.5t33 -26t21.5 -34.5q-5 71 -24.5 124.5t-46.5 91.5l-84 -48
q-5 -3 -10 -3q-10 0 -18 9.5t-8 19.5q0 12 11 18l77 45q-25 26 -52 38t-53 13q-7 3 -12 9.5t-5 16.5q0 11 8 22t29 11q34 0 71 -19.5t71 -57.5l73 42q3 3 9 3q10 0 18 -8.5t8 -19.5q0 -13 -11 -18zM109 183q0 -25 10 -48.5t27 -41.5t39.5 -29t48.5 -11t49 11t40 29t27 41.5
t10 48.5v112q0 24 -10.5 46.5t-27.5 40t-40 27.5t-48 10q-26 0 -49 -11t-40 -28.5t-26.5 -40.5t-9.5 -47v-109z" />
    <glyph glyph-name="ntilde" unicode="&#xf1;" 
d="M183 644q-16 0 -27.5 -5t-19.5 -11t-14.5 -11t-12.5 -5q-10 0 -14.5 8.5t-4.5 16.5q0 14 9 24.5t22.5 18t29 11t27.5 3.5q19 0 35 -5.5t31 -11.5t30.5 -11.5t35.5 -5.5q17 0 27.5 4.5t17.5 10t12.5 10t12.5 4.5q10 0 15 -8t5 -15q0 -15 -9 -26t-22 -18t-27.5 -10
t-25.5 -3q-20 0 -36 5.5t-30.5 12t-30.5 12t-36 5.5zM128 26q0 -10 -9.5 -18t-23.5 -8t-23 8t-9 18v423q0 11 9 17.5t23 6.5q12 0 21 -6.5t9 -17.5v-46q16 29 49.5 52.5t84.5 23.5q36 0 68.5 -14.5t56.5 -40t38.5 -59.5t14.5 -73v-266q0 -13 -10.5 -19.5t-22.5 -6.5
q-11 0 -21.5 6.5t-10.5 19.5v266q0 24 -10 47t-27 40.5t-39.5 28.5t-48.5 11q-22 0 -43.5 -8.5t-38 -25t-27 -40t-10.5 -53.5v-266z" />
    <glyph glyph-name="ograve" unicode="&#xf2;" horiz-adv-x="468" 
d="M233 479q38 0 72.5 -14.5t61 -40t42 -59.5t15.5 -73v-109q0 -37 -15.5 -71.5t-42 -60.5t-61 -42t-72.5 -16t-72 15.5t-60 42t-41.5 60.5t-15.5 72v109q0 37 15 71t40.5 60t60 41t73.5 15zM359 292q0 24 -10 47t-27 40.5t-40 28.5t-49 11t-49 -11t-39.5 -28.5t-26 -40.5
t-9.5 -47v-109q0 -25 9.5 -48.5t26.5 -41.5t39.5 -29t48.5 -11t49 11t40 29t27 41.5t10 48.5v109zM165 651q-13 6 -13 22q0 10 6.5 19t17.5 9q4 0 9 -3l111 -61q11 -6 11 -18q0 -11 -7.5 -19.5t-18.5 -8.5q-6 0 -10 3z" />
    <glyph glyph-name="oacute" unicode="&#xf3;" horiz-adv-x="468" 
d="M193 594q-5 -3 -10 -3q-11 0 -18.5 8.5t-7.5 19.5q0 12 11 18l112 61q3 3 8 3q11 0 17.5 -9t6.5 -19q0 -16 -12 -22zM233 479q38 0 72.5 -14.5t61 -40t42 -59.5t15.5 -73v-109q0 -37 -15.5 -71.5t-42 -60.5t-61 -42t-72.5 -16t-72 15.5t-60 42t-41.5 60.5t-15.5 72v109
q0 37 15 71t40.5 60t60 41t73.5 15zM359 292q0 24 -10 47t-27 40.5t-40 28.5t-49 11t-49 -11t-39.5 -28.5t-26 -40.5t-9.5 -47v-109q0 -25 9.5 -48.5t26.5 -41.5t39.5 -29t48.5 -11t49 11t40 29t27 41.5t10 48.5v109z" />
    <glyph glyph-name="ocircumflex" unicode="&#xf4;" horiz-adv-x="468" 
d="M129 595q-2 -1 -4.5 -2t-4.5 -1q-8 0 -14.5 7.5t-6.5 18.5q0 6 3 12t10 10l104 56q8 5 17 5t17 -5l104 -56q7 -3 10 -9.5t3 -13.5q0 -10 -6 -17t-14 -7q-2 0 -5 1t-5 2l-104 55zM233 479q38 0 72.5 -14.5t61 -40t42 -59.5t15.5 -73v-109q0 -37 -15.5 -71.5t-42 -60.5
t-61 -42t-72.5 -16t-72 15.5t-60 42t-41.5 60.5t-15.5 72v109q0 37 15 71t40.5 60t60 41t73.5 15zM359 292q0 24 -10 47t-27 40.5t-40 28.5t-49 11t-49 -11t-39.5 -28.5t-26 -40.5t-9.5 -47v-109q0 -25 9.5 -48.5t26.5 -41.5t39.5 -29t48.5 -11t49 11t40 29t27 41.5t10 48.5
v109z" />
    <glyph glyph-name="otilde" unicode="&#xf5;" horiz-adv-x="468" 
d="M233 479q38 0 72.5 -14.5t61 -40t42 -59.5t15.5 -73v-109q0 -37 -15.5 -71.5t-42 -60.5t-61 -42t-72.5 -16t-72 15.5t-60 42t-41.5 60.5t-15.5 72v109q0 37 15 71t40.5 60t60 41t73.5 15zM359 292q0 24 -10 47t-27 40.5t-40 28.5t-49 11t-49 -11t-39.5 -28.5t-26 -40.5
t-9.5 -47v-109q0 -25 9.5 -48.5t26.5 -41.5t39.5 -29t48.5 -11t49 11t40 29t27 41.5t10 48.5v109zM172 644q-16 0 -27.5 -5t-19.5 -11t-14.5 -11t-12.5 -5q-10 0 -14.5 8.5t-4.5 16.5q0 14 9 24.5t22.5 18t29 11t27.5 3.5q19 0 35 -5.5t31 -11.5t30.5 -11.5t35.5 -5.5
q17 0 27.5 4.5t17.5 10t12.5 10t12.5 4.5q10 0 15 -8t5 -15q0 -15 -9 -26t-22 -18t-27.5 -10t-25.5 -3q-20 0 -36 5.5t-30.5 12t-30.5 12t-36 5.5z" />
    <glyph glyph-name="odieresis" unicode="&#xf6;" horiz-adv-x="468" 
d="M173 666q15 0 25.5 -10t10.5 -26q0 -15 -10.5 -26t-25.5 -11q-16 0 -26.5 11t-10.5 26q0 16 10.5 26t26.5 10zM296 666q16 0 26 -10t10 -26q0 -15 -10 -26t-26 -11t-26.5 11t-10.5 26q0 16 10.5 26t26.5 10zM233 479q38 0 72.5 -14.5t61 -40t42 -59.5t15.5 -73v-109
q0 -37 -15.5 -71.5t-42 -60.5t-61 -42t-72.5 -16t-72 15.5t-60 42t-41.5 60.5t-15.5 72v109q0 37 15 71t40.5 60t60 41t73.5 15zM359 292q0 24 -10 47t-27 40.5t-40 28.5t-49 11t-49 -11t-39.5 -28.5t-26 -40.5t-9.5 -47v-109q0 -25 9.5 -48.5t26.5 -41.5t39.5 -29t48.5 -11
t49 11t40 29t27 41.5t10 48.5v109z" />
    <glyph glyph-name="divide" unicode="&#xf7;" horiz-adv-x="451" 
d="M41 240q0 12 7 20t18 8h319q10 0 18 -8t8 -20q0 -13 -8 -20.5t-18 -7.5h-319q-25 0 -25 28zM222 125q20 0 34.5 -14t14.5 -34t-14.5 -34.5t-34.5 -14.5t-34.5 14.5t-14.5 34.5t14.5 34t34.5 14zM222 452q20 0 34.5 -14t14.5 -34t-14.5 -34t-34.5 -14t-34.5 14t-14.5 34
t14.5 34t34.5 14z" />
    <glyph glyph-name="oslash" unicode="&#xf8;" horiz-adv-x="468" 
d="M233 479q26 0 50.5 -7t46.5 -20l28 48q5 9 15 9q8 0 15 -6t7 -16q0 -8 -4 -13l-27 -47q27 -26 43.5 -60.5t16.5 -74.5v-109q0 -37 -15.5 -71.5t-42 -60.5t-61 -42t-72.5 -16q-56 0 -101 31l-27 -46q-6 -10 -17 -10q-8 0 -14 5.5t-6 13.5q0 6 4 11l29 51q-26 26 -41.5 61
t-15.5 73v109q0 37 15 71t40.5 60t60 41t73.5 15zM359 292q0 21 -7.5 41t-20.5 37l-169 -293q32 -24 71 -24q26 0 49 11t40 29t27 41.5t10 48.5v109zM109 183q0 -43 25 -77l166 292q-32 21 -67 21q-26 0 -49 -11t-39.5 -28.5t-26 -40.5t-9.5 -47v-109z" />
    <glyph glyph-name="ugrave" unicode="&#xf9;" 
d="M248 -7q-39 0 -74 15.5t-60.5 41.5t-40.5 60t-15 71v267q0 9 9.5 17t23.5 8q13 0 22.5 -8t9.5 -17v-267q0 -24 9.5 -47t26.5 -41t40 -29t49 -11t48.5 10.5t39.5 28.5t27 41t10 48v268q0 10 9.5 17t23.5 7t23 -7t9 -17v-268q0 -38 -15 -72t-41 -59.5t-60.5 -41
t-73.5 -15.5zM179 651q-13 6 -13 22q0 10 6.5 19t17.5 9q4 0 9 -3l111 -61q11 -6 11 -18q0 -11 -7.5 -19.5t-18.5 -8.5q-6 0 -10 3z" />
    <glyph glyph-name="uacute" unicode="&#xfa;" 
d="M210 594q-5 -3 -10 -3q-11 0 -18.5 8.5t-7.5 19.5q0 12 11 18l112 61q3 3 8 3q11 0 17.5 -9t6.5 -19q0 -16 -12 -22zM248 -7q-39 0 -74 15.5t-60.5 41.5t-40.5 60t-15 71v267q0 9 9.5 17t23.5 8q13 0 22.5 -8t9.5 -17v-267q0 -24 9.5 -47t26.5 -41t40 -29t49 -11
t48.5 10.5t39.5 28.5t27 41t10 48v268q0 10 9.5 17t23.5 7t23 -7t9 -17v-268q0 -38 -15 -72t-41 -59.5t-60.5 -41t-73.5 -15.5z" />
    <glyph glyph-name="ucircumflex" unicode="&#xfb;" 
d="M144 595q-2 -1 -4.5 -2t-4.5 -1q-8 0 -14.5 7.5t-6.5 18.5q0 6 3 12t10 10l104 56q8 5 17 5t17 -5l104 -56q7 -3 10 -9.5t3 -13.5q0 -10 -6 -17t-14 -7q-2 0 -5 1t-5 2l-104 55zM248 -7q-39 0 -74 15.5t-60.5 41.5t-40.5 60t-15 71v267q0 9 9.5 17t23.5 8q13 0 22.5 -8
t9.5 -17v-267q0 -24 9.5 -47t26.5 -41t40 -29t49 -11t48.5 10.5t39.5 28.5t27 41t10 48v268q0 10 9.5 17t23.5 7t23 -7t9 -17v-268q0 -38 -15 -72t-41 -59.5t-60.5 -41t-73.5 -15.5z" />
    <glyph glyph-name="udieresis" unicode="&#xfc;" 
d="M187 666q15 0 25.5 -10t10.5 -26q0 -15 -10.5 -26t-25.5 -11q-16 0 -26.5 11t-10.5 26q0 16 10.5 26t26.5 10zM310 666q16 0 26 -10t10 -26q0 -15 -10 -26t-26 -11t-26.5 11t-10.5 26q0 16 10.5 26t26.5 10zM248 -7q-39 0 -74 15.5t-60.5 41.5t-40.5 60t-15 71v267
q0 9 9.5 17t23.5 8q13 0 22.5 -8t9.5 -17v-267q0 -24 9.5 -47t26.5 -41t40 -29t49 -11t48.5 10.5t39.5 28.5t27 41t10 48v268q0 10 9.5 17t23.5 7t23 -7t9 -17v-268q0 -38 -15 -72t-41 -59.5t-60.5 -41t-73.5 -15.5z" />
    <glyph glyph-name="yacute" unicode="&#xfd;" horiz-adv-x="420" 
d="M17 439q-3 4 -3 9q0 13 13.5 22t26.5 9q8 0 14.5 -3t8.5 -11l137 -368l129 368q6 14 22 14q12 0 26 -9t14 -23v-4t-2 -4l-155 -420q-15 -41 -32.5 -85t-41.5 -81t-55.5 -61t-73.5 -24q-13 0 -21.5 6t-8.5 23q0 11 4.5 20.5t15.5 9.5q24 0 46 15.5t41 42t34 61.5t24 74z
M180 594q-5 -3 -10 -3q-11 0 -18.5 8.5t-7.5 19.5q0 12 11 18l112 61q3 3 8 3q11 0 17.5 -9t6.5 -19q0 -16 -12 -22z" />
    <glyph glyph-name="thorn" unicode="&#xfe;" horiz-adv-x="485" 
d="M96 763q14 0 23.5 -6.5t9.5 -17.5v-336q17 29 50 52.5t82 23.5q37 0 70 -14.5t57.5 -40t38.5 -59.5t14 -73v-109q0 -37 -14.5 -71.5t-39 -60.5t-56.5 -42t-67 -16q-46 0 -82 23t-53 54v-277q0 -9 -9.5 -17t-23.5 -8t-23 8t-9 17v946q0 11 9 17.5t23 6.5zM376 292
q0 24 -10 47t-27 40.5t-40 28.5t-49 11q-23 0 -44.5 -8.5t-38.5 -25t-27.5 -40t-10.5 -53.5v-140q0 -11 9 -28t25.5 -33t39 -27t49.5 -11q25 0 47.5 11t39.5 29t27 41.5t10 48.5v109z" />
    <glyph glyph-name="ydieresis" unicode="&#xff;" horiz-adv-x="420" 
d="M17 439q-3 4 -3 9q0 13 13.5 22t26.5 9q8 0 14.5 -3t8.5 -11l137 -368l129 368q6 14 22 14q12 0 26 -9t14 -23v-4t-2 -4l-155 -420q-15 -41 -32.5 -85t-41.5 -81t-55.5 -61t-73.5 -24q-13 0 -21.5 6t-8.5 23q0 11 4.5 20.5t15.5 9.5q24 0 46 15.5t41 42t34 61.5t24 74z
M152 666q15 0 25.5 -10t10.5 -26q0 -15 -10.5 -26t-25.5 -11q-16 0 -26.5 11t-10.5 26q0 16 10.5 26t26.5 10zM275 666q16 0 26 -10t10 -26q0 -15 -10 -26t-26 -11t-26.5 11t-10.5 26q0 16 10.5 26t26.5 10z" />
    <glyph glyph-name="Amacron" unicode="&#x100;" horiz-adv-x="540" 
d="M59 0q-13 0 -25.5 7.5t-12.5 20.5q0 5 1 7l209 679q4 12 15 17.5t24 5.5q14 0 25 -6t15 -17l208 -679q0 -2 0.5 -3t0.5 -3q0 -12 -13 -20.5t-27 -8.5q-19 0 -25 17l-46 154h-277l-46 -154q-2 -9 -9.5 -13t-16.5 -4zM391 228l-121 403l-122 -403h243zM137 914q0 11 7 18.5
t18 7.5h215q9 0 17 -7.5t8 -18.5t-8 -18t-17 -7h-215q-11 0 -18 7t-7 18z" />
    <glyph glyph-name="amacron" unicode="&#x101;" horiz-adv-x="438" 
d="M198 479q50 0 84.5 -16t56 -43t31 -62t9.5 -72v-260q0 -11 -9 -18.5t-23 -7.5q-13 0 -21.5 7.5t-8.5 18.5v44q-26 -30 -63 -53.5t-88 -23.5q-29 0 -53.5 8t-43 24.5t-29 41t-10.5 58.5q0 41 17 67.5t47.5 42t73.5 21.5t95 6h51v24q0 24 -6.5 48t-20.5 43.5t-36.5 32
t-54.5 12.5q-25 0 -42.5 -4.5t-30 -10t-20.5 -10t-14 -4.5q-13 0 -19.5 12t-6.5 23q0 10 12 19t31.5 16t43.5 11.5t48 4.5zM314 217h-42q-35 0 -66.5 -2.5t-56.5 -11.5t-39.5 -26t-14.5 -46q0 -44 25 -63.5t62 -19.5q24 0 47.5 10t42.5 25.5t30.5 34t11.5 35.5v64zM81 660
q0 11 7 18.5t18 7.5h215q9 0 17 -7.5t8 -18.5t-8 -18t-17 -7h-215q-11 0 -18 7t-7 18z" />
    <glyph glyph-name="Abreve" unicode="&#x102;" horiz-adv-x="540" 
d="M59 0q-13 0 -25.5 7.5t-12.5 20.5q0 5 1 7l209 679q4 12 15 17.5t24 5.5q14 0 25 -6t15 -17l208 -679q0 -2 0.5 -3t0.5 -3q0 -12 -13 -20.5t-27 -8.5q-19 0 -25 17l-46 154h-277l-46 -154q-2 -9 -9.5 -13t-16.5 -4zM391 228l-121 403l-122 -403h243zM386 968
q0 -24 -9.5 -45t-26 -37t-37.5 -25.5t-43 -9.5q-23 0 -44.5 9.5t-37.5 25.5t-25.5 37t-9.5 45h44q0 -35 22 -58t51 -23t50.5 23t21.5 58h44z" />
    <glyph glyph-name="abreve" unicode="&#x103;" horiz-adv-x="438" 
d="M198 479q50 0 84.5 -16t56 -43t31 -62t9.5 -72v-260q0 -11 -9 -18.5t-23 -7.5q-13 0 -21.5 7.5t-8.5 18.5v44q-26 -30 -63 -53.5t-88 -23.5q-29 0 -53.5 8t-43 24.5t-29 41t-10.5 58.5q0 41 17 67.5t47.5 42t73.5 21.5t95 6h51v24q0 24 -6.5 48t-20.5 43.5t-36.5 32
t-54.5 12.5q-25 0 -42.5 -4.5t-30 -10t-20.5 -10t-14 -4.5q-13 0 -19.5 12t-6.5 23q0 10 12 19t31.5 16t43.5 11.5t48 4.5zM314 217h-42q-35 0 -66.5 -2.5t-56.5 -11.5t-39.5 -26t-14.5 -46q0 -44 25 -63.5t62 -19.5q24 0 47.5 10t42.5 25.5t30.5 34t11.5 35.5v64zM329 714
q0 -24 -9.5 -45t-26 -37t-37.5 -25.5t-43 -9.5q-23 0 -44.5 9.5t-37.5 25.5t-25.5 37t-9.5 45h44q0 -35 22 -58t51 -23t50.5 23t21.5 58h44z" />
    <glyph glyph-name="Aogonek" unicode="&#x104;" horiz-adv-x="540" 
d="M485 -166q20 0 20 -18q0 -8 -5.5 -12.5t-19.5 -4.5q-18 0 -35.5 4t-31 13t-22 23.5t-8.5 34.5q0 40 20 75t52 64q0 1 -0.5 2t-0.5 2l-46 154h-277l-46 -154q-2 -9 -9.5 -13t-16.5 -4q-13 0 -25.5 7.5t-12.5 20.5q0 5 1 7l209 679q4 12 15 17.5t24 5.5q14 0 25 -6t15 -17
l208 -679q0 -2 0.5 -3t0.5 -3q0 -8 -7 -15t-16 -11q-31 -26 -52 -57t-21 -67q0 -24 16.5 -34.5t45.5 -10.5zM391 228l-121 403l-122 -403h243z" />
    <glyph glyph-name="aogonek" unicode="&#x105;" horiz-adv-x="438" 
d="M353 -166q20 0 20 -18q0 -8 -5.5 -12.5t-19.5 -4.5q-18 0 -35.5 4t-31 13t-22 23.5t-8.5 34.5q0 39 19 74t51 64q-4 5 -4 14v44q-26 -30 -63 -53.5t-88 -23.5q-29 0 -53.5 8t-43 24.5t-29 41t-10.5 58.5q0 41 17 67.5t47.5 42t73.5 21.5t95 6h51v24q0 24 -6.5 48
t-20.5 43.5t-36.5 32t-54.5 12.5q-25 0 -42.5 -4.5t-30 -10t-20.5 -10t-14 -4.5q-13 0 -19.5 12t-6.5 23q0 10 12 19t31.5 16t43.5 11.5t48 4.5q50 0 84.5 -16t56 -43t31 -62t9.5 -72v-260q0 -15 -15 -23q-31 -26 -52 -57t-21 -67q0 -24 16.5 -34.5t45.5 -10.5zM314 217h-42
q-35 0 -66.5 -2.5t-56.5 -11.5t-39.5 -26t-14.5 -46q0 -44 25 -63.5t62 -19.5q24 0 47.5 10t42.5 25.5t30.5 34t11.5 35.5v64z" />
    <glyph glyph-name="Cacute" unicode="&#x106;" horiz-adv-x="523" 
d="M241 848q-5 -3 -10 -3q-11 0 -18.5 8.5t-7.5 19.5q0 12 11 18l112 61q3 3 8 3q11 0 17.5 -9t6.5 -19q0 -16 -12 -22zM418 549q-1 16 -6 37t-20 39.5t-42 31.5t-72 13q-70 0 -107 -37t-37 -115v-310q0 -79 37.5 -116t110.5 -37q45 0 71 12.5t39.5 31t18.5 40t7 39.5
q3 26 33 26q17 0 25 -8t8 -33q0 -34 -14 -64.5t-41 -54t-66 -37t-88 -13.5q-42 0 -80 11.5t-66 37t-44.5 66t-16.5 99.5v310q0 58 17 98.5t45.5 66t66.5 37t81 11.5q49 0 87.5 -13.5t64.5 -36.5t40 -53t14 -64q0 -25 -8 -32.5t-25 -7.5t-24.5 7t-8.5 18z" />
    <glyph glyph-name="cacute" unicode="&#x107;" horiz-adv-x="411" 
d="M180 594q-5 -3 -10 -3q-11 0 -18.5 8.5t-7.5 19.5q0 12 11 18l112 61q3 3 8 3q11 0 17.5 -9t6.5 -19q0 -16 -12 -22zM240 -7q-50 0 -86.5 14.5t-60.5 40t-35.5 60t-11.5 75.5v107q0 40 11.5 74.5t35 60t60 40t86.5 14.5q32 0 58 -6.5t44.5 -16t28.5 -21t10 -21.5
q0 -11 -8.5 -21.5t-20.5 -10.5q-7 0 -14.5 6t-19.5 12.5t-30 12.5t-45 6q-66 0 -98.5 -34.5t-32.5 -94.5v-107q0 -61 33 -95.5t99 -34.5q29 0 47.5 6t30.5 13t19.5 13t15.5 6q14 0 22 -10.5t8 -21.5q0 -10 -10.5 -21.5t-29.5 -21.5t-46 -16.5t-60 -6.5z" />
    <glyph glyph-name="Ccircumflex" unicode="&#x108;" horiz-adv-x="523" 
d="M172 849q-2 -1 -4.5 -2t-4.5 -1q-8 0 -14.5 7.5t-6.5 18.5q0 6 3 12t10 10l104 56q8 5 17 5t17 -5l104 -56q7 -3 10 -9.5t3 -13.5q0 -10 -6 -17t-14 -7q-2 0 -5 1t-5 2l-104 55zM418 549q-1 16 -6 37t-20 39.5t-42 31.5t-72 13q-70 0 -107 -37t-37 -115v-310
q0 -79 37.5 -116t110.5 -37q45 0 71 12.5t39.5 31t18.5 40t7 39.5q3 26 33 26q17 0 25 -8t8 -33q0 -34 -14 -64.5t-41 -54t-66 -37t-88 -13.5q-42 0 -80 11.5t-66 37t-44.5 66t-16.5 99.5v310q0 58 17 98.5t45.5 66t66.5 37t81 11.5q49 0 87.5 -13.5t64.5 -36.5t40 -53
t14 -64q0 -25 -8 -32.5t-25 -7.5t-24.5 7t-8.5 18z" />
    <glyph glyph-name="ccircumflex" unicode="&#x109;" horiz-adv-x="411" 
d="M115 595q-2 -1 -4.5 -2t-4.5 -1q-8 0 -14.5 7.5t-6.5 18.5q0 6 3 12t10 10l104 56q8 5 17 5t17 -5l104 -56q7 -3 10 -9.5t3 -13.5q0 -10 -6 -17t-14 -7q-2 0 -5 1t-5 2l-104 55zM240 -7q-50 0 -86.5 14.5t-60.5 40t-35.5 60t-11.5 75.5v107q0 40 11.5 74.5t35 60t60 40
t86.5 14.5q32 0 58 -6.5t44.5 -16t28.5 -21t10 -21.5q0 -11 -8.5 -21.5t-20.5 -10.5q-7 0 -14.5 6t-19.5 12.5t-30 12.5t-45 6q-66 0 -98.5 -34.5t-32.5 -94.5v-107q0 -61 33 -95.5t99 -34.5q29 0 47.5 6t30.5 13t19.5 13t15.5 6q14 0 22 -10.5t8 -21.5q0 -10 -10.5 -21.5
t-29.5 -21.5t-46 -16.5t-60 -6.5z" />
    <glyph glyph-name="Cdotaccent" unicode="&#x10a;" horiz-adv-x="523" 
d="M418 549q-1 16 -6 37t-20 39.5t-42 31.5t-72 13q-70 0 -107 -37t-37 -115v-310q0 -79 37.5 -116t110.5 -37q45 0 71 12.5t39.5 31t18.5 40t7 39.5q3 26 33 26q17 0 25 -8t8 -33q0 -34 -14 -64.5t-41 -54t-66 -37t-88 -13.5q-42 0 -80 11.5t-66 37t-44.5 66t-16.5 99.5
v310q0 58 17 98.5t45.5 66t66.5 37t81 11.5q49 0 87.5 -13.5t64.5 -36.5t40 -53t14 -64q0 -25 -8 -32.5t-25 -7.5t-24.5 7t-8.5 18zM277 920q15 0 25.5 -10t10.5 -26q0 -15 -10.5 -26t-25.5 -11q-16 0 -26.5 11t-10.5 26q0 16 10.5 26t26.5 10z" />
    <glyph glyph-name="cdotaccent" unicode="&#x10b;" horiz-adv-x="411" 
d="M240 -7q-50 0 -86.5 14.5t-60.5 40t-35.5 60t-11.5 75.5v107q0 40 11.5 74.5t35 60t60 40t86.5 14.5q32 0 58 -6.5t44.5 -16t28.5 -21t10 -21.5q0 -11 -8.5 -21.5t-20.5 -10.5q-7 0 -14.5 6t-19.5 12.5t-30 12.5t-45 6q-66 0 -98.5 -34.5t-32.5 -94.5v-107
q0 -61 33 -95.5t99 -34.5q29 0 47.5 6t30.5 13t19.5 13t15.5 6q14 0 22 -10.5t8 -21.5q0 -10 -10.5 -21.5t-29.5 -21.5t-46 -16.5t-60 -6.5zM218 666q15 0 25.5 -10t10.5 -26q0 -15 -10.5 -26t-25.5 -11q-16 0 -26.5 11t-10.5 26q0 16 10.5 26t26.5 10z" />
    <glyph glyph-name="Ccaron" unicode="&#x10c;" horiz-adv-x="523" 
d="M275 887l99 92q6 6 15 6q8 0 13.5 -7t5.5 -15q0 -13 -12 -23l-101 -90q-12 -10 -20 -10q-10 0 -20 10l-101 90q-13 10 -13 23q0 8 5.5 15t13.5 7q9 0 15 -6zM418 549q-1 16 -6 37t-20 39.5t-42 31.5t-72 13q-70 0 -107 -37t-37 -115v-310q0 -79 37.5 -116t110.5 -37
q45 0 71 12.5t39.5 31t18.5 40t7 39.5q3 26 33 26q17 0 25 -8t8 -33q0 -34 -14 -64.5t-41 -54t-66 -37t-88 -13.5q-42 0 -80 11.5t-66 37t-44.5 66t-16.5 99.5v310q0 58 17 98.5t45.5 66t66.5 37t81 11.5q49 0 87.5 -13.5t64.5 -36.5t40 -53t14 -64q0 -25 -8 -32.5t-25 -7.5
t-24.5 7t-8.5 18z" />
    <glyph glyph-name="ccaron" unicode="&#x10d;" horiz-adv-x="411" 
d="M217 633l99 92q6 6 15 6q8 0 13.5 -7t5.5 -15q0 -13 -12 -23l-101 -90q-12 -10 -20 -10q-10 0 -20 10l-101 90q-13 10 -13 23q0 8 5.5 15t13.5 7q9 0 15 -6zM240 -7q-50 0 -86.5 14.5t-60.5 40t-35.5 60t-11.5 75.5v107q0 40 11.5 74.5t35 60t60 40t86.5 14.5
q32 0 58 -6.5t44.5 -16t28.5 -21t10 -21.5q0 -11 -8.5 -21.5t-20.5 -10.5q-7 0 -14.5 6t-19.5 12.5t-30 12.5t-45 6q-66 0 -98.5 -34.5t-32.5 -94.5v-107q0 -61 33 -95.5t99 -34.5q29 0 47.5 6t30.5 13t19.5 13t15.5 6q14 0 22 -10.5t8 -21.5q0 -10 -10.5 -21.5t-29.5 -21.5
t-46 -16.5t-60 -6.5z" />
    <glyph glyph-name="Dcaron" unicode="&#x10e;" horiz-adv-x="560" 
d="M277 887l99 92q6 6 15 6q8 0 13.5 -7t5.5 -15q0 -13 -12 -23l-101 -90q-12 -10 -20 -10q-10 0 -20 10l-101 90q-13 10 -13 23q0 8 5.5 15t13.5 7q9 0 15 -6zM283 731q44 0 82 -11.5t66.5 -37t44.5 -66t16 -98.5v-304q0 -59 -16 -99.5t-44.5 -66t-66.5 -37t-82 -11.5h-177
q-14 0 -22 7.5t-8 17.5v682q0 10 8 17t22 7h177zM142 670v-609h141q67 0 105 37.5t38 115.5v304q0 78 -38 115t-105 37h-141z" />
    <glyph glyph-name="dcaron" unicode="&#x10f;" horiz-adv-x="484" 
d="M526 741q19 0 32.5 -13.5t13.5 -32.5q0 -23 -41 -113q-5 -12 -18 -12q-8 0 -16 5.5t-8 15.5q0 6 2 9l19 52q-14 5 -22 17t-8 26q0 19 13 32.5t33 13.5zM390 763q14 0 22.5 -6.5t8.5 -17.5v-713q0 -10 -8.5 -18t-22.5 -8q-13 0 -22 8t-9 18v44q-17 -31 -53.5 -54
t-83.5 -23q-36 0 -68 16t-56 42t-38.5 60.5t-14.5 71.5v109q0 39 14 73t38.5 59.5t57 40t69.5 14.5q50 0 83 -23.5t49 -52.5v336q0 11 10 17.5t24 6.5zM110 183q0 -25 10 -48.5t27 -41.5t39.5 -29t47.5 -11q26 0 48.5 11t39 27t25.5 33t9 28v140q0 30 -10.5 53.5t-27.5 40
t-39 25t-44 8.5q-26 0 -48.5 -11t-39.5 -28.5t-27 -40.5t-10 -47v-109z" />
    <glyph glyph-name="Dcroat" unicode="&#x110;" horiz-adv-x="569" 
d="M292 731q44 0 82 -11.5t66.5 -37t44.5 -66t16 -98.5v-304q0 -59 -16 -99.5t-44.5 -66t-66.5 -37t-82 -11.5h-177q-14 0 -22 7.5t-8 17.5v332h-63q-11 0 -17 8t-6 19t6 19t17 8h63v296q0 10 8 17t22 7h177zM151 670v-259h113q10 0 16.5 -8t6.5 -19t-6.5 -19t-16.5 -8h-113
v-296h141q67 0 105 37.5t38 115.5v304q0 78 -38 115t-105 37h-141z" />
    <glyph glyph-name="dcroat" unicode="&#x111;" horiz-adv-x="484" 
d="M390 763q14 0 22.5 -6.5t8.5 -17.5v-112h49q10 0 16.5 -8t6.5 -19t-6.5 -18.5t-16.5 -7.5h-49v-548q0 -10 -8.5 -18t-22.5 -8q-13 0 -22 8t-9 18v44q-17 -31 -53.5 -54t-83.5 -23q-36 0 -68 16t-56 42t-38.5 60.5t-14.5 71.5v109q0 39 14 73t38.5 59.5t57 40t69.5 14.5
q50 0 83 -23.5t49 -52.5v171h-118q-11 0 -17 7.5t-6 18.5t6 19t17 8h118v112q0 11 10 17.5t24 6.5zM110 183q0 -25 10 -48.5t27 -41.5t39.5 -29t47.5 -11q26 0 48.5 11t39 27t25.5 33t9 28v140q0 30 -10.5 53.5t-27.5 40t-39 25t-44 8.5q-26 0 -48.5 -11t-39.5 -28.5
t-27 -40.5t-10 -47v-109z" />
    <glyph glyph-name="Emacron" unicode="&#x112;" horiz-adv-x="508" 
d="M142 395h157q12 0 18.5 -9t6.5 -21q0 -10 -5.5 -18.5t-19.5 -8.5h-157v-277h320q12 0 18.5 -9.5t6.5 -21.5q0 -11 -5.5 -20.5t-19.5 -9.5h-356q-11 0 -20.5 6.5t-9.5 19.5v680q0 13 9.5 19t20.5 6h356q14 0 19.5 -9t5.5 -20q0 -13 -6.5 -22.5t-18.5 -9.5h-320v-275z
M150 914q0 11 7 18.5t18 7.5h215q9 0 17 -7.5t8 -18.5t-8 -18t-17 -7h-215q-11 0 -18 7t-7 18z" />
    <glyph glyph-name="emacron" unicode="&#x113;" horiz-adv-x="458" 
d="M236 479q37 0 71 -13.5t59.5 -37.5t41 -57.5t15.5 -73.5q0 -29 -7.5 -45t-19.5 -24t-28 -9.5t-32 -1.5h-226v-37q0 -60 43 -95t109 -35q30 0 49 6t32 13.5t22 14t17 6.5q12 0 20 -11t8 -20t-10.5 -20.5t-30 -21.5t-47 -17t-62.5 -7q-47 0 -86.5 13.5t-68 38.5t-44.5 60
t-16 78v112q0 37 15 70.5t41 59t61 40t74 14.5zM310 265q30 0 40 6.5t10 27.5q0 24 -9 46.5t-25.5 40.5t-39.5 28.5t-51 10.5q-26 0 -48.5 -9.5t-39.5 -26t-27 -39t-10 -47.5v-38h200zM103 660q0 11 7 18.5t18 7.5h215q9 0 17 -7.5t8 -18.5t-8 -18t-17 -7h-215q-11 0 -18 7
t-7 18z" />
    <glyph glyph-name="Ebreve" unicode="&#x114;" horiz-adv-x="508" 
d="M142 395h157q12 0 18.5 -9t6.5 -21q0 -10 -5.5 -18.5t-19.5 -8.5h-157v-277h320q12 0 18.5 -9.5t6.5 -21.5q0 -11 -5.5 -20.5t-19.5 -9.5h-356q-11 0 -20.5 6.5t-9.5 19.5v680q0 13 9.5 19t20.5 6h356q14 0 19.5 -9t5.5 -20q0 -13 -6.5 -22.5t-18.5 -9.5h-320v-275z
M397 968q0 -24 -9.5 -45t-26 -37t-37.5 -25.5t-43 -9.5q-23 0 -44.5 9.5t-37.5 25.5t-25.5 37t-9.5 45h44q0 -35 22 -58t51 -23t50.5 23t21.5 58h44z" />
    <glyph glyph-name="ebreve" unicode="&#x115;" horiz-adv-x="458" 
d="M236 479q37 0 71 -13.5t59.5 -37.5t41 -57.5t15.5 -73.5q0 -29 -7.5 -45t-19.5 -24t-28 -9.5t-32 -1.5h-226v-37q0 -60 43 -95t109 -35q30 0 49 6t32 13.5t22 14t17 6.5q12 0 20 -11t8 -20t-10.5 -20.5t-30 -21.5t-47 -17t-62.5 -7q-47 0 -86.5 13.5t-68 38.5t-44.5 60
t-16 78v112q0 37 15 70.5t41 59t61 40t74 14.5zM310 265q30 0 40 6.5t10 27.5q0 24 -9 46.5t-25.5 40.5t-39.5 28.5t-51 10.5q-26 0 -48.5 -9.5t-39.5 -26t-27 -39t-10 -47.5v-38h200zM351 714q0 -24 -9.5 -45t-26 -37t-37.5 -25.5t-43 -9.5q-23 0 -44.5 9.5t-37.5 25.5
t-25.5 37t-9.5 45h44q0 -35 22 -58t51 -23t50.5 23t21.5 58h44z" />
    <glyph glyph-name="Edotaccent" unicode="&#x116;" horiz-adv-x="508" 
d="M142 395h157q12 0 18.5 -9t6.5 -21q0 -10 -5.5 -18.5t-19.5 -8.5h-157v-277h320q12 0 18.5 -9.5t6.5 -21.5q0 -11 -5.5 -20.5t-19.5 -9.5h-356q-11 0 -20.5 6.5t-9.5 19.5v680q0 13 9.5 19t20.5 6h356q14 0 19.5 -9t5.5 -20q0 -13 -6.5 -22.5t-18.5 -9.5h-320v-275z
M285 920q15 0 25.5 -10t10.5 -26q0 -15 -10.5 -26t-25.5 -11q-16 0 -26.5 11t-10.5 26q0 16 10.5 26t26.5 10z" />
    <glyph glyph-name="edotaccent" unicode="&#x117;" horiz-adv-x="458" 
d="M236 479q37 0 71 -13.5t59.5 -37.5t41 -57.5t15.5 -73.5q0 -29 -7.5 -45t-19.5 -24t-28 -9.5t-32 -1.5h-226v-37q0 -60 43 -95t109 -35q30 0 49 6t32 13.5t22 14t17 6.5q12 0 20 -11t8 -20t-10.5 -20.5t-30 -21.5t-47 -17t-62.5 -7q-47 0 -86.5 13.5t-68 38.5t-44.5 60
t-16 78v112q0 37 15 70.5t41 59t61 40t74 14.5zM310 265q30 0 40 6.5t10 27.5q0 24 -9 46.5t-25.5 40.5t-39.5 28.5t-51 10.5q-26 0 -48.5 -9.5t-39.5 -26t-27 -39t-10 -47.5v-38h200zM236 666q15 0 25.5 -10t10.5 -26q0 -15 -10.5 -26t-25.5 -11q-16 0 -26.5 11t-10.5 26
q0 16 10.5 26t26.5 10z" />
    <glyph glyph-name="Eogonek" unicode="&#x118;" horiz-adv-x="508" 
d="M142 395h157q12 0 18.5 -9t6.5 -21q0 -10 -5.5 -18.5t-19.5 -8.5h-157v-277h320q12 0 18.5 -9.5t6.5 -21.5q0 -8 -3.5 -16t-11.5 -12q-30 -26 -50.5 -57t-20.5 -66q0 -24 16.5 -34.5t45.5 -10.5q20 0 20 -18q0 -8 -5.5 -12.5t-19.5 -4.5q-18 0 -35.5 4t-31 13t-22 23.5
t-8.5 34.5q0 35 16 67t42 59h-313q-11 0 -20.5 6.5t-9.5 19.5v680q0 13 9.5 19t20.5 6h356q14 0 19.5 -9t5.5 -20q0 -13 -6.5 -22.5t-18.5 -9.5h-320v-275z" />
    <glyph glyph-name="eogonek" unicode="&#x119;" horiz-adv-x="458" 
d="M236 479q37 0 71 -13.5t59.5 -37.5t41 -57.5t15.5 -73.5q0 -29 -7.5 -45t-19.5 -24t-28 -9.5t-32 -1.5h-226v-37q0 -60 43 -95t109 -35q30 0 49 6t32 13.5t22 14t17 6.5q12 0 20 -11t8 -20q0 -22 -44 -44q-28 -26 -46.5 -54.5t-18.5 -62.5q0 -24 16.5 -34.5t45.5 -10.5
q20 0 20 -18q0 -8 -5.5 -12.5t-19.5 -4.5q-18 0 -35.5 4t-31 13t-22 23.5t-8.5 34.5q0 28 10 54t28 49q-18 -3 -39 -3q-47 0 -86.5 13.5t-68 38.5t-44.5 60t-16 78v112q0 37 15 70.5t41 59t61 40t74 14.5zM310 265q30 0 40 6.5t10 27.5q0 24 -9 46.5t-25.5 40.5t-39.5 28.5
t-51 10.5q-26 0 -48.5 -9.5t-39.5 -26t-27 -39t-10 -47.5v-38h200z" />
    <glyph glyph-name="Ecaron" unicode="&#x11a;" horiz-adv-x="508" 
d="M280 887l99 92q6 6 15 6q8 0 13.5 -7t5.5 -15q0 -13 -12 -23l-101 -90q-12 -10 -20 -10q-10 0 -20 10l-101 90q-13 10 -13 23q0 8 5.5 15t13.5 7q9 0 15 -6zM142 395h157q12 0 18.5 -9t6.5 -21q0 -10 -5.5 -18.5t-19.5 -8.5h-157v-277h320q12 0 18.5 -9.5t6.5 -21.5
q0 -11 -5.5 -20.5t-19.5 -9.5h-356q-11 0 -20.5 6.5t-9.5 19.5v680q0 13 9.5 19t20.5 6h356q14 0 19.5 -9t5.5 -20q0 -13 -6.5 -22.5t-18.5 -9.5h-320v-275z" />
    <glyph glyph-name="ecaron" unicode="&#x11b;" horiz-adv-x="458" 
d="M235 633l99 92q6 6 15 6q8 0 13.5 -7t5.5 -15q0 -13 -12 -23l-101 -90q-12 -10 -20 -10q-10 0 -20 10l-101 90q-13 10 -13 23q0 8 5.5 15t13.5 7q9 0 15 -6zM236 479q37 0 71 -13.5t59.5 -37.5t41 -57.5t15.5 -73.5q0 -29 -7.5 -45t-19.5 -24t-28 -9.5t-32 -1.5h-226v-37
q0 -60 43 -95t109 -35q30 0 49 6t32 13.5t22 14t17 6.5q12 0 20 -11t8 -20t-10.5 -20.5t-30 -21.5t-47 -17t-62.5 -7q-47 0 -86.5 13.5t-68 38.5t-44.5 60t-16 78v112q0 37 15 70.5t41 59t61 40t74 14.5zM310 265q30 0 40 6.5t10 27.5q0 24 -9 46.5t-25.5 40.5t-39.5 28.5
t-51 10.5q-26 0 -48.5 -9.5t-39.5 -26t-27 -39t-10 -47.5v-38h200z" />
    <glyph glyph-name="Gcircumflex" unicode="&#x11c;" horiz-adv-x="541" 
d="M168 849q-2 -1 -4.5 -2t-4.5 -1q-8 0 -14.5 7.5t-6.5 18.5q0 6 3 12t10 10l104 56q8 5 17 5t17 -5l104 -56q7 -3 10 -9.5t3 -13.5q0 -10 -6 -17t-14 -7q-2 0 -5 1t-5 2l-104 55zM418 549q-7 58 -41.5 89.5t-100.5 31.5q-67 0 -104.5 -37t-37.5 -115v-310
q0 -78 37.5 -115.5t104.5 -37.5t104.5 37.5t37.5 115.5v119h-134q-11 0 -17.5 9t-6.5 20t6.5 19.5t17.5 8.5h176q12 0 18 -7.5t6 -18.5v-150q0 -59 -16 -99.5t-44 -66t-66 -37t-82 -11.5t-82 11.5t-66 37t-44 66t-16 99.5v310q0 58 16 98.5t44 66t65.5 37t81.5 11.5
q48 0 86.5 -13t66 -36t42 -55t14.5 -69q0 -20 -9 -27t-24 -7q-13 0 -22.5 5.5t-10.5 19.5z" />
    <glyph glyph-name="gcircumflex" unicode="&#x11d;" horiz-adv-x="452" 
d="M129 595q-2 -1 -4.5 -2t-4.5 -1q-8 0 -14.5 7.5t-6.5 18.5q0 6 3 12t10 10l104 56q8 5 17 5t17 -5l104 -56q7 -3 10 -9.5t3 -13.5q0 -10 -6 -17t-14 -7q-2 0 -5 1t-5 2l-104 55zM221 111q-41 0 -77 17q-11 -6 -21 -14.5t-10 -24.5q0 -23 23 -32t57.5 -14t75 -9t75 -16.5
t57.5 -37.5t23 -70q0 -35 -14.5 -61.5t-40.5 -44.5t-62 -27t-79 -9q-44 0 -81 9t-64 26.5t-42.5 42t-15.5 55.5q0 22 7 39t19 30.5t27.5 23.5t31.5 16q-24 8 -39.5 23.5t-15.5 45.5q0 28 13.5 44t36.5 28q-26 22 -40.5 54.5t-14.5 71.5v38q0 36 12 66t34.5 52t54.5 34t71 12
q35 0 65 -11t52 -31q15 30 34.5 46.5t36.5 16.5q15 0 22.5 -8.5t7.5 -17.5t-5 -14.5t-12 -7.5q-12 -2 -27 -11t-29 -32q14 -19 21 -43.5t7 -50.5v-38q0 -36 -13 -66t-36 -52.5t-55 -35t-70 -12.5zM331 315q0 49 -28.5 82t-80.5 33t-80.5 -33t-28.5 -82v-37q0 -51 29 -84.5
t81 -33.5q51 0 79.5 33t28.5 84v38zM361 -92q0 31 -20 47.5t-48.5 24.5t-60 10.5t-55.5 5.5q-35 -11 -62 -32t-27 -57q0 -41 37 -66t102 -25q63 0 98.5 25t35.5 67z" />
    <glyph glyph-name="Gbreve" unicode="&#x11e;" horiz-adv-x="541" 
d="M418 549q-7 58 -41.5 89.5t-100.5 31.5q-67 0 -104.5 -37t-37.5 -115v-310q0 -78 37.5 -115.5t104.5 -37.5t104.5 37.5t37.5 115.5v119h-134q-11 0 -17.5 9t-6.5 20t6.5 19.5t17.5 8.5h176q12 0 18 -7.5t6 -18.5v-150q0 -59 -16 -99.5t-44 -66t-66 -37t-82 -11.5
t-82 11.5t-66 37t-44 66t-16 99.5v310q0 58 16 98.5t44 66t65.5 37t81.5 11.5q48 0 86.5 -13t66 -36t42 -55t14.5 -69q0 -20 -9 -27t-24 -7q-13 0 -22.5 5.5t-10.5 19.5zM392 968q0 -24 -9.5 -45t-26 -37t-37.5 -25.5t-43 -9.5q-23 0 -44.5 9.5t-37.5 25.5t-25.5 37t-9.5 45
h44q0 -35 22 -58t51 -23t50.5 23t21.5 58h44z" />
    <glyph glyph-name="gbreve" unicode="&#x11f;" horiz-adv-x="452" 
d="M221 111q-41 0 -77 17q-11 -6 -21 -14.5t-10 -24.5q0 -23 23 -32t57.5 -14t75 -9t75 -16.5t57.5 -37.5t23 -70q0 -35 -14.5 -61.5t-40.5 -44.5t-62 -27t-79 -9q-44 0 -81 9t-64 26.5t-42.5 42t-15.5 55.5q0 22 7 39t19 30.5t27.5 23.5t31.5 16q-24 8 -39.5 23.5
t-15.5 45.5q0 28 13.5 44t36.5 28q-26 22 -40.5 54.5t-14.5 71.5v38q0 36 12 66t34.5 52t54.5 34t71 12q35 0 65 -11t52 -31q15 30 34.5 46.5t36.5 16.5q15 0 22.5 -8.5t7.5 -17.5t-5 -14.5t-12 -7.5q-12 -2 -27 -11t-29 -32q14 -19 21 -43.5t7 -50.5v-38q0 -36 -13 -66
t-36 -52.5t-55 -35t-70 -12.5zM331 315q0 49 -28.5 82t-80.5 33t-80.5 -33t-28.5 -82v-37q0 -51 29 -84.5t81 -33.5q51 0 79.5 33t28.5 84v38zM361 -92q0 31 -20 47.5t-48.5 24.5t-60 10.5t-55.5 5.5q-35 -11 -62 -32t-27 -57q0 -41 37 -66t102 -25q63 0 98.5 25t35.5 67z
M349 714q0 -24 -9.5 -45t-26 -37t-37.5 -25.5t-43 -9.5q-23 0 -44.5 9.5t-37.5 25.5t-25.5 37t-9.5 45h44q0 -35 22 -58t51 -23t50.5 23t21.5 58h44z" />
    <glyph glyph-name="Gdotaccent" unicode="&#x120;" horiz-adv-x="541" 
d="M418 549q-7 58 -41.5 89.5t-100.5 31.5q-67 0 -104.5 -37t-37.5 -115v-310q0 -78 37.5 -115.5t104.5 -37.5t104.5 37.5t37.5 115.5v119h-134q-11 0 -17.5 9t-6.5 20t6.5 19.5t17.5 8.5h176q12 0 18 -7.5t6 -18.5v-150q0 -59 -16 -99.5t-44 -66t-66 -37t-82 -11.5
t-82 11.5t-66 37t-44 66t-16 99.5v310q0 58 16 98.5t44 66t65.5 37t81.5 11.5q48 0 86.5 -13t66 -36t42 -55t14.5 -69q0 -20 -9 -27t-24 -7q-13 0 -22.5 5.5t-10.5 19.5zM276 920q15 0 25.5 -10t10.5 -26q0 -15 -10.5 -26t-25.5 -11q-16 0 -26.5 11t-10.5 26q0 16 10.5 26
t26.5 10z" />
    <glyph glyph-name="gdotaccent" unicode="&#x121;" horiz-adv-x="452" 
d="M221 111q-41 0 -77 17q-11 -6 -21 -14.5t-10 -24.5q0 -23 23 -32t57.5 -14t75 -9t75 -16.5t57.5 -37.5t23 -70q0 -35 -14.5 -61.5t-40.5 -44.5t-62 -27t-79 -9q-44 0 -81 9t-64 26.5t-42.5 42t-15.5 55.5q0 22 7 39t19 30.5t27.5 23.5t31.5 16q-24 8 -39.5 23.5
t-15.5 45.5q0 28 13.5 44t36.5 28q-26 22 -40.5 54.5t-14.5 71.5v38q0 36 12 66t34.5 52t54.5 34t71 12q35 0 65 -11t52 -31q15 30 34.5 46.5t36.5 16.5q15 0 22.5 -8.5t7.5 -17.5t-5 -14.5t-12 -7.5q-12 -2 -27 -11t-29 -32q14 -19 21 -43.5t7 -50.5v-38q0 -36 -13 -66
t-36 -52.5t-55 -35t-70 -12.5zM331 315q0 49 -28.5 82t-80.5 33t-80.5 -33t-28.5 -82v-37q0 -51 29 -84.5t81 -33.5q51 0 79.5 33t28.5 84v38zM361 -92q0 31 -20 47.5t-48.5 24.5t-60 10.5t-55.5 5.5q-35 -11 -62 -32t-27 -57q0 -41 37 -66t102 -25q63 0 98.5 25t35.5 67z
M233 666q15 0 25.5 -10t10.5 -26q0 -15 -10.5 -26t-25.5 -11q-16 0 -26.5 11t-10.5 26q0 16 10.5 26t26.5 10z" />
    <glyph glyph-name="Gcommaaccent" unicode="&#x122;" horiz-adv-x="541" 
d="M233 -155q-6 -3 -11 -3q-11 0 -18 8.5t-7 19.5q0 12 11 18l111 62q6 2 9 2q11 0 17.5 -9t6.5 -19q0 -15 -13 -22zM418 549q-7 58 -41.5 89.5t-100.5 31.5q-67 0 -104.5 -37t-37.5 -115v-310q0 -78 37.5 -115.5t104.5 -37.5t104.5 37.5t37.5 115.5v119h-134q-11 0 -17.5 9
t-6.5 20t6.5 19.5t17.5 8.5h176q12 0 18 -7.5t6 -18.5v-150q0 -59 -16 -99.5t-44 -66t-66 -37t-82 -11.5t-82 11.5t-66 37t-44 66t-16 99.5v310q0 58 16 98.5t44 66t65.5 37t81.5 11.5q48 0 86.5 -13t66 -36t42 -55t14.5 -69q0 -20 -9 -27t-24 -7q-13 0 -22.5 5.5
t-10.5 19.5z" />
    <glyph glyph-name="gcommaaccent" unicode="&#x123;" horiz-adv-x="452" 
d="M189 594q-5 -3 -10 -3q-11 0 -18.5 8.5t-7.5 19.5q0 12 11 18l112 61q3 3 8 3q11 0 17.5 -9t6.5 -19q0 -16 -12 -22zM221 111q-41 0 -77 17q-11 -6 -21 -14.5t-10 -24.5q0 -23 23 -32t57.5 -14t75 -9t75 -16.5t57.5 -37.5t23 -70q0 -35 -14.5 -61.5t-40.5 -44.5t-62 -27
t-79 -9q-44 0 -81 9t-64 26.5t-42.5 42t-15.5 55.5q0 22 7 39t19 30.5t27.5 23.5t31.5 16q-24 8 -39.5 23.5t-15.5 45.5q0 28 13.5 44t36.5 28q-26 22 -40.5 54.5t-14.5 71.5v38q0 36 12 66t34.5 52t54.5 34t71 12q35 0 65 -11t52 -31q15 30 34.5 46.5t36.5 16.5
q15 0 22.5 -8.5t7.5 -17.5t-5 -14.5t-12 -7.5q-12 -2 -27 -11t-29 -32q14 -19 21 -43.5t7 -50.5v-38q0 -36 -13 -66t-36 -52.5t-55 -35t-70 -12.5zM331 315q0 49 -28.5 82t-80.5 33t-80.5 -33t-28.5 -82v-37q0 -51 29 -84.5t81 -33.5q51 0 79.5 33t28.5 84v38zM361 -92
q0 31 -20 47.5t-48.5 24.5t-60 10.5t-55.5 5.5q-35 -11 -62 -32t-27 -57q0 -41 37 -66t102 -25q63 0 98.5 25t35.5 67zM227 829q-19 0 -32 13.5t-13 32.5q0 11 10 40t30 73q6 12 18 12q8 0 16 -5.5t8 -15.5q0 -5 -1 -8l-20 -52q14 -5 22 -17t8 -26q0 -20 -13 -33.5
t-33 -13.5z" />
    <glyph glyph-name="Hcircumflex" unicode="&#x124;" horiz-adv-x="573" 
d="M183 849q-2 -1 -4.5 -2t-4.5 -1q-8 0 -14.5 7.5t-6.5 18.5q0 6 3 12t10 10l104 56q8 5 17 5t17 -5l104 -56q7 -3 10 -9.5t3 -13.5q0 -10 -6 -17t-14 -7q-2 0 -5 1t-5 2l-104 55zM431 351h-289v-325q0 -13 -10.5 -19.5t-22.5 -6.5q-13 0 -23 6.5t-10 19.5v681
q0 13 10 18.5t23 5.5q12 0 22.5 -5.5t10.5 -18.5v-299h289v299q0 13 10 18.5t23 5.5q12 0 22.5 -5.5t10.5 -18.5v-681q0 -13 -10.5 -19.5t-22.5 -6.5q-13 0 -23 6.5t-10 19.5v325z" />
    <glyph glyph-name="hcircumflex" unicode="&#x125;" 
d="M-8 850q-2 -1 -4.5 -2t-4.5 -1q-8 0 -14.5 7.5t-6.5 18.5q0 6 3 12t10 10l104 56q8 5 17 5t17 -5l104 -56q7 -3 10 -9.5t3 -13.5q0 -10 -6 -17t-14 -7q-2 0 -5 1t-5 2l-104 55zM128 26q0 -10 -9.5 -18t-23.5 -8t-23 8t-9 18v713q0 11 9 17.5t23 6.5t23.5 -6.5t9.5 -17.5
v-336q16 29 49 52.5t83 23.5q36 0 68 -14.5t56.5 -40t38.5 -59.5t14 -73v-266q0 -13 -10 -19.5t-23 -6.5q-11 0 -21.5 6.5t-10.5 19.5v266q0 24 -10 47t-26.5 40.5t-39.5 28.5t-48 11q-22 0 -43.5 -8.5t-38.5 -25t-27.5 -40t-10.5 -53.5v-266z" />
    <glyph glyph-name="Hbar" unicode="&#x126;" horiz-adv-x="573" 
d="M431 351h-289v-325q0 -13 -10.5 -19.5t-22.5 -6.5q-13 0 -23 6.5t-10 19.5v514h-35q-11 0 -16.5 7.5t-5.5 17.5q0 11 5.5 18.5t16.5 7.5h35v116q0 13 10 18.5t23 5.5q12 0 22.5 -5.5t10.5 -18.5v-116h289v116q0 13 10 18.5t23 5.5q12 0 22.5 -5.5t10.5 -18.5v-116h33
q10 0 16.5 -7.5t6.5 -18.5t-6.5 -18t-16.5 -7h-33v-514q0 -13 -10.5 -19.5t-22.5 -6.5q-13 0 -23 6.5t-10 19.5v325zM431 408v132h-289v-132h289z" />
    <glyph glyph-name="hbar" unicode="&#x127;" 
d="M9 605q0 11 7 18.5t18 7.5h29v108q0 11 9 17.5t23 6.5t23.5 -6.5t9.5 -17.5v-108h121q9 0 17 -7.5t8 -18.5t-8 -18t-17 -7h-121v-177q16 29 49 52.5t83 23.5q36 0 68 -14.5t56.5 -40t38.5 -59.5t14 -73v-266q0 -13 -10 -19.5t-23 -6.5q-11 0 -21.5 6.5t-10.5 19.5v266
q0 24 -10 47t-26.5 40.5t-39.5 28.5t-48 11q-22 0 -43.5 -8.5t-38.5 -25t-27.5 -40t-10.5 -53.5v-266q0 -10 -9.5 -18t-23.5 -8t-23 8t-9 18v554h-29q-11 0 -18 7t-7 18z" />
    <glyph glyph-name="Itilde" unicode="&#x128;" horiz-adv-x="218" 
d="M76 707q0 13 10 18.5t23 5.5q12 0 22.5 -5.5t10.5 -18.5v-681q0 -13 -10.5 -19.5t-22.5 -6.5q-13 0 -23 6.5t-10 19.5v681zM47 898q-16 0 -27.5 -5t-19.5 -11t-14.5 -11t-12.5 -5q-10 0 -14.5 8.5t-4.5 16.5q0 14 9 24.5t22.5 18t29 11t27.5 3.5q19 0 35 -5.5t31 -11.5
t30.5 -11.5t35.5 -5.5q17 0 27.5 4.5t17.5 10t12.5 10t12.5 4.5q10 0 15 -8t5 -15q0 -15 -9 -26t-22 -18t-27.5 -10t-25.5 -3q-20 0 -36 5.5t-30.5 12t-30.5 12t-36 5.5z" />
    <glyph glyph-name="itilde" unicode="&#x129;" horiz-adv-x="191" 
d="M95 473q14 0 23.5 -6.5t9.5 -17.5v-423q0 -10 -9.5 -18t-23.5 -8t-23 8t-9 18v423q0 11 9 17.5t23 6.5zM33 644q-16 0 -27.5 -5t-19.5 -11t-14.5 -11t-12.5 -5q-10 0 -14.5 8.5t-4.5 16.5q0 14 9 24.5t22.5 18t29 11t27.5 3.5q19 0 35 -5.5t31 -11.5t30.5 -11.5
t35.5 -5.5q17 0 27.5 4.5t17.5 10t12.5 10t12.5 4.5q10 0 15 -8t5 -15q0 -15 -9 -26t-22 -18t-27.5 -10t-25.5 -3q-20 0 -36 5.5t-30.5 12t-30.5 12t-36 5.5z" />
    <glyph glyph-name="Imacron" unicode="&#x12a;" horiz-adv-x="218" 
d="M76 707q0 13 10 18.5t23 5.5q12 0 22.5 -5.5t10.5 -18.5v-681q0 -13 -10.5 -19.5t-22.5 -6.5q-13 0 -23 6.5t-10 19.5v681zM-24 914q0 11 7 18.5t18 7.5h215q9 0 17 -7.5t8 -18.5t-8 -18t-17 -7h-215q-11 0 -18 7t-7 18z" />
    <glyph glyph-name="imacron" unicode="&#x12b;" horiz-adv-x="191" 
d="M95 473q14 0 23.5 -6.5t9.5 -17.5v-423q0 -10 -9.5 -18t-23.5 -8t-23 8t-9 18v423q0 11 9 17.5t23 6.5zM-38 660q0 11 7 18.5t18 7.5h215q9 0 17 -7.5t8 -18.5t-8 -18t-17 -7h-215q-11 0 -18 7t-7 18z" />
    <glyph glyph-name="Ibreve" unicode="&#x12c;" horiz-adv-x="218" 
d="M76 707q0 13 10 18.5t23 5.5q12 0 22.5 -5.5t10.5 -18.5v-681q0 -13 -10.5 -19.5t-22.5 -6.5q-13 0 -23 6.5t-10 19.5v681zM225 968q0 -24 -9.5 -45t-26 -37t-37.5 -25.5t-43 -9.5q-23 0 -44.5 9.5t-37.5 25.5t-25.5 37t-9.5 45h44q0 -35 22 -58t51 -23t50.5 23t21.5 58
h44z" />
    <glyph glyph-name="ibreve" unicode="&#x12d;" horiz-adv-x="191" 
d="M95 473q14 0 23.5 -6.5t9.5 -17.5v-423q0 -10 -9.5 -18t-23.5 -8t-23 8t-9 18v423q0 11 9 17.5t23 6.5zM212 714q0 -24 -9.5 -45t-26 -37t-37.5 -25.5t-43 -9.5q-23 0 -44.5 9.5t-37.5 25.5t-25.5 37t-9.5 45h44q0 -35 22 -58t51 -23t50.5 23t21.5 58h44z" />
    <glyph glyph-name="Iogonek" unicode="&#x12e;" horiz-adv-x="218" 
d="M119 -162q20 0 20 -18q0 -8 -5.5 -12.5t-19.5 -4.5q-18 0 -35.5 4t-31 13t-22 23.5t-8.5 34.5q0 38 17.5 71t46.5 61q-5 7 -5 16v681q0 13 10 18.5t23 5.5q12 0 22.5 -5.5t10.5 -18.5v-681q0 -16 -17 -23q-29 -26 -48.5 -55.5t-19.5 -64.5q0 -24 16.5 -34.5t45.5 -10.5z
" />
    <glyph glyph-name="iogonek" unicode="&#x12f;" horiz-adv-x="191" 
d="M101 -164q20 0 20 -18q0 -8 -5.5 -12.5t-19.5 -4.5q-18 0 -35.5 4t-31 13t-22 23.5t-8.5 34.5q0 38 18.5 72.5t50.5 63.5q-5 7 -5 14v423q0 11 9 17.5t23 6.5t23.5 -6.5t9.5 -17.5v-423q0 -16 -20 -24q-29 -26 -49 -56t-20 -65q0 -24 16.5 -34.5t45.5 -10.5zM95 696
q18 0 30.5 -12t12.5 -29t-12.5 -29.5t-30.5 -12.5q-19 0 -32 12.5t-13 29.5t13 29t32 12z" />
    <glyph glyph-name="Idotaccent" unicode="&#x130;" horiz-adv-x="218" 
d="M76 707q0 13 10 18.5t23 5.5q12 0 22.5 -5.5t10.5 -18.5v-681q0 -13 -10.5 -19.5t-22.5 -6.5q-13 0 -23 6.5t-10 19.5v681zM109 920q15 0 25.5 -10t10.5 -26q0 -15 -10.5 -26t-25.5 -11q-16 0 -26.5 11t-10.5 26q0 16 10.5 26t26.5 10z" />
    <glyph glyph-name="dotlessi" unicode="&#x131;" horiz-adv-x="191" 
d="M95 473q14 0 23.5 -6.5t9.5 -17.5v-423q0 -10 -9.5 -18t-23.5 -8t-23 8t-9 18v423q0 11 9 17.5t23 6.5z" />
    <glyph glyph-name="IJ" unicode="&#x132;" horiz-adv-x="725" 
d="M76 707q0 13 10 18.5t23 5.5q12 0 22.5 -5.5t10.5 -18.5v-681q0 -13 -10.5 -19.5t-22.5 -6.5q-13 0 -23 6.5t-10 19.5v681zM445 670q-12 0 -18.5 9.5t-6.5 22.5q0 11 6 20t19 9h176q12 0 21.5 -6t9.5 -19v-498q0 -59 -16 -99.5t-44 -66t-65.5 -37t-80.5 -11.5
q-48 0 -87 13t-66 36.5t-42 56t-15 70.5q0 20 8.5 27t23.5 7q13 0 23.5 -6t10.5 -20q0 -57 38.5 -90t103.5 -33q67 0 104.5 37.5t37.5 115.5v462h-141z" />
    <glyph glyph-name="ij" unicode="&#x133;" horiz-adv-x="375" 
d="M95 473q14 0 23.5 -6.5t9.5 -17.5v-423q0 -10 -9.5 -18t-23.5 -8t-23 8t-9 18v423q0 11 9 17.5t23 6.5zM95 696q18 0 30.5 -12t12.5 -29t-12.5 -29.5t-30.5 -12.5q-19 0 -32 12.5t-13 29.5t13 29t32 12zM279 696q18 0 30.5 -12t12.5 -29t-12.5 -29.5t-30.5 -12.5
q-19 0 -32 12.5t-13 29.5t13 29t32 12zM279 473q14 0 23.5 -6.5t9.5 -17.5v-492q0 -42 -7.5 -76.5t-23 -59.5t-40.5 -39t-61 -14q-18 0 -25.5 9t-7.5 20q0 14 8 22t20 8q24 0 38 10t21.5 27t10 41t2.5 52v492q0 11 9 17.5t23 6.5z" />
    <glyph glyph-name="Jcircumflex" unicode="&#x134;" horiz-adv-x="512" 
d="M152 849q-2 -1 -4.5 -2t-4.5 -1q-8 0 -14.5 7.5t-6.5 18.5q0 6 3 12t10 10l104 56q8 5 17 5t17 -5l104 -56q7 -3 10 -9.5t3 -13.5q0 -10 -6 -17t-14 -7q-2 0 -5 1t-5 2l-104 55zM232 670q-12 0 -18.5 9.5t-6.5 22.5q0 11 6 20t19 9h176q12 0 21.5 -6t9.5 -19v-498
q0 -59 -16 -99.5t-44 -66t-65.5 -37t-80.5 -11.5q-48 0 -87 13t-66 36.5t-42 56t-15 70.5q0 20 8.5 27t23.5 7q13 0 23.5 -6t10.5 -20q0 -57 38.5 -90t103.5 -33q67 0 104.5 37.5t37.5 115.5v462h-141z" />
    <glyph glyph-name="jcircumflex" unicode="&#x135;" horiz-adv-x="191" 
d="M95 473q14 0 23.5 -6.5t9.5 -17.5v-492q0 -42 -7.5 -76.5t-23 -59.5t-40.5 -39t-61 -14q-18 0 -25.5 9t-7.5 20q0 14 8 22t20 8q24 0 38 10t21.5 27t10 41t2.5 52v492q0 11 9 17.5t23 6.5zM-8 595q-2 -1 -4.5 -2t-4.5 -1q-8 0 -14.5 7.5t-6.5 18.5q0 6 3 12t10 10l104 56
q8 5 17 5t17 -5l104 -56q7 -3 10 -9.5t3 -13.5q0 -10 -6 -17t-14 -7q-2 0 -5 1t-5 2l-104 55z" />
    <glyph glyph-name="Kcommaaccent" unicode="&#x136;" horiz-adv-x="522" 
d="M221 -155q-6 -3 -11 -3q-11 0 -18 8.5t-7 19.5q0 12 11 18l111 62q6 2 9 2q11 0 17.5 -9t6.5 -19q0 -15 -13 -22zM76 707q0 13 10 18.5t23 5.5q12 0 22.5 -5.5t10.5 -18.5v-354l289 368q7 10 21 10q12 0 24 -10.5t12 -23.5q0 -3 -1 -7t-4 -8l-215 -267l246 -370
q4 -8 4 -13q0 -14 -12 -24t-26 -10q-15 0 -25 15l-231 347l-82 -104v-230q0 -13 -10.5 -19.5t-22.5 -6.5q-13 0 -23 6.5t-10 19.5v681z" />
    <glyph glyph-name="kcommaaccent" unicode="&#x137;" horiz-adv-x="456" 
d="M187 -155q-6 -3 -11 -3q-11 0 -18 8.5t-7 19.5q0 12 11 18l111 62q6 2 9 2q11 0 17.5 -9t6.5 -19q0 -15 -13 -22zM266 297l173 -253q4 -8 4 -14q0 -11 -11 -22t-24 -11t-20 12l-168 247l-92 -81v-149q0 -10 -9.5 -18t-23.5 -8t-23 8t-9 18v713q0 11 9 17.5t23 6.5
t23.5 -6.5t9.5 -17.5v-487l244 217q4 2 7.5 4t7.5 2q12 0 22.5 -9t10.5 -22q0 -5 -1 -9.5t-6 -8.5z" />
    <glyph glyph-name="kgreenlandic" unicode="&#x138;" horiz-adv-x="456" 
d="M266 297l173 -253q4 -8 4 -14q0 -11 -11 -22t-24 -11t-20 12l-168 247l-92 -81v-149q0 -10 -9.5 -18t-23.5 -8t-23 8t-9 18v423q0 11 9 17.5t23 6.5t23.5 -6.5t9.5 -17.5v-197l244 217q4 2 7.5 4t7.5 2q12 0 22.5 -9t10.5 -22q0 -5 -1 -9.5t-6 -8.5z" />
    <glyph glyph-name="Lacute" unicode="&#x139;" horiz-adv-x="463" 
d="M218 848q-5 -3 -10 -3q-11 0 -18.5 8.5t-7.5 19.5q0 12 11 18l112 61q3 3 8 3q11 0 17.5 -9t6.5 -19q0 -16 -12 -22zM106 0q-11 0 -20.5 6.5t-9.5 19.5v681q0 13 10 18.5t23 5.5q12 0 22.5 -5.5t10.5 -18.5v-646h285q11 0 16.5 -9.5t5.5 -20.5q0 -12 -5.5 -21.5
t-16.5 -9.5h-321z" />
    <glyph glyph-name="lacute" unicode="&#x13a;" horiz-adv-x="207" 
d="M70 809q-5 -3 -10 -3q-11 0 -18.5 8.5t-7.5 19.5q0 12 11 18l112 61q3 3 8 3q11 0 17.5 -9t6.5 -19q0 -16 -12 -22zM103 763q14 0 23.5 -6.5t9.5 -17.5v-713q0 -10 -9.5 -18t-23.5 -8t-23 8t-9 18v713q0 11 9 17.5t23 6.5z" />
    <glyph glyph-name="Lcommaaccent" unicode="&#x13b;" horiz-adv-x="463" 
d="M214 -155q-6 -3 -11 -3q-11 0 -18 8.5t-7 19.5q0 12 11 18l111 62q6 2 9 2q11 0 17.5 -9t6.5 -19q0 -15 -13 -22zM106 0q-11 0 -20.5 6.5t-9.5 19.5v681q0 13 10 18.5t23 5.5q12 0 22.5 -5.5t10.5 -18.5v-646h285q11 0 16.5 -9.5t5.5 -20.5q0 -12 -5.5 -21.5t-16.5 -9.5
h-321z" />
    <glyph glyph-name="lcommaaccent" unicode="&#x13c;" horiz-adv-x="207" 
d="M65 -155q-6 -3 -11 -3q-11 0 -18 8.5t-7 19.5q0 12 11 18l111 62q6 2 9 2q11 0 17.5 -9t6.5 -19q0 -15 -13 -22zM103 763q14 0 23.5 -6.5t9.5 -17.5v-713q0 -10 -9.5 -18t-23.5 -8t-23 8t-9 18v713q0 11 9 17.5t23 6.5z" />
    <glyph glyph-name="Lcaron" unicode="&#x13d;" horiz-adv-x="463" 
d="M340 741q19 0 32.5 -13.5t13.5 -32.5q0 -23 -41 -113q-5 -12 -18 -12q-8 0 -16 5.5t-8 15.5q0 6 2 9l19 52q-14 5 -22 17t-8 26q0 19 13 32.5t33 13.5zM106 0q-11 0 -20.5 6.5t-9.5 19.5v681q0 13 10 18.5t23 5.5q12 0 22.5 -5.5t10.5 -18.5v-646h285q11 0 16.5 -9.5
t5.5 -20.5q0 -12 -5.5 -21.5t-16.5 -9.5h-321z" />
    <glyph glyph-name="lcaron" unicode="&#x13e;" horiz-adv-x="207" 
d="M246 741q19 0 32.5 -13.5t13.5 -32.5q0 -23 -41 -113q-5 -12 -18 -12q-8 0 -16 5.5t-8 15.5q0 6 2 9l19 52q-14 5 -22 17t-8 26q0 19 13 32.5t33 13.5zM103 763q14 0 23.5 -6.5t9.5 -17.5v-713q0 -10 -9.5 -18t-23.5 -8t-23 8t-9 18v713q0 11 9 17.5t23 6.5z" />
    <glyph glyph-name="Ldot" unicode="&#x13f;" horiz-adv-x="463" 
d="M106 0q-11 0 -20.5 6.5t-9.5 19.5v681q0 13 10 18.5t23 5.5q12 0 22.5 -5.5t10.5 -18.5v-646h285q11 0 16.5 -9.5t5.5 -20.5q0 -12 -5.5 -21.5t-16.5 -9.5h-321zM337 466q20 0 33.5 -13t13.5 -32q0 -18 -13.5 -31.5t-33.5 -13.5t-33.5 13.5t-13.5 31.5q0 19 13.5 32
t33.5 13z" />
    <glyph glyph-name="ldot" unicode="&#x140;" horiz-adv-x="314" 
d="M103 763q14 0 23.5 -6.5t9.5 -17.5v-713q0 -10 -9.5 -18t-23.5 -8t-23 8t-9 18v713q0 11 9 17.5t23 6.5zM258 345q20 0 33.5 -13t13.5 -32q0 -18 -13.5 -31.5t-33.5 -13.5t-33.5 13.5t-13.5 31.5q0 19 13.5 32t33.5 13z" />
    <glyph glyph-name="Lslash" unicode="&#x141;" horiz-adv-x="469" 
d="M112 0q-11 0 -20.5 6.5t-9.5 19.5v263l-45 -24q-5 -3 -10 -3q-10 0 -17.5 10t-7.5 22q0 13 11 19l69 38v356q0 13 10 18.5t23 5.5q12 0 22.5 -5.5t10.5 -18.5v-320l97 53q3 2 10 2q11 0 18.5 -9t7.5 -20q0 -14 -12 -21l-121 -67v-264h285q11 0 16.5 -9.5t5.5 -20.5
q0 -12 -5.5 -21.5t-16.5 -9.5h-321z" />
    <glyph glyph-name="lslash" unicode="&#x142;" horiz-adv-x="304" 
d="M146 763q14 0 23.5 -6.5t9.5 -17.5v-343l74 41q4 2 10 2q11 0 18.5 -9t7.5 -20q0 -15 -11 -21l-99 -55v-308q0 -10 -9.5 -18t-23.5 -8t-23 8t-9 18v273l-62 -34q-5 -3 -10 -3q-10 0 -17.5 10t-7.5 22q0 13 11 19l86 47v379q0 11 9 17.5t23 6.5z" />
    <glyph glyph-name="Nacute" unicode="&#x143;" horiz-adv-x="573" 
d="M241 848q-5 -3 -10 -3q-11 0 -18.5 8.5t-7.5 19.5q0 12 11 18l112 61q3 3 8 3q11 0 17.5 -9t6.5 -19q0 -16 -12 -22zM464 0q-14 0 -25 11.5t-19 26.5l-278 541v-553q0 -13 -10.5 -19.5t-22.5 -6.5q-13 0 -23 6.5t-10 19.5v680q0 14 10 19.5t23 5.5q18 0 30 -13.5
t22 -32.5l270 -532v554q0 13 10 18.5t23 5.5q12 0 22.5 -5.5t10.5 -18.5v-681q0 -13 -10.5 -19.5t-22.5 -6.5z" />
    <glyph glyph-name="nacute" unicode="&#x144;" 
d="M206 594q-5 -3 -10 -3q-11 0 -18.5 8.5t-7.5 19.5q0 12 11 18l112 61q3 3 8 3q11 0 17.5 -9t6.5 -19q0 -16 -12 -22zM128 26q0 -10 -9.5 -18t-23.5 -8t-23 8t-9 18v423q0 11 9 17.5t23 6.5q12 0 21 -6.5t9 -17.5v-46q16 29 49.5 52.5t84.5 23.5q36 0 68.5 -14.5t56.5 -40
t38.5 -59.5t14.5 -73v-266q0 -13 -10.5 -19.5t-22.5 -6.5q-11 0 -21.5 6.5t-10.5 19.5v266q0 24 -10 47t-27 40.5t-39.5 28.5t-48.5 11q-22 0 -43.5 -8.5t-38 -25t-27 -40t-10.5 -53.5v-266z" />
    <glyph glyph-name="Ncommaaccent" unicode="&#x145;" horiz-adv-x="573" 
d="M243 -155q-6 -3 -11 -3q-11 0 -18 8.5t-7 19.5q0 12 11 18l111 62q6 2 9 2q11 0 17.5 -9t6.5 -19q0 -15 -13 -22zM464 0q-14 0 -25 11.5t-19 26.5l-278 541v-553q0 -13 -10.5 -19.5t-22.5 -6.5q-13 0 -23 6.5t-10 19.5v680q0 14 10 19.5t23 5.5q18 0 30 -13.5t22 -32.5
l270 -532v554q0 13 10 18.5t23 5.5q12 0 22.5 -5.5t10.5 -18.5v-681q0 -13 -10.5 -19.5t-22.5 -6.5z" />
    <glyph glyph-name="ncommaaccent" unicode="&#x146;" 
d="M198 -155q-6 -3 -11 -3q-11 0 -18 8.5t-7 19.5q0 12 11 18l111 62q6 2 9 2q11 0 17.5 -9t6.5 -19q0 -15 -13 -22zM128 26q0 -10 -9.5 -18t-23.5 -8t-23 8t-9 18v423q0 11 9 17.5t23 6.5q12 0 21 -6.5t9 -17.5v-46q16 29 49.5 52.5t84.5 23.5q36 0 68.5 -14.5t56.5 -40
t38.5 -59.5t14.5 -73v-266q0 -13 -10.5 -19.5t-22.5 -6.5q-11 0 -21.5 6.5t-10.5 19.5v266q0 24 -10 47t-27 40.5t-39.5 28.5t-48.5 11q-22 0 -43.5 -8.5t-38 -25t-27 -40t-10.5 -53.5v-266z" />
    <glyph glyph-name="Ncaron" unicode="&#x147;" horiz-adv-x="573" 
d="M286 887l99 92q6 6 15 6q8 0 13.5 -7t5.5 -15q0 -13 -12 -23l-101 -90q-12 -10 -20 -10q-10 0 -20 10l-101 90q-13 10 -13 23q0 8 5.5 15t13.5 7q9 0 15 -6zM464 0q-14 0 -25 11.5t-19 26.5l-278 541v-553q0 -13 -10.5 -19.5t-22.5 -6.5q-13 0 -23 6.5t-10 19.5v680
q0 14 10 19.5t23 5.5q18 0 30 -13.5t22 -32.5l270 -532v554q0 13 10 18.5t23 5.5q12 0 22.5 -5.5t10.5 -18.5v-681q0 -13 -10.5 -19.5t-22.5 -6.5z" />
    <glyph glyph-name="ncaron" unicode="&#x148;" 
d="M244 633l99 92q6 6 15 6q8 0 13.5 -7t5.5 -15q0 -13 -12 -23l-101 -90q-12 -10 -20 -10q-10 0 -20 10l-101 90q-13 10 -13 23q0 8 5.5 15t13.5 7q9 0 15 -6zM128 26q0 -10 -9.5 -18t-23.5 -8t-23 8t-9 18v423q0 11 9 17.5t23 6.5q12 0 21 -6.5t9 -17.5v-46
q16 29 49.5 52.5t84.5 23.5q36 0 68.5 -14.5t56.5 -40t38.5 -59.5t14.5 -73v-266q0 -13 -10.5 -19.5t-22.5 -6.5q-11 0 -21.5 6.5t-10.5 19.5v266q0 24 -10 47t-27 40.5t-39.5 28.5t-48.5 11q-22 0 -43.5 -8.5t-38 -25t-27 -40t-10.5 -53.5v-266z" />
    <glyph glyph-name="Eng" unicode="&#x14a;" horiz-adv-x="573" 
d="M360 -173q24 0 38 10t21.5 27t10 41t2.5 52v45q0 7 -2.5 15t-9.5 21l-278 541v-553q0 -13 -10.5 -19.5t-22.5 -6.5q-13 0 -23 6.5t-10 19.5v680q0 14 10 19.5t23 5.5q18 0 30 -13.5t22 -32.5l270 -532v554q0 13 10 18.5t23 5.5q12 0 22.5 -5.5t10.5 -18.5v-750
q0 -42 -7.5 -76.5t-23 -59.5t-40.5 -39t-60 -14q-18 0 -26 9t-8 20q0 14 8 22t20 8z" />
    <glyph glyph-name="eng" unicode="&#x14b;" 
d="M259 479q36 0 68.5 -14.5t56.5 -40t38.5 -59.5t14.5 -73v-335q0 -42 -7.5 -76.5t-23 -59.5t-40.5 -39t-61 -14q-18 0 -25.5 9t-7.5 20q0 14 8 22t20 8q24 0 38 10t21.5 27t10 41t2.5 52v335q0 24 -10 47t-27 40.5t-39.5 28.5t-48.5 11q-22 0 -43.5 -8.5t-38 -25t-27 -40
t-10.5 -53.5v-266q0 -10 -9.5 -18t-23.5 -8t-23 8t-9 18v423q0 11 9 17.5t23 6.5q12 0 21 -6.5t9 -17.5v-46q16 29 49.5 52.5t84.5 23.5z" />
    <glyph glyph-name="Omacron" unicode="&#x14c;" horiz-adv-x="552" 
d="M144 914q0 11 7 18.5t18 7.5h215q9 0 17 -7.5t8 -18.5t-8 -18t-17 -7h-215q-11 0 -18 7t-7 18zM276 -6q-44 0 -82 11.5t-66 37t-44 66t-16 99.5v310q0 58 16 98.5t44 66t66 37t82 11.5t82 -11.5t66 -37t44 -66t16 -98.5v-310q0 -59 -16 -99.5t-44 -66t-66 -37t-82 -11.5z
M418 518q0 78 -37.5 115t-104.5 37t-104.5 -37t-37.5 -115v-310q0 -79 37.5 -116t104.5 -37t104.5 37t37.5 116v310z" />
    <glyph glyph-name="omacron" unicode="&#x14d;" horiz-adv-x="468" 
d="M101 660q0 11 7 18.5t18 7.5h215q9 0 17 -7.5t8 -18.5t-8 -18t-17 -7h-215q-11 0 -18 7t-7 18zM233 479q38 0 72.5 -14.5t61 -40t42 -59.5t15.5 -73v-109q0 -37 -15.5 -71.5t-42 -60.5t-61 -42t-72.5 -16t-72 15.5t-60 42t-41.5 60.5t-15.5 72v109q0 37 15 71t40.5 60
t60 41t73.5 15zM359 292q0 24 -10 47t-27 40.5t-40 28.5t-49 11t-49 -11t-39.5 -28.5t-26 -40.5t-9.5 -47v-109q0 -25 9.5 -48.5t26.5 -41.5t39.5 -29t48.5 -11t49 11t40 29t27 41.5t10 48.5v109z" />
    <glyph glyph-name="Obreve" unicode="&#x14e;" horiz-adv-x="552" 
d="M276 -6q-44 0 -82 11.5t-66 37t-44 66t-16 99.5v310q0 58 16 98.5t44 66t66 37t82 11.5t82 -11.5t66 -37t44 -66t16 -98.5v-310q0 -59 -16 -99.5t-44 -66t-66 -37t-82 -11.5zM418 518q0 78 -37.5 115t-104.5 37t-104.5 -37t-37.5 -115v-310q0 -79 37.5 -116t104.5 -37
t104.5 37t37.5 116v310zM392 968q0 -24 -9.5 -45t-26 -37t-37.5 -25.5t-43 -9.5q-23 0 -44.5 9.5t-37.5 25.5t-25.5 37t-9.5 45h44q0 -35 22 -58t51 -23t50.5 23t21.5 58h44z" />
    <glyph glyph-name="obreve" unicode="&#x14f;" horiz-adv-x="468" 
d="M233 479q38 0 72.5 -14.5t61 -40t42 -59.5t15.5 -73v-109q0 -37 -15.5 -71.5t-42 -60.5t-61 -42t-72.5 -16t-72 15.5t-60 42t-41.5 60.5t-15.5 72v109q0 37 15 71t40.5 60t60 41t73.5 15zM359 292q0 24 -10 47t-27 40.5t-40 28.5t-49 11t-49 -11t-39.5 -28.5t-26 -40.5
t-9.5 -47v-109q0 -25 9.5 -48.5t26.5 -41.5t39.5 -29t48.5 -11t49 11t40 29t27 41.5t10 48.5v109zM350 714q0 -24 -9.5 -45t-26 -37t-37.5 -25.5t-43 -9.5q-23 0 -44.5 9.5t-37.5 25.5t-25.5 37t-9.5 45h44q0 -35 22 -58t51 -23t50.5 23t21.5 58h44z" />
    <glyph glyph-name="Ohungarumlaut" unicode="&#x150;" horiz-adv-x="552" 
d="M207 849q-5 -5 -12 -5q-10 0 -18 7.5t-8 16.5q0 10 8 14l96 69q4 4 11 4q10 0 16.5 -8t6.5 -16q0 -12 -9 -18zM357 849q-5 -5 -12 -5q-10 0 -18 7.5t-8 16.5q0 10 8 14l96 69q4 4 11 4q10 0 16.5 -8t6.5 -16q0 -12 -9 -18zM276 -6q-44 0 -82 11.5t-66 37t-44 66t-16 99.5
v310q0 58 16 98.5t44 66t66 37t82 11.5t82 -11.5t66 -37t44 -66t16 -98.5v-310q0 -59 -16 -99.5t-44 -66t-66 -37t-82 -11.5zM418 518q0 78 -37.5 115t-104.5 37t-104.5 -37t-37.5 -115v-310q0 -79 37.5 -116t104.5 -37t104.5 37t37.5 116v310z" />
    <glyph glyph-name="ohungarumlaut" unicode="&#x151;" horiz-adv-x="468" 
d="M155 596q-5 -5 -12 -5q-10 0 -18 7.5t-8 16.5q0 10 8 14l96 69q4 4 11 4q10 0 16.5 -8t6.5 -16q0 -12 -9 -18zM305 596q-5 -5 -12 -5q-10 0 -18 7.5t-8 16.5q0 10 8 14l96 69q4 4 11 4q10 0 16.5 -8t6.5 -16q0 -12 -9 -18zM233 479q38 0 72.5 -14.5t61 -40t42 -59.5
t15.5 -73v-109q0 -37 -15.5 -71.5t-42 -60.5t-61 -42t-72.5 -16t-72 15.5t-60 42t-41.5 60.5t-15.5 72v109q0 37 15 71t40.5 60t60 41t73.5 15zM359 292q0 24 -10 47t-27 40.5t-40 28.5t-49 11t-49 -11t-39.5 -28.5t-26 -40.5t-9.5 -47v-109q0 -25 9.5 -48.5t26.5 -41.5
t39.5 -29t48.5 -11t49 11t40 29t27 41.5t10 48.5v109z" />
    <glyph glyph-name="OE" unicode="&#x152;" horiz-adv-x="840" 
d="M268 -6q-43 0 -79.5 11.5t-63.5 37t-42 66t-15 99.5v310q0 58 15 98.5t42 66t63.5 37t79.5 11.5q48 0 90 -17t66 -55v47q0 13 10 19t21 6h339q13 0 18.5 -9t5.5 -20q0 -13 -6 -22.5t-18 -9.5h-310v-275h147q12 0 18 -9t6 -21q0 -10 -5.5 -18.5t-18.5 -8.5h-147v-277h310
q12 0 18 -9.5t6 -21.5q0 -11 -5.5 -20.5t-18.5 -9.5h-339q-11 0 -21 6.5t-10 19.5v41q-24 -38 -66 -55.5t-90 -17.5zM418 518q0 78 -37.5 115t-104.5 37t-104.5 -37t-37.5 -115v-310q0 -79 37.5 -116t104.5 -37t104.5 37t37.5 116v310z" />
    <glyph glyph-name="oe" unicode="&#x153;" horiz-adv-x="771" 
d="M233 479q51 0 93.5 -26t66.5 -69q23 42 64.5 68.5t92.5 26.5q37 0 71 -13.5t59.5 -38t40.5 -57.5t15 -72q0 -29 -7 -45.5t-19 -24.5t-27.5 -9.5t-32.5 -1.5h-226v-37q0 -30 11.5 -54t31.5 -41t48.5 -26t62.5 -9q29 0 47.5 6t31 13.5t21 14t17.5 6.5q12 0 20.5 -10
t8.5 -22q0 -9 -11 -20t-31 -21t-48 -17t-61 -7q-62 0 -109 25.5t-72 70.5q-24 -42 -66 -69t-93 -27q-38 0 -72 15.5t-60 42t-41.5 60.5t-15.5 72v109q0 37 15 71t40.5 60t60 41t73.5 15zM359 292q0 24 -10 47t-27 40.5t-40 28.5t-49 11t-49 -11t-39.5 -28.5t-26 -40.5
t-9.5 -47v-109q0 -25 9.5 -48.5t26.5 -41.5t39.5 -29t48.5 -11t49 11t40 29t27 41.5t10 48.5v109zM624 265q30 0 40 6.5t10 27.5q0 24 -9 46.5t-25.5 40.5t-39.5 28.5t-51 10.5q-26 0 -48.5 -9.5t-39.5 -25.5t-27 -38t-10 -46v-41h200z" />
    <glyph glyph-name="Racute" unicode="&#x154;" horiz-adv-x="529" 
d="M249 848q-5 -3 -10 -3q-11 0 -18.5 8.5t-7.5 19.5q0 12 11 18l112 61q3 3 8 3q11 0 17.5 -9t6.5 -19q0 -16 -12 -22zM76 707q0 22 25 24h177q44 0 83 -9.5t68.5 -32.5t47 -61t17.5 -94q0 -47 -12 -80.5t-33 -57t-49.5 -36.5t-61.5 -19l154 -296q4 -5 4 -13
q0 -13 -12 -23.5t-26 -10.5q-12 0 -20.5 11.5t-14.5 23.5l-154 300h-127v-307q0 -13 -10.5 -19.5t-22.5 -6.5q-13 0 -23 6.5t-10 19.5v681zM142 670v-280h136q67 0 108.5 32.5t41.5 108.5q0 75 -41.5 107t-108.5 32h-136z" />
    <glyph glyph-name="racute" unicode="&#x155;" horiz-adv-x="331" 
d="M124 594q-5 -3 -10 -3q-11 0 -18.5 8.5t-7.5 19.5q0 12 11 18l112 61q3 3 8 3q11 0 17.5 -9t6.5 -19q0 -16 -12 -22zM260 419q-25 0 -48.5 -10t-42 -29t-30 -46t-11.5 -61v-247q0 -10 -9.5 -18t-23.5 -8t-23 8t-9 18v423q0 11 9 17.5t23 6.5q13 0 22 -6.5t9 -17.5v-49
q17 30 51 54.5t83 24.5h35q11 0 18.5 -9t7.5 -21t-7.5 -21t-18.5 -9h-35z" />
    <glyph glyph-name="Rcommaaccent" unicode="&#x156;" horiz-adv-x="529" 
d="M213 -155q-6 -3 -11 -3q-11 0 -18 8.5t-7 19.5q0 12 11 18l111 62q6 2 9 2q11 0 17.5 -9t6.5 -19q0 -15 -13 -22zM76 707q0 22 25 24h177q44 0 83 -9.5t68.5 -32.5t47 -61t17.5 -94q0 -47 -12 -80.5t-33 -57t-49.5 -36.5t-61.5 -19l154 -296q4 -5 4 -13q0 -13 -12 -23.5
t-26 -10.5q-12 0 -20.5 11.5t-14.5 23.5l-154 300h-127v-307q0 -13 -10.5 -19.5t-22.5 -6.5q-13 0 -23 6.5t-10 19.5v681zM142 670v-280h136q67 0 108.5 32.5t41.5 108.5q0 75 -41.5 107t-108.5 32h-136z" />
    <glyph glyph-name="rcommaaccent" unicode="&#x157;" horiz-adv-x="331" 
d="M35 -155q-6 -3 -11 -3q-11 0 -18 8.5t-7 19.5q0 12 11 18l111 62q6 2 9 2q11 0 17.5 -9t6.5 -19q0 -15 -13 -22zM260 419q-25 0 -48.5 -10t-42 -29t-30 -46t-11.5 -61v-247q0 -10 -9.5 -18t-23.5 -8t-23 8t-9 18v423q0 11 9 17.5t23 6.5q13 0 22 -6.5t9 -17.5v-49
q17 30 51 54.5t83 24.5h35q11 0 18.5 -9t7.5 -21t-7.5 -21t-18.5 -9h-35z" />
    <glyph glyph-name="Rcaron" unicode="&#x158;" horiz-adv-x="529" 
d="M277 887l99 92q6 6 15 6q8 0 13.5 -7t5.5 -15q0 -13 -12 -23l-101 -90q-12 -10 -20 -10q-10 0 -20 10l-101 90q-13 10 -13 23q0 8 5.5 15t13.5 7q9 0 15 -6zM76 707q0 22 25 24h177q44 0 83 -9.5t68.5 -32.5t47 -61t17.5 -94q0 -47 -12 -80.5t-33 -57t-49.5 -36.5
t-61.5 -19l154 -296q4 -5 4 -13q0 -13 -12 -23.5t-26 -10.5q-12 0 -20.5 11.5t-14.5 23.5l-154 300h-127v-307q0 -13 -10.5 -19.5t-22.5 -6.5q-13 0 -23 6.5t-10 19.5v681zM142 670v-280h136q67 0 108.5 32.5t41.5 108.5q0 75 -41.5 107t-108.5 32h-136z" />
    <glyph glyph-name="rcaron" unicode="&#x159;" horiz-adv-x="331" 
d="M161 633l99 92q6 6 15 6q8 0 13.5 -7t5.5 -15q0 -13 -12 -23l-101 -90q-12 -10 -20 -10q-10 0 -20 10l-101 90q-13 10 -13 23q0 8 5.5 15t13.5 7q9 0 15 -6zM260 419q-25 0 -48.5 -10t-42 -29t-30 -46t-11.5 -61v-247q0 -10 -9.5 -18t-23.5 -8t-23 8t-9 18v423
q0 11 9 17.5t23 6.5q13 0 22 -6.5t9 -17.5v-49q17 30 51 54.5t83 24.5h35q11 0 18.5 -9t7.5 -21t-7.5 -21t-18.5 -9h-35z" />
    <glyph glyph-name="Sacute" unicode="&#x15a;" horiz-adv-x="494" 
d="M209 848q-5 -3 -10 -3q-11 0 -18.5 8.5t-7.5 19.5q0 12 11 18l112 61q3 3 8 3q11 0 17.5 -9t6.5 -19q0 -16 -12 -22zM237 55q70 0 109.5 34.5t39.5 103.5q0 55 -24.5 86.5t-61.5 51t-80 33.5t-80 35t-61.5 56t-24.5 96q0 55 20 90t51 55.5t68.5 28.5t72.5 8q28 0 58 -4.5
t54.5 -12.5t40 -19.5t15.5 -24.5q0 -10 -7.5 -23.5t-21.5 -13.5q-7 0 -17.5 6t-26.5 13t-39.5 13t-56.5 6q-28 0 -54 -5.5t-46.5 -19t-32.5 -36t-12 -55.5q0 -46 24.5 -71.5t61.5 -42.5t80 -31t80 -38.5t61.5 -65t24.5 -109.5q0 -53 -15.5 -92t-43.5 -64.5t-67 -37.5
t-85 -12q-48 0 -86 12t-64.5 28.5t-40.5 35t-14 32.5q0 12 9.5 24.5t20.5 12.5q10 0 20 -13t28 -28.5t47 -28.5t76 -13z" />
    <glyph glyph-name="sacute" unicode="&#x15b;" horiz-adv-x="385" 
d="M150 594q-5 -3 -10 -3q-11 0 -18.5 8.5t-7.5 19.5q0 12 11 18l112 61q3 3 8 3q11 0 17.5 -9t6.5 -19q0 -16 -12 -22zM188 48q57 0 80 21t23 50q0 33 -18.5 51t-45.5 29t-59.5 19.5t-59.5 22.5t-45.5 37t-18.5 65q0 24 8.5 48t27.5 43.5t49 32t73 12.5q25 0 49 -4.5
t43 -11t30.5 -15.5t11.5 -18q0 -8 -7.5 -21t-19.5 -13q-6 0 -15 4.5t-22 9.5t-30 9.5t-39 4.5q-28 0 -47 -7.5t-31 -19t-17 -25.5t-5 -26q0 -29 18.5 -44t46 -24.5t59.5 -18t59.5 -24t46 -42t18.5 -71.5q0 -60 -42 -94.5t-119 -34.5q-35 0 -64 7t-49.5 17.5t-32 23.5
t-11.5 24q0 10 6.5 20t16.5 10q8 0 17 -7.5t23.5 -16t36 -16t55.5 -7.5z" />
    <glyph glyph-name="Scircumflex" unicode="&#x15c;" horiz-adv-x="494" 
d="M140 849q-2 -1 -4.5 -2t-4.5 -1q-8 0 -14.5 7.5t-6.5 18.5q0 6 3 12t10 10l104 56q8 5 17 5t17 -5l104 -56q7 -3 10 -9.5t3 -13.5q0 -10 -6 -17t-14 -7q-2 0 -5 1t-5 2l-104 55zM237 55q70 0 109.5 34.5t39.5 103.5q0 55 -24.5 86.5t-61.5 51t-80 33.5t-80 35t-61.5 56
t-24.5 96q0 55 20 90t51 55.5t68.5 28.5t72.5 8q28 0 58 -4.5t54.5 -12.5t40 -19.5t15.5 -24.5q0 -10 -7.5 -23.5t-21.5 -13.5q-7 0 -17.5 6t-26.5 13t-39.5 13t-56.5 6q-28 0 -54 -5.5t-46.5 -19t-32.5 -36t-12 -55.5q0 -46 24.5 -71.5t61.5 -42.5t80 -31t80 -38.5
t61.5 -65t24.5 -109.5q0 -53 -15.5 -92t-43.5 -64.5t-67 -37.5t-85 -12q-48 0 -86 12t-64.5 28.5t-40.5 35t-14 32.5q0 12 9.5 24.5t20.5 12.5q10 0 20 -13t28 -28.5t47 -28.5t76 -13z" />
    <glyph glyph-name="scircumflex" unicode="&#x15d;" horiz-adv-x="385" 
d="M84 595q-2 -1 -4.5 -2t-4.5 -1q-8 0 -14.5 7.5t-6.5 18.5q0 6 3 12t10 10l104 56q8 5 17 5t17 -5l104 -56q7 -3 10 -9.5t3 -13.5q0 -10 -6 -17t-14 -7q-2 0 -5 1t-5 2l-104 55zM188 48q57 0 80 21t23 50q0 33 -18.5 51t-45.5 29t-59.5 19.5t-59.5 22.5t-45.5 37t-18.5 65
q0 24 8.5 48t27.5 43.5t49 32t73 12.5q25 0 49 -4.5t43 -11t30.5 -15.5t11.5 -18q0 -8 -7.5 -21t-19.5 -13q-6 0 -15 4.5t-22 9.5t-30 9.5t-39 4.5q-28 0 -47 -7.5t-31 -19t-17 -25.5t-5 -26q0 -29 18.5 -44t46 -24.5t59.5 -18t59.5 -24t46 -42t18.5 -71.5q0 -60 -42 -94.5
t-119 -34.5q-35 0 -64 7t-49.5 17.5t-32 23.5t-11.5 24q0 10 6.5 20t16.5 10q8 0 17 -7.5t23.5 -16t36 -16t55.5 -7.5z" />
    <glyph glyph-name="Scedilla" unicode="&#x15e;" horiz-adv-x="494" 
d="M237 55q70 0 109.5 34.5t39.5 103.5q0 55 -24.5 86.5t-61.5 51t-80 33.5t-80 35t-61.5 56t-24.5 96q0 55 20 90t51 55.5t68.5 28.5t72.5 8q28 0 58 -4.5t54.5 -12.5t40 -19.5t15.5 -24.5q0 -10 -7.5 -23.5t-21.5 -13.5q-7 0 -17.5 6t-26.5 13t-39.5 13t-56.5 6
q-28 0 -54 -5.5t-46.5 -19t-32.5 -36t-12 -55.5q0 -46 24.5 -71.5t61.5 -42.5t80 -31t80 -38.5t61.5 -65t24.5 -109.5q0 -93 -46 -143t-120 -60l-15 -57q51 -2 73.5 -23.5t22.5 -48.5q0 -14 -5.5 -27.5t-16.5 -24.5t-27.5 -18t-39.5 -7q-10 0 -23.5 1.5t-25.5 4.5t-20.5 8
t-8.5 12q0 5 4 14.5t12 9.5q6 0 18.5 -7t37.5 -7q29 0 41 11.5t12 27.5q0 20 -17 30t-46 12l-38 3l22 83h-5q-48 0 -86 12t-64.5 28.5t-40.5 35t-14 32.5q0 12 9.5 24.5t20.5 12.5q10 0 20 -13t28 -28.5t47 -28.5t76 -13z" />
    <glyph glyph-name="scedilla" unicode="&#x15f;" horiz-adv-x="385" 
d="M188 48q57 0 80 21t23 50q0 33 -18.5 51t-45.5 29t-59.5 19.5t-59.5 22.5t-45.5 37t-18.5 65q0 24 8.5 48t27.5 43.5t49 32t73 12.5q25 0 49 -4.5t43 -11t30.5 -15.5t11.5 -18q0 -8 -7.5 -21t-19.5 -13q-6 0 -15 4.5t-22 9.5t-30 9.5t-39 4.5q-28 0 -47 -7.5t-31 -19
t-17 -25.5t-5 -26q0 -29 18.5 -44t46 -24.5t59.5 -18t59.5 -24t46 -42t18.5 -71.5q0 -54 -33.5 -87t-95.5 -40l-15 -56q51 -2 73.5 -23.5t22.5 -48.5q0 -14 -5.5 -27.5t-16.5 -24.5t-27.5 -18t-39.5 -7q-10 0 -23.5 1.5t-25.5 4.5t-20.5 8t-8.5 12q0 5 4 14.5t12 9.5
q6 0 18.5 -7t37.5 -7q29 0 41 11.5t12 27.5q0 20 -17 30t-46 12l-38 3l22 83q-34 1 -61.5 8.5t-47 18t-30 22.5t-10.5 23q0 10 6.5 20t16.5 10q8 0 17 -7.5t23.5 -16t36 -16t55.5 -7.5z" />
    <glyph glyph-name="Scaron" unicode="&#x160;" horiz-adv-x="494" 
d="M244 887l99 92q6 6 15 6q8 0 13.5 -7t5.5 -15q0 -13 -12 -23l-101 -90q-12 -10 -20 -10q-10 0 -20 10l-101 90q-13 10 -13 23q0 8 5.5 15t13.5 7q9 0 15 -6zM237 55q70 0 109.5 34.5t39.5 103.5q0 55 -24.5 86.5t-61.5 51t-80 33.5t-80 35t-61.5 56t-24.5 96q0 55 20 90
t51 55.5t68.5 28.5t72.5 8q28 0 58 -4.5t54.5 -12.5t40 -19.5t15.5 -24.5q0 -10 -7.5 -23.5t-21.5 -13.5q-7 0 -17.5 6t-26.5 13t-39.5 13t-56.5 6q-28 0 -54 -5.5t-46.5 -19t-32.5 -36t-12 -55.5q0 -46 24.5 -71.5t61.5 -42.5t80 -31t80 -38.5t61.5 -65t24.5 -109.5
q0 -53 -15.5 -92t-43.5 -64.5t-67 -37.5t-85 -12q-48 0 -86 12t-64.5 28.5t-40.5 35t-14 32.5q0 12 9.5 24.5t20.5 12.5q10 0 20 -13t28 -28.5t47 -28.5t76 -13z" />
    <glyph glyph-name="scaron" unicode="&#x161;" horiz-adv-x="385" 
d="M189 633l99 92q6 6 15 6q8 0 13.5 -7t5.5 -15q0 -13 -12 -23l-101 -90q-12 -10 -20 -10q-10 0 -20 10l-101 90q-13 10 -13 23q0 8 5.5 15t13.5 7q9 0 15 -6zM188 48q57 0 80 21t23 50q0 33 -18.5 51t-45.5 29t-59.5 19.5t-59.5 22.5t-45.5 37t-18.5 65q0 24 8.5 48
t27.5 43.5t49 32t73 12.5q25 0 49 -4.5t43 -11t30.5 -15.5t11.5 -18q0 -8 -7.5 -21t-19.5 -13q-6 0 -15 4.5t-22 9.5t-30 9.5t-39 4.5q-28 0 -47 -7.5t-31 -19t-17 -25.5t-5 -26q0 -29 18.5 -44t46 -24.5t59.5 -18t59.5 -24t46 -42t18.5 -71.5q0 -60 -42 -94.5t-119 -34.5
q-35 0 -64 7t-49.5 17.5t-32 23.5t-11.5 24q0 10 6.5 20t16.5 10q8 0 17 -7.5t23.5 -16t36 -16t55.5 -7.5z" />
    <glyph glyph-name="Tcommaaccent" unicode="&#x162;" horiz-adv-x="481" 
d="M199 -155q-6 -3 -11 -3q-11 0 -18 8.5t-7 19.5q0 12 11 18l111 62q6 2 9 2q11 0 17.5 -9t6.5 -19q0 -15 -13 -22zM441 731q13 0 19 -9.5t6 -20.5q0 -12 -6 -22t-19 -10h-167v-643q0 -13 -10.5 -19.5t-22.5 -6.5q-13 0 -23 6.5t-10 19.5v643h-168q-12 0 -18.5 9.5
t-6.5 21.5q0 11 6 21t19 10h401z" />
    <glyph glyph-name="tcommaaccent" unicode="&#x163;" horiz-adv-x="297" 
d="M100 -155q-6 -3 -11 -3q-11 0 -18 8.5t-7 19.5q0 12 11 18l111 62q6 2 9 2q11 0 17.5 -9t6.5 -19q0 -15 -13 -22zM126 147q0 -49 20.5 -68.5t72.5 -19.5h28q14 0 22 -9t8 -20q0 -12 -8 -21t-22 -9h-28q-78 0 -118 34.5t-40 112.5v527q0 11 10.5 17.5t21.5 6.5
q12 0 22.5 -6.5t10.5 -17.5v-201h129q10 0 16.5 -8t6.5 -19t-6.5 -19t-16.5 -8h-129v-272z" />
    <glyph glyph-name="Tcaron" unicode="&#x164;" horiz-adv-x="481" 
d="M240 887l99 92q6 6 15 6q8 0 13.5 -7t5.5 -15q0 -13 -12 -23l-101 -90q-12 -10 -20 -10q-10 0 -20 10l-101 90q-13 10 -13 23q0 8 5.5 15t13.5 7q9 0 15 -6zM441 731q13 0 19 -9.5t6 -20.5q0 -12 -6 -22t-19 -10h-167v-643q0 -13 -10.5 -19.5t-22.5 -6.5q-13 0 -23 6.5
t-10 19.5v643h-168q-12 0 -18.5 9.5t-6.5 21.5q0 11 6 21t19 10h401z" />
    <glyph glyph-name="tcaron" unicode="&#x165;" horiz-adv-x="297" 
d="M236 748q19 0 32.5 -13.5t13.5 -32.5q0 -23 -41 -113q-5 -12 -18 -12q-8 0 -16 5.5t-8 15.5q0 6 2 9l19 52q-14 5 -22 17t-8 26q0 19 13 32.5t33 13.5zM126 147q0 -49 20.5 -68.5t72.5 -19.5h28q14 0 22 -9t8 -20q0 -12 -8 -21t-22 -9h-28q-78 0 -118 34.5t-40 112.5v527
q0 11 10.5 17.5t21.5 6.5q12 0 22.5 -6.5t10.5 -17.5v-201h129q10 0 16.5 -8t6.5 -19t-6.5 -19t-16.5 -8h-129v-272z" />
    <glyph glyph-name="Tbar" unicode="&#x166;" horiz-adv-x="481" 
d="M441 731q13 0 19 -9.5t6 -20.5q0 -12 -6 -22t-19 -10h-167v-277h127q11 0 17 -8t6 -18q0 -11 -5.5 -19.5t-17.5 -8.5h-127v-312q0 -13 -10.5 -19.5t-22.5 -6.5q-13 0 -23 6.5t-10 19.5v312h-128q-11 0 -17 8t-6 19t6 19t17 8h128v277h-168q-12 0 -18.5 9.5t-6.5 21.5
q0 11 6 21t19 10h401z" />
    <glyph glyph-name="tbar" unicode="&#x167;" horiz-adv-x="300" 
d="M126 318h129q10 0 16.5 -8.5t6.5 -19.5t-6.5 -18.5t-16.5 -7.5h-129v-117q0 -49 20.5 -68.5t72.5 -19.5h28q14 0 22 -9t8 -20q0 -12 -8 -21t-22 -9h-28q-78 0 -118 34.5t-40 112.5v527q0 11 10.5 17.5t21.5 6.5q12 0 22.5 -6.5t10.5 -17.5v-201h129q10 0 16.5 -8t6.5 -19
t-6.5 -19t-16.5 -8h-129v-101z" />
    <glyph glyph-name="Utilde" unicode="&#x168;" horiz-adv-x="566" 
d="M427 707q0 13 10 18.5t23 5.5q12 0 22.5 -5.5t10.5 -18.5v-499q0 -59 -16.5 -99.5t-45 -66t-66.5 -37t-82 -11.5t-82.5 11.5t-67 37t-44.5 66t-16 99.5v499q0 13 10.5 18.5t22.5 5.5q13 0 23 -5.5t10 -18.5v-499q0 -78 38 -115.5t106 -37.5t106 37.5t38 115.5v499z
M219 898q-16 0 -27.5 -5t-19.5 -11t-14.5 -11t-12.5 -5q-10 0 -14.5 8.5t-4.5 16.5q0 14 9 24.5t22.5 18t29 11t27.5 3.5q19 0 35 -5.5t31 -11.5t30.5 -11.5t35.5 -5.5q17 0 27.5 4.5t17.5 10t12.5 10t12.5 4.5q10 0 15 -8t5 -15q0 -15 -9 -26t-22 -18t-27.5 -10t-25.5 -3
q-20 0 -36 5.5t-30.5 12t-30.5 12t-36 5.5z" />
    <glyph glyph-name="utilde" unicode="&#x169;" 
d="M248 -7q-39 0 -74 15.5t-60.5 41.5t-40.5 60t-15 71v267q0 9 9.5 17t23.5 8q13 0 22.5 -8t9.5 -17v-267q0 -24 9.5 -47t26.5 -41t40 -29t49 -11t48.5 10.5t39.5 28.5t27 41t10 48v268q0 10 9.5 17t23.5 7t23 -7t9 -17v-268q0 -38 -15 -72t-41 -59.5t-60.5 -41
t-73.5 -15.5zM186 644q-16 0 -27.5 -5t-19.5 -11t-14.5 -11t-12.5 -5q-10 0 -14.5 8.5t-4.5 16.5q0 14 9 24.5t22.5 18t29 11t27.5 3.5q19 0 35 -5.5t31 -11.5t30.5 -11.5t35.5 -5.5q17 0 27.5 4.5t17.5 10t12.5 10t12.5 4.5q10 0 15 -8t5 -15q0 -15 -9 -26t-22 -18
t-27.5 -10t-25.5 -3q-20 0 -36 5.5t-30.5 12t-30.5 12t-36 5.5z" />
    <glyph glyph-name="Umacron" unicode="&#x16a;" horiz-adv-x="566" 
d="M427 707q0 13 10 18.5t23 5.5q12 0 22.5 -5.5t10.5 -18.5v-499q0 -59 -16.5 -99.5t-45 -66t-66.5 -37t-82 -11.5t-82.5 11.5t-67 37t-44.5 66t-16 99.5v499q0 13 10.5 18.5t22.5 5.5q13 0 23 -5.5t10 -18.5v-499q0 -78 38 -115.5t106 -37.5t106 37.5t38 115.5v499z
M150 914q0 11 7 18.5t18 7.5h215q9 0 17 -7.5t8 -18.5t-8 -18t-17 -7h-215q-11 0 -18 7t-7 18z" />
    <glyph glyph-name="umacron" unicode="&#x16b;" 
d="M248 -7q-39 0 -74 15.5t-60.5 41.5t-40.5 60t-15 71v267q0 9 9.5 17t23.5 8q13 0 22.5 -8t9.5 -17v-267q0 -24 9.5 -47t26.5 -41t40 -29t49 -11t48.5 10.5t39.5 28.5t27 41t10 48v268q0 10 9.5 17t23.5 7t23 -7t9 -17v-268q0 -38 -15 -72t-41 -59.5t-60.5 -41
t-73.5 -15.5zM116 660q0 11 7 18.5t18 7.5h215q9 0 17 -7.5t8 -18.5t-8 -18t-17 -7h-215q-11 0 -18 7t-7 18z" />
    <glyph glyph-name="Ubreve" unicode="&#x16c;" horiz-adv-x="566" 
d="M427 707q0 13 10 18.5t23 5.5q12 0 22.5 -5.5t10.5 -18.5v-499q0 -59 -16.5 -99.5t-45 -66t-66.5 -37t-82 -11.5t-82.5 11.5t-67 37t-44.5 66t-16 99.5v499q0 13 10.5 18.5t22.5 5.5q13 0 23 -5.5t10 -18.5v-499q0 -78 38 -115.5t106 -37.5t106 37.5t38 115.5v499z
M398 968q0 -24 -9.5 -45t-26 -37t-37.5 -25.5t-43 -9.5q-23 0 -44.5 9.5t-37.5 25.5t-25.5 37t-9.5 45h44q0 -35 22 -58t51 -23t50.5 23t21.5 58h44z" />
    <glyph glyph-name="ubreve" unicode="&#x16d;" 
d="M248 -7q-39 0 -74 15.5t-60.5 41.5t-40.5 60t-15 71v267q0 9 9.5 17t23.5 8q13 0 22.5 -8t9.5 -17v-267q0 -24 9.5 -47t26.5 -41t40 -29t49 -11t48.5 10.5t39.5 28.5t27 41t10 48v268q0 10 9.5 17t23.5 7t23 -7t9 -17v-268q0 -38 -15 -72t-41 -59.5t-60.5 -41
t-73.5 -15.5zM364 714q0 -24 -9.5 -45t-26 -37t-37.5 -25.5t-43 -9.5q-23 0 -44.5 9.5t-37.5 25.5t-25.5 37t-9.5 45h44q0 -35 22 -58t51 -23t50.5 23t21.5 58h44z" />
    <glyph glyph-name="Uring" unicode="&#x16e;" horiz-adv-x="566" 
d="M282 1022q18 0 35 -7.5t30 -20.5t20.5 -30t7.5 -35q0 -19 -7.5 -36t-20.5 -30.5t-30 -21.5t-35 -8q-19 0 -35.5 8t-29 21.5t-20 30.5t-7.5 36q0 18 7 35t19.5 29.5t29 20.5t36.5 8zM341 929q0 21 -17.5 39.5t-40.5 18.5q-26 0 -43 -18.5t-17 -39.5q0 -24 17.5 -43.5
t42.5 -19.5q23 0 40.5 19.5t17.5 43.5zM427 707q0 13 10 18.5t23 5.5q12 0 22.5 -5.5t10.5 -18.5v-499q0 -59 -16.5 -99.5t-45 -66t-66.5 -37t-82 -11.5t-82.5 11.5t-67 37t-44.5 66t-16 99.5v499q0 13 10.5 18.5t22.5 5.5q13 0 23 -5.5t10 -18.5v-499q0 -78 38 -115.5
t106 -37.5t106 37.5t38 115.5v499z" />
    <glyph glyph-name="uring" unicode="&#x16f;" 
d="M247 768q18 0 35 -7.5t30 -20.5t20.5 -30t7.5 -35q0 -19 -7.5 -36t-20.5 -30.5t-30 -21.5t-35 -8q-19 0 -35.5 8t-29 21.5t-20 30.5t-7.5 36q0 18 7 35t19.5 29.5t29 20.5t36.5 8zM306 675q0 21 -17.5 39.5t-40.5 18.5q-26 0 -43 -18.5t-17 -39.5q0 -24 17.5 -43.5
t42.5 -19.5q23 0 40.5 19.5t17.5 43.5zM248 -7q-39 0 -74 15.5t-60.5 41.5t-40.5 60t-15 71v267q0 9 9.5 17t23.5 8q13 0 22.5 -8t9.5 -17v-267q0 -24 9.5 -47t26.5 -41t40 -29t49 -11t48.5 10.5t39.5 28.5t27 41t10 48v268q0 10 9.5 17t23.5 7t23 -7t9 -17v-268
q0 -38 -15 -72t-41 -59.5t-60.5 -41t-73.5 -15.5z" />
    <glyph glyph-name="Uhungarumlaut" unicode="&#x170;" horiz-adv-x="566" 
d="M427 707q0 13 10 18.5t23 5.5q12 0 22.5 -5.5t10.5 -18.5v-499q0 -59 -16.5 -99.5t-45 -66t-66.5 -37t-82 -11.5t-82.5 11.5t-67 37t-44.5 66t-16 99.5v499q0 13 10.5 18.5t22.5 5.5q13 0 23 -5.5t10 -18.5v-499q0 -78 38 -115.5t106 -37.5t106 37.5t38 115.5v499z
M220 849q-5 -5 -12 -5q-10 0 -18 7.5t-8 16.5q0 10 8 14l96 69q4 4 11 4q10 0 16.5 -8t6.5 -16q0 -12 -9 -18zM370 849q-5 -5 -12 -5q-10 0 -18 7.5t-8 16.5q0 10 8 14l96 69q4 4 11 4q10 0 16.5 -8t6.5 -16q0 -12 -9 -18z" />
    <glyph glyph-name="uhungarumlaut" unicode="&#x171;" 
d="M248 -7q-39 0 -74 15.5t-60.5 41.5t-40.5 60t-15 71v267q0 9 9.5 17t23.5 8q13 0 22.5 -8t9.5 -17v-267q0 -24 9.5 -47t26.5 -41t40 -29t49 -11t48.5 10.5t39.5 28.5t27 41t10 48v268q0 10 9.5 17t23.5 7t23 -7t9 -17v-268q0 -38 -15 -72t-41 -59.5t-60.5 -41
t-73.5 -15.5zM177 595q-5 -5 -12 -5q-10 0 -18 7.5t-8 16.5q0 10 8 14l96 69q4 4 11 4q10 0 16.5 -8t6.5 -16q0 -12 -9 -18zM327 595q-5 -5 -12 -5q-10 0 -18 7.5t-8 16.5q0 10 8 14l96 69q4 4 11 4q10 0 16.5 -8t6.5 -16q0 -12 -9 -18z" />
    <glyph glyph-name="Uogonek" unicode="&#x172;" horiz-adv-x="566" 
d="M427 707q0 13 10 18.5t23 5.5q12 0 22.5 -5.5t10.5 -18.5v-499q0 -90 -37.5 -139t-96.5 -65q-31 -27 -52.5 -58t-21.5 -67q0 -24 16.5 -34.5t45.5 -10.5q20 0 20 -18q0 -8 -5.5 -12.5t-19.5 -4.5q-18 0 -35.5 4t-31 13t-22 23.5t-8.5 34.5q0 34 14 64t39 57
q-4 0 -7.5 -0.5t-7.5 -0.5q-44 0 -82.5 11.5t-67 37t-44.5 66t-16 99.5v499q0 13 10.5 18.5t22.5 5.5q13 0 23 -5.5t10 -18.5v-499q0 -78 38 -115.5t106 -37.5t106 37.5t38 115.5v499z" />
    <glyph glyph-name="uogonek" unicode="&#x173;" 
d="M297 -166q20 0 20 -18q0 -8 -5.5 -12.5t-19.5 -4.5q-18 0 -35.5 4t-31 13t-22 23.5t-8.5 34.5q0 33 14 63t38 56q-39 0 -73.5 15.5t-60 41.5t-40.5 60t-15 71v267q0 9 9.5 17t23.5 8q13 0 22.5 -8t9.5 -17v-267q0 -24 9.5 -47t26.5 -41t40 -29t49 -11t48.5 10.5
t39.5 28.5t27 41t10 48v268q0 10 9.5 17t23.5 7t23 -7t9 -17v-268q0 -30 -10 -58t-27 -51.5t-41 -41t-52 -27.5q-31 -27 -52 -57.5t-21 -66.5q0 -24 16.5 -34.5t45.5 -10.5z" />
    <glyph glyph-name="Wcircumflex" unicode="&#x174;" horiz-adv-x="787" 
d="M289 849q-2 -1 -4.5 -2t-4.5 -1q-8 0 -14.5 7.5t-6.5 18.5q0 6 3 12t10 10l104 56q8 5 17 5t17 -5l104 -56q7 -3 10 -9.5t3 -13.5q0 -10 -6 -17t-14 -7q-2 0 -5 1t-5 2l-104 55zM568 18q-4 -12 -15 -18t-25 -6q-13 0 -24.5 5.5t-14.5 18.5l-95 353l-95 -353
q-3 -12 -14 -18t-25 -6t-25 5.5t-15 18.5l-197 678q-1 3 -1 8q0 12 12 19.5t26 7.5q9 0 16.5 -4.5t9.5 -12.5l173 -614l100 373q3 13 13 18t22 5t21 -5t13 -18l100 -373l173 614q2 8 9.5 12.5t16.5 4.5q14 0 26 -7.5t12 -19.5q0 -5 -1 -8z" />
    <glyph glyph-name="wcircumflex" unicode="&#x175;" horiz-adv-x="667" 
d="M229 595q-2 -1 -4.5 -2t-4.5 -1q-8 0 -14.5 7.5t-6.5 18.5q0 6 3 12t10 10l104 56q8 5 17 5t17 -5l104 -56q7 -3 10 -9.5t3 -13.5q0 -10 -6 -17t-14 -7q-2 0 -5 1t-5 2l-104 55zM491 8q-3 -9 -10.5 -12.5t-15.5 -3.5q-20 0 -27 15l-104 325l-103 -320q-6 -20 -29 -20
q-10 0 -16.5 4t-10.5 16l-156 419q-4 8 -4 15q0 12 12.5 20.5t26.5 8.5q8 0 14.5 -3.5t8.5 -11.5l128 -356l103 325q5 17 26 17q9 0 16 -3.5t10 -13.5l99 -329l131 360q2 7 8 11t14 4q13 0 26 -7.5t13 -21.5q0 -9 -4 -15z" />
    <glyph glyph-name="Ycircumflex" unicode="&#x176;" horiz-adv-x="531" 
d="M232 280q0 5 -1 8l-207 397q-3 5 -4 10t-1 8q0 13 12 20.5t24 7.5q16 0 26 -20l184 -365l185 365q10 20 26 20q12 0 24 -7.5t12 -20.5q0 -3 -1 -8t-3 -10l-208 -397q-2 -6 -2 -8v-254q0 -13 -10 -19.5t-23 -6.5q-12 0 -22.5 6.5t-10.5 19.5v254zM161 849q-2 -1 -4.5 -2
t-4.5 -1q-8 0 -14.5 7.5t-6.5 18.5q0 6 3 12t10 10l104 56q8 5 17 5t17 -5l104 -56q7 -3 10 -9.5t3 -13.5q0 -10 -6 -17t-14 -7q-2 0 -5 1t-5 2l-104 55z" />
    <glyph glyph-name="ycircumflex" unicode="&#x177;" horiz-adv-x="420" 
d="M17 439q-3 4 -3 9q0 13 13.5 22t26.5 9q8 0 14.5 -3t8.5 -11l137 -368l129 368q6 14 22 14q12 0 26 -9t14 -23v-4t-2 -4l-155 -420q-15 -41 -32.5 -85t-41.5 -81t-55.5 -61t-73.5 -24q-13 0 -21.5 6t-8.5 23q0 11 4.5 20.5t15.5 9.5q24 0 46 15.5t41 42t34 61.5t24 74z
M109 595q-2 -1 -4.5 -2t-4.5 -1q-8 0 -14.5 7.5t-6.5 18.5q0 6 3 12t10 10l104 56q8 5 17 5t17 -5l104 -56q7 -3 10 -9.5t3 -13.5q0 -10 -6 -17t-14 -7q-2 0 -5 1t-5 2l-104 55z" />
    <glyph glyph-name="Ydieresis" unicode="&#x178;" horiz-adv-x="531" 
d="M232 280q0 5 -1 8l-207 397q-3 5 -4 10t-1 8q0 13 12 20.5t24 7.5q16 0 26 -20l184 -365l185 365q10 20 26 20q12 0 24 -7.5t12 -20.5q0 -3 -1 -8t-3 -10l-208 -397q-2 -6 -2 -8v-254q0 -13 -10 -19.5t-23 -6.5q-12 0 -22.5 6.5t-10.5 19.5v254zM205 920q15 0 25.5 -10
t10.5 -26q0 -15 -10.5 -26t-25.5 -11q-16 0 -26.5 11t-10.5 26q0 16 10.5 26t26.5 10zM328 920q16 0 26 -10t10 -26q0 -15 -10 -26t-26 -11t-26.5 11t-10.5 26q0 16 10.5 26t26.5 10z" />
    <glyph glyph-name="Zacute" unicode="&#x179;" horiz-adv-x="484" 
d="M202 848q-5 -3 -10 -3q-11 0 -18.5 8.5t-7.5 19.5q0 12 11 18l112 61q3 3 8 3q11 0 17.5 -9t6.5 -19q0 -16 -12 -22zM109 61h327q13 0 19 -9.5t6 -20.5t-6 -21t-19 -10h-388q-11 0 -17.5 6.5t-6.5 16.5q0 11 6 23l333 624h-302q-12 0 -18.5 9.5t-6.5 21.5q0 11 6 20.5
t19 9.5h363q13 0 19 -6t6 -15q0 -12 -8 -26z" />
    <glyph glyph-name="zacute" unicode="&#x17a;" horiz-adv-x="401" 
d="M167 594q-5 -3 -10 -3q-11 0 -18.5 8.5t-7.5 19.5q0 12 11 18l112 61q3 3 8 3q11 0 17.5 -9t6.5 -19q0 -16 -12 -22zM354 58q10 0 17 -8.5t7 -21.5q0 -11 -6.5 -19.5t-17.5 -8.5h-303q-13 0 -20 8t-7 18q0 6 3 13t7 12l245 365h-221q-10 0 -17 8.5t-7 19.5q0 12 6.5 20.5
t17.5 8.5h283q10 0 17.5 -7t7.5 -19q0 -13 -8 -24l-246 -365h242z" />
    <glyph glyph-name="Zdotaccent" unicode="&#x17b;" horiz-adv-x="484" 
d="M109 61h327q13 0 19 -9.5t6 -20.5t-6 -21t-19 -10h-388q-11 0 -17.5 6.5t-6.5 16.5q0 11 6 23l333 624h-302q-12 0 -18.5 9.5t-6.5 21.5q0 11 6 20.5t19 9.5h363q13 0 19 -6t6 -15q0 -12 -8 -26zM239 920q15 0 25.5 -10t10.5 -26q0 -15 -10.5 -26t-25.5 -11
q-16 0 -26.5 11t-10.5 26q0 16 10.5 26t26.5 10z" />
    <glyph glyph-name="zdotaccent" unicode="&#x17c;" horiz-adv-x="401" 
d="M354 58q10 0 17 -8.5t7 -21.5q0 -11 -6.5 -19.5t-17.5 -8.5h-303q-13 0 -20 8t-7 18q0 6 3 13t7 12l245 365h-221q-10 0 -17 8.5t-7 19.5q0 12 6.5 20.5t17.5 8.5h283q10 0 17.5 -7t7.5 -19q0 -13 -8 -24l-246 -365h242zM199 666q15 0 25.5 -10t10.5 -26q0 -15 -10.5 -26
t-25.5 -11q-16 0 -26.5 11t-10.5 26q0 16 10.5 26t26.5 10z" />
    <glyph glyph-name="Zcaron" unicode="&#x17d;" horiz-adv-x="484" 
d="M236 887l99 92q6 6 15 6q8 0 13.5 -7t5.5 -15q0 -13 -12 -23l-101 -90q-12 -10 -20 -10q-10 0 -20 10l-101 90q-13 10 -13 23q0 8 5.5 15t13.5 7q9 0 15 -6zM109 61h327q13 0 19 -9.5t6 -20.5t-6 -21t-19 -10h-388q-11 0 -17.5 6.5t-6.5 16.5q0 11 6 23l333 624h-302
q-12 0 -18.5 9.5t-6.5 21.5q0 11 6 20.5t19 9.5h363q13 0 19 -6t6 -15q0 -12 -8 -26z" />
    <glyph glyph-name="zcaron" unicode="&#x17e;" horiz-adv-x="401" 
d="M198 633l99 92q6 6 15 6q8 0 13.5 -7t5.5 -15q0 -13 -12 -23l-101 -90q-12 -10 -20 -10q-10 0 -20 10l-101 90q-13 10 -13 23q0 8 5.5 15t13.5 7q9 0 15 -6zM354 58q10 0 17 -8.5t7 -21.5q0 -11 -6.5 -19.5t-17.5 -8.5h-303q-13 0 -20 8t-7 18q0 6 3 13t7 12l245 365
h-221q-10 0 -17 8.5t-7 19.5q0 12 6.5 20.5t17.5 8.5h283q10 0 17.5 -7t7.5 -19q0 -13 -8 -24l-246 -365h242z" />
    <glyph glyph-name="florin" unicode="&#x192;" horiz-adv-x="345" 
d="M163 416h144q10 0 15.5 -7.5t5.5 -17.5q0 -11 -7 -20t-18 -9h-148l-42 -302q-5 -39 -15.5 -74.5t-28 -62.5t-42 -43.5t-58.5 -16.5h-22q-11 0 -17 9t-6 20q0 14 8.5 23.5t19.5 9.5h21q16 0 29 11t22 30t15 43.5t10 50.5l73 523q5 38 24.5 71.5t48 59t63.5 40t72 14.5h20
q10 0 16 -8t6 -20q0 -14 -8 -23t-19 -9h-19q-27 0 -50.5 -10t-42 -27t-30.5 -40t-16 -48z" />
    <glyph glyph-name="AEacute" unicode="&#x1fc;" horiz-adv-x="715" 
d="M341 847q-5 -3 -10 -3q-11 0 -18.5 8.5t-7.5 19.5q0 12 11 18l112 61q3 3 8 3q11 0 17.5 -9t6.5 -19q0 -16 -12 -22zM432 395h147q12 0 18.5 -9t6.5 -21q0 -10 -5.5 -18.5t-19.5 -8.5h-147v-277h235q11 0 17.5 -9.5t6.5 -21.5q0 -11 -5.5 -20.5t-18.5 -9.5h-270
q-11 0 -21 6.5t-10 19.5v312h-229v-307q0 -14 -5.5 -22.5t-27.5 -8.5q-17 0 -24 8.5t-7 22.5v487q0 58 16 98.5t44 66t65.5 37t80.5 11.5h388q13 0 18.5 -9t5.5 -20q0 -13 -6.5 -22.5t-17.5 -9.5h-235v-275zM137 395h229v275h-87q-67 0 -104.5 -37t-37.5 -115v-123z" />
    <glyph glyph-name="aeacute" unicode="&#x1fd;" horiz-adv-x="728" 
d="M325 594q-5 -3 -10 -3q-11 0 -18.5 8.5t-7.5 19.5q0 12 11 18l112 61q3 3 8 3q11 0 17.5 -9t6.5 -19q0 -16 -12 -22zM504 479q32 0 65.5 -11t60.5 -34.5t44.5 -60t17.5 -87.5q0 -23 -4.5 -36.5t-15 -20.5t-27 -9.5t-40.5 -2.5h-224v-37q0 -30 11 -54t31 -41t47.5 -26
t59.5 -9q28 0 47.5 6t33 13.5t23 14t17.5 6.5q11 0 19.5 -10t8.5 -21q0 -12 -14 -23.5t-36.5 -21t-51 -15.5t-57.5 -6q-57 0 -104.5 26.5t-72.5 75.5q-32 -54 -79.5 -78t-92.5 -24q-28 0 -53.5 8t-45 24.5t-31 41t-11.5 58.5q0 41 16.5 67.5t47 42t73.5 21.5t95 6h51v24
q0 25 -6.5 49.5t-20.5 44t-37 31.5t-56 12q-24 0 -41.5 -4.5t-29.5 -10t-20.5 -10t-14.5 -4.5q-11 0 -18.5 11.5t-7.5 22.5q0 10 12 19t31.5 16.5t44 12t48.5 4.5q60 0 97 -26t56 -68q23 41 63.5 67t90.5 26zM579 265q32 0 41 6.5t9 25.5q0 25 -9 48t-25.5 41t-39.5 28.5
t-51 10.5q-26 0 -48.5 -9.5t-39 -26t-26 -38.5t-9.5 -47v-39h198zM313 217h-43q-35 0 -66.5 -2.5t-55.5 -11.5t-38.5 -26.5t-14.5 -47.5q0 -41 25 -61t61 -20q26 0 50 10.5t42 26t29 34t11 34.5v64z" />
    <glyph glyph-name="Oslashacute" unicode="&#x1fe;" horiz-adv-x="552" 
d="M464 769q10 0 19.5 -7.5t9.5 -19.5q0 -8 -4 -13l-39 -77q16 -25 25 -58t9 -76v-310q0 -59 -16 -99.5t-44 -66t-66 -37t-82 -11.5q-42 0 -77.5 10t-63.5 33l-25 -49q-3 -8 -9.5 -11.5t-14.5 -3.5q-11 0 -18.5 7.5t-7.5 17.5q0 6 3 12l35 69q-30 48 -30 129v310
q0 58 16 98.5t44 66t66 37t82 11.5q39 0 73.5 -9.5t61.5 -29.5l33 65q3 7 8.5 9.5t11.5 2.5zM418 518q0 17 -2 31t-5 27l-245 -478q36 -43 110 -43q67 0 104.5 37t37.5 116v310zM134 208q0 -30 4 -50l242 475q-36 37 -104 37q-67 0 -104.5 -37t-37.5 -115v-310zM241 848
q-5 -3 -10 -3q-11 0 -18.5 8.5t-7.5 19.5q0 12 11 18l112 61q3 3 8 3q11 0 17.5 -9t6.5 -19q0 -16 -12 -22z" />
    <glyph glyph-name="oslashacute" unicode="&#x1ff;" horiz-adv-x="468" 
d="M233 479q26 0 50.5 -7t46.5 -20l28 48q5 9 15 9q8 0 15 -6t7 -16q0 -8 -4 -13l-27 -47q27 -26 43.5 -60.5t16.5 -74.5v-109q0 -37 -15.5 -71.5t-42 -60.5t-61 -42t-72.5 -16q-56 0 -101 31l-27 -46q-6 -10 -17 -10q-8 0 -14 5.5t-6 13.5q0 6 4 11l29 51q-26 26 -41.5 61
t-15.5 73v109q0 37 15 71t40.5 60t60 41t73.5 15zM359 292q0 21 -7.5 41t-20.5 37l-169 -293q32 -24 71 -24q26 0 49 11t40 29t27 41.5t10 48.5v109zM109 183q0 -43 25 -77l166 292q-32 21 -67 21q-26 0 -49 -11t-39.5 -28.5t-26 -40.5t-9.5 -47v-109zM204 594q-5 -3 -10 -3
q-11 0 -18.5 8.5t-7.5 19.5q0 12 11 18l112 61q3 3 8 3q11 0 17.5 -9t6.5 -19q0 -16 -12 -22z" />
    <glyph glyph-name="Scommaaccent" unicode="&#x218;" horiz-adv-x="494" 
d="M217 -155q-6 -3 -11 -3q-11 0 -18 8.5t-7 19.5q0 12 11 18l111 62q6 2 9 2q11 0 17.5 -9t6.5 -19q0 -15 -13 -22zM237 55q70 0 109.5 34.5t39.5 103.5q0 55 -24.5 86.5t-61.5 51t-80 33.5t-80 35t-61.5 56t-24.5 96q0 55 20 90t51 55.5t68.5 28.5t72.5 8q28 0 58 -4.5
t54.5 -12.5t40 -19.5t15.5 -24.5q0 -10 -7.5 -23.5t-21.5 -13.5q-7 0 -17.5 6t-26.5 13t-39.5 13t-56.5 6q-28 0 -54 -5.5t-46.5 -19t-32.5 -36t-12 -55.5q0 -46 24.5 -71.5t61.5 -42.5t80 -31t80 -38.5t61.5 -65t24.5 -109.5q0 -53 -15.5 -92t-43.5 -64.5t-67 -37.5
t-85 -12q-48 0 -86 12t-64.5 28.5t-40.5 35t-14 32.5q0 12 9.5 24.5t20.5 12.5q10 0 20 -13t28 -28.5t47 -28.5t76 -13z" />
    <glyph glyph-name="scommaaccent" unicode="&#x219;" horiz-adv-x="385" 
d="M153 -155q-6 -3 -11 -3q-11 0 -18 8.5t-7 19.5q0 12 11 18l111 62q6 2 9 2q11 0 17.5 -9t6.5 -19q0 -15 -13 -22zM188 48q57 0 80 21t23 50q0 33 -18.5 51t-45.5 29t-59.5 19.5t-59.5 22.5t-45.5 37t-18.5 65q0 24 8.5 48t27.5 43.5t49 32t73 12.5q25 0 49 -4.5t43 -11
t30.5 -15.5t11.5 -18q0 -8 -7.5 -21t-19.5 -13q-6 0 -15 4.5t-22 9.5t-30 9.5t-39 4.5q-28 0 -47 -7.5t-31 -19t-17 -25.5t-5 -26q0 -29 18.5 -44t46 -24.5t59.5 -18t59.5 -24t46 -42t18.5 -71.5q0 -60 -42 -94.5t-119 -34.5q-35 0 -64 7t-49.5 17.5t-32 23.5t-11.5 24
q0 10 6.5 20t16.5 10q8 0 17 -7.5t23.5 -16t36 -16t55.5 -7.5z" />
    <glyph glyph-name="dotlessj" unicode="&#x237;" horiz-adv-x="191" 
d="M95 473q14 0 23.5 -6.5t9.5 -17.5v-492q0 -42 -7.5 -76.5t-23 -59.5t-40.5 -39t-61 -14q-18 0 -25.5 9t-7.5 20q0 14 8 22t20 8q24 0 38 10t21.5 27t10 41t2.5 52v492q0 11 9 17.5t23 6.5z" />
    <glyph glyph-name="schwa" unicode="&#x259;" horiz-adv-x="458" 
d="M222 -7q-38 0 -71.5 13.5t-59.5 38t-41 58t-15 73.5q0 29 7.5 45t19.5 23.5t27.5 9t32.5 1.5h226v37q0 30 -11.5 54t-31.5 41.5t-48.5 26.5t-61.5 9q-29 0 -48.5 -6.5t-32 -14t-21.5 -13.5t-17 -6q-12 0 -20 10.5t-8 19.5t10.5 20.5t30 21.5t47 17t62.5 7
q47 0 86.5 -13.5t68 -38.5t44.5 -60t16 -77v-112q0 -38 -15 -71.5t-41.5 -58.5t-61 -40t-73.5 -15zM148 207q-30 0 -40 -6.5t-10 -27.5q0 -24 9 -46.5t25.5 -40.5t39.5 -28.5t50 -10.5q26 0 49 10t40 26.5t27 38.5t10 47v38h-200z" />
    <glyph glyph-name="circumflex" unicode="&#x2c6;" horiz-adv-x="268" 
d="M30 595q-2 -1 -4.5 -2t-4.5 -1q-8 0 -14.5 7.5t-6.5 18.5q0 6 3 12t10 10l104 56q8 5 17 5t17 -5l104 -56q7 -3 10 -9.5t3 -13.5q0 -10 -6 -17t-14 -7q-2 0 -5 1t-5 2l-104 55z" />
    <glyph glyph-name="caron" unicode="&#x2c7;" horiz-adv-x="283" 
d="M142 633l99 92q6 6 15 6q8 0 13.5 -7t5.5 -15q0 -13 -12 -23l-101 -90q-12 -10 -20 -10q-10 0 -20 10l-101 90q-13 10 -13 23q0 8 5.5 15t13.5 7q9 0 15 -6z" />
    <glyph glyph-name="breve" unicode="&#x2d8;" horiz-adv-x="233" 
d="M233 714q0 -24 -9.5 -45t-26 -37t-37.5 -25.5t-43 -9.5q-23 0 -44.5 9.5t-37.5 25.5t-25.5 37t-9.5 45h44q0 -35 22 -58t51 -23t50.5 23t21.5 58h44z" />
    <glyph glyph-name="dotaccent" unicode="&#x2d9;" horiz-adv-x="202" 
d="M107 666q15 0 25.5 -10t10.5 -26q0 -15 -10.5 -26t-25.5 -11q-16 0 -26.5 11t-10.5 26q0 16 10.5 26t26.5 10z" />
    <glyph glyph-name="ring" unicode="&#x2da;" horiz-adv-x="185" 
d="M92 768q18 0 35 -7.5t30 -20.5t20.5 -30t7.5 -35q0 -19 -7.5 -36t-20.5 -30.5t-30 -21.5t-35 -8q-19 0 -35.5 8t-29 21.5t-20 30.5t-7.5 36q0 18 7 35t19.5 29.5t29 20.5t36.5 8zM151 675q0 21 -17.5 39.5t-40.5 18.5q-26 0 -43 -18.5t-17 -39.5q0 -24 17.5 -43.5
t42.5 -19.5q23 0 40.5 19.5t17.5 43.5z" />
    <glyph glyph-name="ogonek" unicode="&#x2db;" horiz-adv-x="122" 
d="M102 -166q20 0 20 -18q0 -8 -5.5 -12.5t-19.5 -4.5q-18 0 -35.5 4t-31 13t-22 23.5t-8.5 34.5q0 42 22.5 79t58.5 68l33 -17q-31 -27 -52.5 -58t-21.5 -67q0 -24 16.5 -34.5t45.5 -10.5z" />
    <glyph glyph-name="tilde" unicode="&#x2dc;" horiz-adv-x="310" 
d="M93 644q-16 0 -27.5 -5t-19.5 -11t-14.5 -11t-12.5 -5q-10 0 -14.5 8.5t-4.5 16.5q0 14 9 24.5t22.5 18t29 11t27.5 3.5q19 0 35 -5.5t31 -11.5t30.5 -11.5t35.5 -5.5q17 0 27.5 4.5t17.5 10t12.5 10t12.5 4.5q10 0 15 -8t5 -15q0 -15 -9 -26t-22 -18t-27.5 -10t-25.5 -3
q-20 0 -36 5.5t-30.5 12t-30.5 12t-36 5.5z" />
    <glyph glyph-name="hungarumlaut" unicode="&#x2dd;" horiz-adv-x="288" 
d="M38 595q-5 -5 -12 -5q-10 0 -18 7.5t-8 16.5q0 10 8 14l96 69q4 4 11 4q10 0 16.5 -8t6.5 -16q0 -12 -9 -18zM188 595q-5 -5 -12 -5q-10 0 -18 7.5t-8 16.5q0 10 8 14l96 69q4 4 11 4q10 0 16.5 -8t6.5 -16q0 -12 -9 -18z" />
    <glyph glyph-name="pi" unicode="&#x3c0;" horiz-adv-x="492" 
d="M398 473q11 0 21 -6t10 -19v-423q0 -14 -10.5 -19.5t-22.5 -5.5q-13 0 -23 5.5t-10 19.5v387h-234v-387q0 -14 -10.5 -19.5t-22.5 -5.5q-13 0 -23 5.5t-10 19.5v423q0 13 9.5 19t20.5 6h305z" />
    <glyph glyph-name="Wgrave" unicode="&#x1e80;" horiz-adv-x="787" 
d="M568 18q-4 -12 -15 -18t-25 -6q-13 0 -24.5 5.5t-14.5 18.5l-95 353l-95 -353q-3 -12 -14 -18t-25 -6t-25 5.5t-15 18.5l-197 678q-1 3 -1 8q0 12 12 19.5t26 7.5q9 0 16.5 -4.5t9.5 -12.5l173 -614l100 373q3 13 13 18t22 5t21 -5t13 -18l100 -373l173 614q2 8 9.5 12.5
t16.5 4.5q14 0 26 -7.5t12 -19.5q0 -5 -1 -8zM324 905q-13 6 -13 22q0 10 6.5 19t17.5 9q4 0 9 -3l111 -61q11 -6 11 -18q0 -11 -7.5 -19.5t-18.5 -8.5q-6 0 -10 3z" />
    <glyph glyph-name="wgrave" unicode="&#x1e81;" horiz-adv-x="667" 
d="M491 8q-3 -9 -10.5 -12.5t-15.5 -3.5q-20 0 -27 15l-104 325l-103 -320q-6 -20 -29 -20q-10 0 -16.5 4t-10.5 16l-156 419q-4 8 -4 15q0 12 12.5 20.5t26.5 8.5q8 0 14.5 -3.5t8.5 -11.5l128 -356l103 325q5 17 26 17q9 0 16 -3.5t10 -13.5l99 -329l131 360q2 7 8 11
t14 4q13 0 26 -7.5t13 -21.5q0 -9 -4 -15zM261 651q-13 6 -13 22q0 10 6.5 19t17.5 9q4 0 9 -3l111 -61q11 -6 11 -18q0 -11 -7.5 -19.5t-18.5 -8.5q-6 0 -10 3z" />
    <glyph glyph-name="Wacute" unicode="&#x1e82;" horiz-adv-x="787" 
d="M357 848q-5 -3 -10 -3q-11 0 -18.5 8.5t-7.5 19.5q0 12 11 18l112 61q3 3 8 3q11 0 17.5 -9t6.5 -19q0 -16 -12 -22zM568 18q-4 -12 -15 -18t-25 -6q-13 0 -24.5 5.5t-14.5 18.5l-95 353l-95 -353q-3 -12 -14 -18t-25 -6t-25 5.5t-15 18.5l-197 678q-1 3 -1 8
q0 12 12 19.5t26 7.5q9 0 16.5 -4.5t9.5 -12.5l173 -614l100 373q3 13 13 18t22 5t21 -5t13 -18l100 -373l173 614q2 8 9.5 12.5t16.5 4.5q14 0 26 -7.5t12 -19.5q0 -5 -1 -8z" />
    <glyph glyph-name="wacute" unicode="&#x1e83;" horiz-adv-x="667" 
d="M299 594q-5 -3 -10 -3q-11 0 -18.5 8.5t-7.5 19.5q0 12 11 18l112 61q3 3 8 3q11 0 17.5 -9t6.5 -19q0 -16 -12 -22zM491 8q-3 -9 -10.5 -12.5t-15.5 -3.5q-20 0 -27 15l-104 325l-103 -320q-6 -20 -29 -20q-10 0 -16.5 4t-10.5 16l-156 419q-4 8 -4 15q0 12 12.5 20.5
t26.5 8.5q8 0 14.5 -3.5t8.5 -11.5l128 -356l103 325q5 17 26 17q9 0 16 -3.5t10 -13.5l99 -329l131 360q2 7 8 11t14 4q13 0 26 -7.5t13 -21.5q0 -9 -4 -15z" />
    <glyph glyph-name="Wdieresis" unicode="&#x1e84;" horiz-adv-x="787" 
d="M332 920q15 0 25.5 -10t10.5 -26q0 -15 -10.5 -26t-25.5 -11q-16 0 -26.5 11t-10.5 26q0 16 10.5 26t26.5 10zM455 920q16 0 26 -10t10 -26q0 -15 -10 -26t-26 -11t-26.5 11t-10.5 26q0 16 10.5 26t26.5 10zM568 18q-4 -12 -15 -18t-25 -6q-13 0 -24.5 5.5t-14.5 18.5
l-95 353l-95 -353q-3 -12 -14 -18t-25 -6t-25 5.5t-15 18.5l-197 678q-1 3 -1 8q0 12 12 19.5t26 7.5q9 0 16.5 -4.5t9.5 -12.5l173 -614l100 373q3 13 13 18t22 5t21 -5t13 -18l100 -373l173 614q2 8 9.5 12.5t16.5 4.5q14 0 26 -7.5t12 -19.5q0 -5 -1 -8z" />
    <glyph glyph-name="wdieresis" unicode="&#x1e85;" horiz-adv-x="667" 
d="M272 666q15 0 25.5 -10t10.5 -26q0 -15 -10.5 -26t-25.5 -11q-16 0 -26.5 11t-10.5 26q0 16 10.5 26t26.5 10zM395 666q16 0 26 -10t10 -26q0 -15 -10 -26t-26 -11t-26.5 11t-10.5 26q0 16 10.5 26t26.5 10zM491 8q-3 -9 -10.5 -12.5t-15.5 -3.5q-20 0 -27 15l-104 325
l-103 -320q-6 -20 -29 -20q-10 0 -16.5 4t-10.5 16l-156 419q-4 8 -4 15q0 12 12.5 20.5t26.5 8.5q8 0 14.5 -3.5t8.5 -11.5l128 -356l103 325q5 17 26 17q9 0 16 -3.5t10 -13.5l99 -329l131 360q2 7 8 11t14 4q13 0 26 -7.5t13 -21.5q0 -9 -4 -15z" />
    <glyph glyph-name="Ygrave" unicode="&#x1ef2;" horiz-adv-x="531" 
d="M232 280q0 5 -1 8l-207 397q-3 5 -4 10t-1 8q0 13 12 20.5t24 7.5q16 0 26 -20l184 -365l185 365q10 20 26 20q12 0 24 -7.5t12 -20.5q0 -3 -1 -8t-3 -10l-208 -397q-2 -6 -2 -8v-254q0 -13 -10 -19.5t-23 -6.5q-12 0 -22.5 6.5t-10.5 19.5v254zM196 905q-13 6 -13 22
q0 10 6.5 19t17.5 9q4 0 9 -3l111 -61q11 -6 11 -18q0 -11 -7.5 -19.5t-18.5 -8.5q-6 0 -10 3z" />
    <glyph glyph-name="ygrave" unicode="&#x1ef3;" horiz-adv-x="420" 
d="M17 439q-3 4 -3 9q0 13 13.5 22t26.5 9q8 0 14.5 -3t8.5 -11l137 -368l129 368q6 14 22 14q12 0 26 -9t14 -23v-4t-2 -4l-155 -420q-15 -41 -32.5 -85t-41.5 -81t-55.5 -61t-73.5 -24q-13 0 -21.5 6t-8.5 23q0 11 4.5 20.5t15.5 9.5q24 0 46 15.5t41 42t34 61.5t24 74z
M137 651q-13 6 -13 22q0 10 6.5 19t17.5 9q4 0 9 -3l111 -61q11 -6 11 -18q0 -11 -7.5 -19.5t-18.5 -8.5q-6 0 -10 3z" />
    <glyph glyph-name="endash" unicode="&#x2013;" horiz-adv-x="473" 
d="M52 240q0 13 7 21.5t18 8.5h320q10 0 17.5 -8.5t7.5 -21.5t-7.5 -20.5t-17.5 -7.5h-320q-25 0 -25 28z" />
    <glyph glyph-name="emdash" unicode="&#x2014;" horiz-adv-x="754" 
d="M52 240q0 13 7 21.5t18 8.5h600q10 0 18 -8.5t8 -21.5t-8 -20.5t-18 -7.5h-600q-25 0 -25 28z" />
    <glyph glyph-name="quoteleft" unicode="&#x2018;" horiz-adv-x="160" 
d="M78 570q-19 0 -32 13.5t-13 32.5q0 11 10 40t30 73q6 12 18 12q8 0 16 -5.5t8 -15.5q0 -5 -1 -8l-20 -52q14 -5 22 -17t8 -26q0 -20 -13 -33.5t-33 -13.5z" />
    <glyph glyph-name="quoteright" unicode="&#x2019;" horiz-adv-x="158" 
d="M82 741q19 0 32.5 -13.5t13.5 -32.5q0 -22 -40 -113q-3 -6 -8 -9t-10 -3q-9 0 -17 5.5t-8 15.5q0 6 2 9l20 52q-14 5 -22.5 17t-8.5 26q0 19 13 32.5t33 13.5z" />
    <glyph glyph-name="quotesinglbase" unicode="&#x201a;" horiz-adv-x="171" 
d="M86 87q18 0 31.5 -13.5t13.5 -32.5q0 -11 -10 -40t-30 -73q-3 -6 -8 -9t-10 -3q-8 0 -16.5 5.5t-8.5 15.5q0 2 2 8l20 52q-14 5 -22 17t-8 26q0 20 13 33.5t33 13.5z" />
    <glyph glyph-name="quotedblleft" unicode="&#x201c;" horiz-adv-x="311" 
d="M79 570q-19 0 -32.5 13.5t-13.5 32.5q0 25 41 113q2 6 7.5 9t10.5 3q8 0 16 -5.5t8 -15.5q0 -5 -2 -8l-19 -52q14 -5 22 -17t8 -26q0 -20 -13 -33.5t-33 -13.5zM229 570q-18 0 -31.5 13.5t-13.5 32.5q0 11 10 40t30 73q3 6 8 9t10 3q8 0 16.5 -5.5t8.5 -15.5q0 -2 -2 -8
l-20 -52q14 -5 22 -17t8 -26q0 -20 -13 -33.5t-33 -13.5z" />
    <glyph glyph-name="quotedblright" unicode="&#x201d;" horiz-adv-x="309" 
d="M234 741q18 0 31.5 -13.5t13.5 -32.5q0 -11 -10 -39.5t-30 -73.5q-3 -6 -8 -9t-10 -3q-8 0 -16.5 5.5t-8.5 15.5q0 3 2 9l20 52q-14 5 -22 17t-8 26q0 19 13 32.5t33 13.5zM83 741q19 0 32.5 -13.5t13.5 -32.5q0 -23 -41 -113q-5 -12 -18 -12q-8 0 -16 5.5t-8 15.5
q0 6 2 9l19 52q-14 5 -22 17t-8 26q0 19 13 32.5t33 13.5z" />
    <glyph glyph-name="quotedblbase" unicode="&#x201e;" horiz-adv-x="322" 
d="M236 87q19 0 32.5 -13.5t13.5 -32.5q0 -25 -41 -113q-5 -12 -18 -12q-8 0 -16 5.5t-8 15.5q0 5 2 8l19 52q-14 5 -22 17t-8 26q0 20 13 33.5t33 13.5zM86 87q18 0 31.5 -13.5t13.5 -32.5q0 -11 -10 -40t-30 -73q-3 -6 -8 -9t-10 -3q-8 0 -16.5 5.5t-8.5 15.5q0 2 2 8
l20 52q-14 5 -22 17t-8 26q0 20 13 33.5t33 13.5z" />
    <glyph glyph-name="dagger" unicode="&#x2020;" horiz-adv-x="414" 
d="M22 454q0 12 7 20t18 9l127 -6v230q0 10 9.5 17t23.5 7q12 0 22.5 -7t10.5 -17v-230l127 6q9 0 17 -8.5t8 -20.5t-8 -19.5t-17 -7.5l-127 6v-427q0 -11 -10.5 -19t-22.5 -8q-14 0 -23.5 8t-9.5 19v427l-127 -6q-25 2 -25 27z" />
    <glyph glyph-name="daggerdbl" unicode="&#x2021;" horiz-adv-x="439" 
d="M35 241q0 12 6.5 19.5t17.5 8.5l127 -6v170l-127 -6q-11 1 -17.5 8t-6.5 19t6.5 20t17.5 9l127 -6v230q0 10 9.5 17t23.5 7q13 0 23 -7t10 -17v-230l127 6q10 -1 18 -9t8 -20t-8 -19t-18 -8l-127 6v-170l127 6q10 -1 18 -8.5t8 -19.5t-8 -19.5t-18 -8.5l-127 6v-213
q0 -11 -10 -19t-23 -8q-14 0 -23.5 8t-9.5 19v213l-127 -6q-11 1 -17.5 8.5t-6.5 19.5z" />
    <glyph glyph-name="bullet" unicode="&#x2022;" horiz-adv-x="311" 
d="M156 404q21 0 40.5 -8.5t34.5 -23t23.5 -33t8.5 -39.5t-8.5 -40t-23.5 -33t-34.5 -22.5t-40.5 -8.5q-22 0 -41.5 8.5t-34 22.5t-23 33t-8.5 40t8.5 39.5t23 33t34 23t41.5 8.5z" />
    <glyph glyph-name="ellipsis" unicode="&#x2026;" horiz-adv-x="533" 
d="M86 87q18 0 31.5 -13.5t13.5 -33.5q0 -18 -13.5 -32t-31.5 -14q-20 0 -33 14t-13 32q0 20 13 33.5t33 13.5zM268 87q18 0 31.5 -13.5t13.5 -33.5q0 -18 -13.5 -32t-31.5 -14q-20 0 -33 14t-13 32q0 20 13 33.5t33 13.5zM449 87q18 0 31.5 -13.5t13.5 -33.5
q0 -18 -13.5 -32t-31.5 -14q-20 0 -33 14t-13 32q0 20 13 33.5t33 13.5z" />
    <glyph glyph-name="perthousand" unicode="&#x2030;" horiz-adv-x="1066" 
d="M164 351q-53 0 -88.5 26t-35.5 88v152q0 62 35.5 88t88.5 26q26 0 49 -6t39.5 -19.5t26 -35.5t9.5 -53v-152q0 -31 -9.5 -53t-26 -35.5t-39.5 -19.5t-49 -6zM238 617q0 35 -19.5 52t-54.5 17t-54 -17t-19 -52v-152q0 -35 19 -52t54 -17t54.5 17t19.5 52v152zM593 -3
q-53 0 -88.5 26t-35.5 88v152q0 61 35.5 87.5t88.5 26.5q26 0 49 -6.5t39.5 -20t26 -35t9.5 -52.5v-152q0 -31 -9.5 -53t-26 -35.5t-39.5 -19.5t-49 -6zM667 263q0 35 -19.5 52t-54.5 17t-54 -17t-19 -52v-152q0 -35 19 -52t54 -17t54.5 17t19.5 52v152zM905 -3
q-53 0 -88.5 26t-35.5 88v152q0 61 35.5 87.5t88.5 26.5q26 0 49 -6.5t39.5 -20t26 -35t9.5 -52.5v-152q0 -31 -9.5 -53t-26 -35.5t-39.5 -19.5t-49 -6zM979 263q0 35 -19.5 52t-54.5 17t-54 -17t-19 -52v-152q0 -35 19 -52t54 -17t54.5 17t19.5 52v152zM570 769
q10 0 19 -7.5t9 -19.5q0 -7 -3 -13l-379 -741q-8 -15 -24 -15q-11 0 -18.5 7.5t-7.5 17.5q0 6 3 12l381 747q3 7 8.5 9.5t11.5 2.5z" />
    <glyph glyph-name="guilsinglleft" unicode="&#x2039;" horiz-adv-x="235" 
d="M191 117q3 -6 3 -11q0 -11 -11.5 -21.5t-26.5 -10.5t-22 12l-89 164q-5 9 -7.5 14.5t-2.5 12.5t2.5 12.5t7.5 15.5l89 164q6 12 23 12q15 0 26 -10.5t11 -21.5q0 -5 -3 -11l-87 -161z" />
    <glyph glyph-name="guilsinglright" unicode="&#x203a;" horiz-adv-x="235" 
d="M130 277l-86 161q-3 6 -3 11q0 11 10.5 21.5t25.5 10.5q8 0 14.5 -3t8.5 -9l89 -164q5 -9 8 -15t3 -13t-3 -13t-8 -14l-89 -164q-5 -12 -21 -12q-15 0 -26.5 10.5t-11.5 21.5q0 5 3 11z" />
    <glyph glyph-name="fraction" unicode="&#x2044;" horiz-adv-x="159" 
d="M267 769q10 0 19 -7.5t9 -19.5q0 -7 -3 -13l-379 -741q-8 -15 -24 -15q-11 0 -18.5 7.5t-7.5 17.5q0 6 3 12l381 747q3 7 8.5 9.5t11.5 2.5z" />
    <glyph glyph-name="zerosuperior" unicode="&#x2070;" horiz-adv-x="340" 
d="M170 351q-53 0 -88.5 26t-35.5 88v152q0 62 35.5 88t88.5 26q26 0 49 -6t39.5 -19.5t26 -35.5t9.5 -53v-152q0 -31 -9.5 -53t-26 -35.5t-39.5 -19.5t-49 -6zM244 617q0 35 -19.5 52t-54.5 17t-54 -17t-19 -52v-152q0 -35 19 -52t54 -17t54.5 17t19.5 52v152z" />
    <glyph glyph-name="foursuperior" unicode="&#x2074;" horiz-adv-x="287" 
d="M174 440h-143q-8 0 -13 5t-5 14q0 4 3 10l140 248q9 14 23 14q8 0 16.5 -5.5t8.5 -14.5q0 -2 -2 -8l-124 -216h96v77q0 8 7.5 12.5t17.5 4.5t17.5 -4.5t7.5 -12.5v-77h30q8 0 13 -7.5t5 -16.5q0 -8 -5.5 -15.5t-12.5 -7.5h-30v-68q0 -9 -7.5 -13.5t-17.5 -4.5t-17.5 4.5
t-7.5 13.5v68z" />
    <glyph glyph-name="fivesuperior" unicode="&#x2075;" horiz-adv-x="306" 
d="M152 581q26 0 49 -6t39.5 -18.5t26 -33t9.5 -49.5v-10q0 -31 -9.5 -52.5t-26.5 -35t-39.5 -19.5t-47.5 -6q-60 0 -92.5 27.5t-32.5 60.5q0 15 6.5 20.5t19.5 5.5q15 0 20 -5.5t5 -14.5q2 -49 70 -49q36 0 56 16t20 52v10q0 34 -19 50t-54 16h-81q-15 0 -19 6.5t-4 12.5
v10t1 11l13 134q2 17 12 17h165q8 0 12 -7t4 -16q0 -8 -4 -15t-12 -7h-134l-9 -105h56z" />
    <glyph glyph-name="sixsuperior" unicode="&#x2076;" horiz-adv-x="329" 
d="M177 580q24 0 45 -5t36.5 -17.5t24.5 -32.5t9 -50v-10q0 -62 -35.5 -88t-87.5 -26q-60 0 -92 29.5t-32 101.5v135q0 31 9.5 53t26.5 35.5t40 19.5t50 6q30 0 53 -8t38 -21t22.5 -29.5t7.5 -32.5q0 -22 -24 -22q-9 0 -17 4t-8 16q0 23 -22 35.5t-52 12.5q-35 0 -54.5 -17
t-19.5 -52v-68q14 17 35.5 24t46.5 7zM95 462q0 -35 19.5 -51.5t54.5 -16.5t54 16.5t19 51.5v10q0 37 -19.5 52t-54.5 15q-33 0 -53 -14t-20 -48v-15z" />
    <glyph glyph-name="sevensuperior" unicode="&#x2077;" horiz-adv-x="293" 
d="M274 663q0 -6 -2.5 -13.5t-5.5 -13.5l-161 -275q-5 -8 -16 -8q-12 0 -21.5 6.5t-9.5 17.5q0 2 2 10l164 269v30h-147v-51q0 -7 -8 -12t-18 -5q-11 0 -18 5t-7 12v79q0 6 7.5 11.5t15.5 5.5h202q8 0 15.5 -5.5t7.5 -11.5v-51z" />
    <glyph glyph-name="eightsuperior" unicode="&#x2078;" horiz-adv-x="320" 
d="M160 731q49 0 80.5 -20.5t31.5 -70.5q0 -33 -14.5 -52.5t-37.5 -27.5q29 -11 46 -33.5t17 -62.5v-7q0 -57 -35 -81.5t-88 -24.5q-26 0 -48.5 6t-39.5 18.5t-26.5 32.5t-9.5 49v7q0 40 17.5 62.5t46.5 33.5q-23 8 -37.5 27.5t-14.5 52.5q0 50 32 70.5t80 20.5zM234 471
q0 35 -19.5 51t-54.5 16t-54 -16t-19 -51v-9q0 -35 19.5 -52t53.5 -17q35 0 54.5 17t19.5 52v9zM160 689q-29 0 -46 -12.5t-17 -41.5t17 -41.5t46 -12.5q30 0 46.5 12.5t16.5 41.5t-16.5 41.5t-46.5 12.5z" />
    <glyph glyph-name="ninesuperior" unicode="&#x2079;" horiz-adv-x="330" 
d="M152 503q-24 0 -45 5t-36.5 17t-24.5 32t-9 50v10q0 62 35.5 88t88.5 26q52 0 87.5 -26t35.5 -88v-152q0 -62 -36 -88t-90 -26q-30 0 -53 8t-38 21t-22.5 29t-7.5 33q0 13 6 17.5t18 4.5q10 0 17.5 -4.5t7.5 -15.5q0 -22 22 -35t52 -13q35 0 55 17t20 52v68
q-15 -17 -36.5 -23.5t-46.5 -6.5zM235 620q0 35 -19.5 52t-54.5 17t-54 -17t-19 -52v-10q0 -36 19 -51.5t54 -15.5q33 0 53.5 14t20.5 49v14z" />
    <glyph glyph-name="zeroinferior" unicode="&#x2080;" horiz-adv-x="340" 
d="M170 -3q-53 0 -88.5 26t-35.5 88v152q0 61 35.5 87.5t88.5 26.5q26 0 49 -6.5t39.5 -20t26 -35t9.5 -52.5v-152q0 -31 -9.5 -53t-26 -35.5t-39.5 -19.5t-49 -6zM244 263q0 35 -19.5 52t-54.5 17t-54 -17t-19 -52v-152q0 -35 19 -52t54 -17t54.5 17t19.5 52v152z" />
    <glyph glyph-name="oneinferior" unicode="&#x2081;" horiz-adv-x="169" 
d="M69 308l-21 -25q-5 -6 -12 -6q-8 0 -13 6.5t-5 14.5q0 5 3 11t7 8l55 54q4 6 14 6q8 0 15 -4.5t7 -12.5v-343q0 -8 -7.5 -12.5t-16.5 -4.5q-11 0 -18.5 4.5t-7.5 12.5v291z" />
    <glyph glyph-name="twoinferior" unicode="&#x2082;" horiz-adv-x="306" 
d="M41 286q0 42 33 66.5t80 24.5q25 0 46.5 -7.5t37.5 -21t25 -32.5t9 -41q0 -28 -14 -49.5t-34.5 -39.5t-45 -33t-45 -28.5t-34.5 -27t-14 -28.5v-24h173q8 0 13 -6.5t5 -15.5t-5 -16t-13 -7h-202q-8 0 -15.5 4.5t-7.5 12.5v50q0 21 14 39t35 34t45.5 31t45.5 31t35 33.5
t14 37.5t-16.5 38.5t-52.5 18.5q-26 0 -44 -12.5t-18 -40.5q0 -7 -7 -13t-19 -6q-11 0 -17.5 6t-6.5 22z" />
    <glyph glyph-name="threeinferior" unicode="&#x2083;" horiz-adv-x="313" 
d="M152 42q38 0 56.5 16t18.5 51v9q0 32 -20.5 45.5t-54.5 13.5q-10 0 -14 6t-4 14t4 14.5t14 6.5q29 0 46.5 11.5t17.5 46.5q0 30 -15 43t-47 13q-39 0 -52 -14.5t-13 -30.5q0 -9 -5 -14.5t-19 -5.5q-17 0 -21.5 4.5t-4.5 18.5q0 12 5 27.5t18 28.5t35.5 22t57.5 9
q48 0 79 -20.5t31 -71.5q0 -33 -13 -55.5t-33 -30.5q26 -9 42 -28.5t16 -52.5v-9q0 -30 -10 -51.5t-27 -35t-39.5 -19.5t-48.5 -6q-32 0 -55 8.5t-38 21.5t-22.5 29t-7.5 31q0 13 5.5 17t18.5 4q15 0 20.5 -4.5t5.5 -13.5q0 -17 16.5 -32.5t56.5 -15.5z" />
    <glyph glyph-name="fourinferior" unicode="&#x2084;" horiz-adv-x="287" 
d="M174 86h-143q-8 0 -13 5t-5 14q0 4 3 10l140 247q9 15 23 15q8 0 16.5 -5.5t8.5 -14.5q0 -4 -2 -8l-124 -216h96v77q0 8 7.5 12t17.5 4t17.5 -4t7.5 -12v-77h30q8 0 13 -7.5t5 -16.5t-5.5 -16t-12.5 -7h-30v-69q0 -8 -7.5 -12.5t-17.5 -4.5t-17.5 4.5t-7.5 12.5v69z" />
    <glyph glyph-name="fiveinferior" unicode="&#x2085;" horiz-adv-x="306" 
d="M152 227q26 0 49 -6t39.5 -18.5t26 -33t9.5 -49.5v-11q0 -30 -9.5 -51.5t-26.5 -35t-39.5 -19.5t-47.5 -6q-60 0 -92.5 27t-32.5 61q0 15 6.5 20.5t19.5 5.5q15 0 20 -5.5t5 -14.5q2 -49 70 -49q36 0 56 16t20 51v11q0 33 -19 49.5t-54 16.5h-81q-15 0 -19 6.5t-4 12.5
v9.5t1 11.5l13 134q2 17 12 17h165q8 0 12 -7t4 -16q0 -8 -4 -15t-12 -7h-134l-9 -105h56z" />
    <glyph glyph-name="sixinferior" unicode="&#x2086;" horiz-adv-x="329" 
d="M177 226q24 0 45 -5t36.5 -17.5t24.5 -32.5t9 -50v-10q0 -62 -35.5 -88t-87.5 -26q-60 0 -92 29t-32 101v136q0 31 9.5 52.5t26.5 35t40 20t50 6.5q30 0 53 -8t38 -21t22.5 -29.5t7.5 -32.5q0 -22 -24 -22q-9 0 -17 4t-8 16q0 23 -22 35.5t-52 12.5q-35 0 -54.5 -17
t-19.5 -52v-68q14 17 35.5 24t46.5 7zM95 108q0 -35 19.5 -51.5t54.5 -16.5t54 16.5t19 51.5v10q0 36 -19.5 51.5t-54.5 15.5q-33 0 -53 -14.5t-20 -47.5v-15z" />
    <glyph glyph-name="seveninferior" unicode="&#x2087;" horiz-adv-x="293" 
d="M274 308q0 -6 -2.5 -13.5t-5.5 -12.5l-161 -275q-5 -9 -16 -9q-12 0 -21.5 7t-9.5 18q0 3 2 9l164 269v31h-147v-51q0 -8 -8 -12.5t-18 -4.5q-11 0 -18 4.5t-7 12.5v79q0 6 7.5 11.5t15.5 5.5h202q8 0 15.5 -5.5t7.5 -11.5v-52z" />
    <glyph glyph-name="eightinferior" unicode="&#x2088;" horiz-adv-x="320" 
d="M160 377q49 0 80.5 -20.5t31.5 -70.5q0 -33 -14.5 -53t-37.5 -28q29 -10 46 -32.5t17 -63.5v-6q0 -57 -35 -81.5t-88 -24.5q-26 0 -48.5 6t-39.5 18.5t-26.5 32.5t-9.5 49v6q0 41 17.5 63.5t46.5 32.5q-23 8 -37.5 28t-14.5 53q0 50 32 70.5t80 20.5zM234 117
q0 35 -19.5 51t-54.5 16t-54 -16t-19 -51v-9q0 -35 19.5 -52t53.5 -17q35 0 54.5 17t19.5 52v9zM160 335q-29 0 -46 -13t-17 -42t17 -41.5t46 -12.5q30 0 46.5 12.5t16.5 41.5t-16.5 42t-46.5 13z" />
    <glyph glyph-name="nineinferior" unicode="&#x2089;" horiz-adv-x="330" 
d="M152 148q-24 0 -45 5t-36.5 17.5t-24.5 32.5t-9 50v10q0 61 35.5 87.5t88.5 26.5q52 0 87.5 -26.5t35.5 -87.5v-152q0 -62 -36 -88t-90 -26q-30 0 -53 8t-38 21t-22.5 29t-7.5 33q0 22 24 22q10 0 17.5 -4.5t7.5 -15.5q0 -23 22 -35.5t52 -12.5q35 0 55 17t20 52v67
q-15 -16 -36.5 -23t-46.5 -7zM235 265q0 36 -19.5 52.5t-54.5 16.5t-54 -16.5t-19 -52.5v-10q0 -35 19 -50.5t54 -15.5q33 0 53.5 14t20.5 48v14z" />
    <glyph glyph-name="Euro" unicode="&#x20ac;" horiz-adv-x="582" 
d="M185 203q0 -68 35 -108t108 -40q64 0 102.5 32.5t38.5 90.5q1 25 33 25q16 0 24.5 -7t8.5 -26q0 -38 -15 -70.5t-42 -56t-65.5 -36.5t-86.5 -13q-46 0 -84 12.5t-65.5 38.5t-42.5 65t-15 93v49h-62q-11 0 -18 7.5t-7 18.5t7 19t18 8h62v96h-62q-11 0 -18 7.5t-7 18.5
t7 19t18 8h62v64q0 58 16 98.5t44 66t65.5 37t81.5 11.5q48 0 86.5 -13t65.5 -36t42 -55t15 -69q0 -19 -8.5 -26t-24.5 -7q-33 0 -33 24q0 56 -38 88.5t-104 32.5q-67 0 -104.5 -37t-37.5 -115v-64h169q10 0 18 -8t8 -19t-8 -18.5t-18 -7.5h-169v-96h169q10 0 18 -8t8 -19
t-8 -18.5t-18 -7.5h-169v-49z" />
    <glyph glyph-name="trademark" unicode="&#x2122;" horiz-adv-x="626" 
d="M255 768q8 0 11.5 -7t3.5 -15q0 -9 -3.5 -16t-11.5 -7h-75v-233q0 -8 -7 -12.5t-16 -4.5q-10 0 -17.5 4.5t-7.5 12.5v233h-74q-8 0 -12 7t-4 16q0 8 4 15t12 7h197zM444 517q-7 -13 -17 -13q-5 0 -9.5 2.5t-6.5 10.5l-67 153v-180q0 -8 -7.5 -12.5t-15.5 -4.5
q-9 0 -16.5 4.5t-7.5 12.5v254q0 14 7.5 19t16.5 5q13 0 21 -7.5t15 -22.5l70 -159l71 159q13 30 36 30q10 0 17 -5t7 -19v-254q0 -8 -7.5 -12.5t-16.5 -4.5t-16 4.5t-7 12.5v178z" />
    <glyph glyph-name="Omega" unicode="&#x2126;" horiz-adv-x="547" 
d="M316 146q48 11 73.5 47t25.5 101v224q0 78 -37.5 115t-104.5 37t-104 -37t-37 -115v-224q0 -130 98 -148v-146h-152q-11 0 -17.5 9t-6.5 22t7 21t17 8h105v33q-53 19 -85 67t-32 134v224q0 58 16 98.5t43.5 66t65.5 37t82 11.5t82 -11.5t66 -37t44 -66t16 -98.5v-224
q0 -85 -33 -133.5t-84 -67.5v-33h104q10 0 17.5 -8t7.5 -21t-7 -22t-18 -9h-152v146z" />
    <glyph glyph-name="estimated" unicode="&#x212e;" horiz-adv-x="543" 
d="M281 479q43 0 82 -13.5t69 -37.5t47.5 -57.5t17.5 -73.5q0 -28 -7.5 -43.5t-19.5 -23t-27.5 -9t-31.5 -1.5h-249v-37q0 -64 37.5 -101t105.5 -37q42 0 68.5 7t43 15.5t26 15.5t18.5 7t16 -11t7 -20t-12.5 -20.5t-35.5 -21.5t-56.5 -17t-75.5 -7q-56 0 -102 15.5t-79.5 44
t-52 68.5t-18.5 89v57q0 43 18.5 81.5t49.5 67.5t72.5 46t88.5 17zM347 263q30 0 40 6t10 27q0 28 -8 52.5t-23.5 43t-37 29t-48.5 10.5q-26 0 -47.5 -9.5t-37 -27t-24.5 -41.5t-9 -52v-38h185z" />
    <glyph glyph-name="onethird" unicode="&#x2153;" horiz-adv-x="632" 
d="M473 42q38 0 56.5 16t18.5 51v9q0 32 -20.5 45.5t-54.5 13.5q-10 0 -14 6t-4 14t4 14.5t14 6.5q29 0 46.5 11.5t17.5 46.5q0 30 -15 43t-47 13q-39 0 -52 -14.5t-13 -30.5q0 -9 -5 -14.5t-19 -5.5q-17 0 -21.5 4.5t-4.5 18.5q0 12 5 27.5t18 28.5t35.5 22t57.5 9
q48 0 79 -20.5t31 -71.5q0 -33 -13 -55.5t-33 -30.5q26 -9 42 -28.5t16 -52.5v-9q0 -30 -10 -51.5t-27 -35t-39.5 -19.5t-48.5 -6q-32 0 -55 8.5t-38 21.5t-22.5 29t-7.5 31q0 13 5.5 17t18.5 4q15 0 20.5 -4.5t5.5 -13.5q0 -17 16.5 -32.5t56.5 -15.5zM82 662l-21 -25
q-5 -5 -12 -5q-8 0 -13 6t-5 14q0 5 3 11t7 8l55 55q6 6 14 6t15 -5t7 -13v-342q0 -9 -7.5 -13.5t-16.5 -4.5q-11 0 -18.5 4.5t-7.5 13.5v290zM459 769q10 0 19 -7.5t9 -19.5q0 -7 -3 -13l-379 -741q-8 -15 -24 -15q-11 0 -18.5 7.5t-7.5 17.5q0 6 3 12l381 747q3 7 8.5 9.5
t11.5 2.5z" />
    <glyph glyph-name="twothirds" unicode="&#x2154;" horiz-adv-x="744" 
d="M585 42q38 0 56.5 16t18.5 51v9q0 32 -20.5 45.5t-54.5 13.5q-10 0 -14 6t-4 14t4 14.5t14 6.5q29 0 46.5 11.5t17.5 46.5q0 30 -15 43t-47 13q-39 0 -52 -14.5t-13 -30.5q0 -9 -5 -14.5t-19 -5.5q-17 0 -21.5 4.5t-4.5 18.5q0 12 5 27.5t18 28.5t35.5 22t57.5 9
q48 0 79 -20.5t31 -71.5q0 -33 -13 -55.5t-33 -30.5q26 -9 42 -28.5t16 -52.5v-9q0 -30 -10 -51.5t-27 -35t-39.5 -19.5t-48.5 -6q-32 0 -55 8.5t-38 21.5t-22.5 29t-7.5 31q0 13 5.5 17t18.5 4q15 0 20.5 -4.5t5.5 -13.5q0 -17 16.5 -32.5t56.5 -15.5zM44 640q0 42 33 66.5
t80 24.5q25 0 46.5 -7.5t37.5 -21t25 -32.5t9 -41q0 -28 -14 -49.5t-34.5 -39.5t-45 -32.5t-45 -28.5t-34.5 -27.5t-14 -28.5v-24h173q8 0 13 -6.5t5 -15.5q0 -8 -5 -15.5t-13 -7.5h-202q-8 0 -15.5 5t-7.5 13v49q0 21 14 39t35 34t45.5 31t45.5 31t35 33.5t14 37.5
q0 21 -16.5 39.5t-52.5 18.5q-26 0 -44 -13t-18 -41q0 -7 -7 -12.5t-19 -5.5q-11 0 -17.5 5.5t-6.5 21.5zM580 769q10 0 19 -7.5t9 -19.5q0 -7 -3 -13l-379 -741q-8 -15 -24 -15q-11 0 -18.5 7.5t-7.5 17.5q0 6 3 12l381 747q3 7 8.5 9.5t11.5 2.5z" />
    <glyph glyph-name="oneeighth" unicode="&#x215b;" horiz-adv-x="631" 
d="M82 662l-21 -25q-5 -5 -12 -5q-8 0 -13 6t-5 14q0 5 3 11t7 8l55 55q6 6 14 6t15 -5t7 -13v-342q0 -9 -7.5 -13.5t-16.5 -4.5q-11 0 -18.5 4.5t-7.5 13.5v290zM474 377q49 0 80.5 -20.5t31.5 -70.5q0 -33 -14.5 -53t-37.5 -28q29 -10 46 -32.5t17 -63.5v-6
q0 -57 -35 -81.5t-88 -24.5q-26 0 -48.5 6t-39.5 18.5t-26.5 32.5t-9.5 49v6q0 41 17.5 63.5t46.5 32.5q-23 8 -37.5 28t-14.5 53q0 50 32 70.5t80 20.5zM548 117q0 35 -19.5 51t-54.5 16t-54 -16t-19 -51v-9q0 -35 19.5 -52t53.5 -17q35 0 54.5 17t19.5 52v9zM474 335
q-29 0 -46 -13t-17 -42t17 -41.5t46 -12.5q30 0 46.5 12.5t16.5 41.5t-16.5 42t-46.5 13zM459 769q10 0 19 -7.5t9 -19.5q0 -7 -3 -13l-379 -741q-8 -15 -24 -15q-11 0 -18.5 7.5t-7.5 17.5q0 6 3 12l381 747q3 7 8.5 9.5t11.5 2.5z" />
    <glyph glyph-name="threeeighths" unicode="&#x215c;" horiz-adv-x="749" 
d="M153 396q38 0 56.5 16t18.5 51v9q0 32 -20.5 45.5t-54.5 13.5q-10 0 -14 6t-4 14t4 14.5t14 6.5q29 0 46.5 11.5t17.5 46.5q0 30 -15 43.5t-47 13.5q-39 0 -52 -14.5t-13 -30.5q0 -10 -5 -15.5t-19 -5.5q-17 0 -21.5 5t-4.5 19q0 12 5 27t18 28t35.5 22t57.5 9
q48 0 79 -20.5t31 -70.5q0 -33 -13 -55.5t-33 -31.5q26 -9 42 -28.5t16 -52.5v-9q0 -30 -10 -51.5t-27 -35t-39.5 -19.5t-48.5 -6q-32 0 -55 8.5t-38 21.5t-22.5 29t-7.5 31q0 13 5.5 17t18.5 4q15 0 20.5 -4.5t5.5 -13.5q0 -17 16.5 -32.5t56.5 -15.5zM592 377
q49 0 80.5 -20.5t31.5 -70.5q0 -33 -14.5 -53t-37.5 -28q29 -10 46 -32.5t17 -63.5v-6q0 -57 -35 -81.5t-88 -24.5q-26 0 -48.5 6t-39.5 18.5t-26.5 32.5t-9.5 49v6q0 41 17.5 63.5t46.5 32.5q-23 8 -37.5 28t-14.5 53q0 50 32 70.5t80 20.5zM666 117q0 35 -19.5 51
t-54.5 16t-54 -16t-19 -51v-9q0 -35 19.5 -52t53.5 -17q35 0 54.5 17t19.5 52v9zM592 335q-29 0 -46 -13t-17 -42t17 -41.5t46 -12.5q30 0 46.5 12.5t16.5 41.5t-16.5 42t-46.5 13zM577 769q10 0 19 -7.5t9 -19.5q0 -7 -3 -13l-379 -741q-8 -15 -24 -15q-11 0 -18.5 7.5
t-7.5 17.5q0 6 3 12l381 747q3 7 8.5 9.5t11.5 2.5z" />
    <glyph glyph-name="fiveeighths" unicode="&#x215d;" horiz-adv-x="748" 
d="M591 377q49 0 80.5 -20.5t31.5 -70.5q0 -33 -14.5 -53t-37.5 -28q29 -10 46 -32.5t17 -63.5v-6q0 -57 -35 -81.5t-88 -24.5q-26 0 -48.5 6t-39.5 18.5t-26.5 32.5t-9.5 49v6q0 41 17.5 63.5t46.5 32.5q-23 8 -37.5 28t-14.5 53q0 50 32 70.5t80 20.5zM665 117
q0 35 -19.5 51t-54.5 16t-54 -16t-19 -51v-9q0 -35 19.5 -52t53.5 -17q35 0 54.5 17t19.5 52v9zM591 335q-29 0 -46 -13t-17 -42t17 -41.5t46 -12.5q30 0 46.5 12.5t16.5 41.5t-16.5 42t-46.5 13zM576 769q10 0 19 -7.5t9 -19.5q0 -7 -3 -13l-379 -741q-8 -15 -24 -15
q-11 0 -18.5 7.5t-7.5 17.5q0 6 3 12l381 747q3 7 8.5 9.5t11.5 2.5zM153 581q26 0 49 -6t39.5 -18.5t26 -33t9.5 -49.5v-10q0 -31 -9.5 -52.5t-26.5 -35t-39.5 -19.5t-47.5 -6q-60 0 -92.5 27.5t-32.5 60.5q0 15 6.5 20.5t19.5 5.5q15 0 20 -5.5t5 -14.5q2 -49 70 -49
q36 0 56 16t20 52v10q0 34 -19 50t-54 16h-81q-15 0 -19 6.5t-4 12.5v10t1 11l13 134q2 17 12 17h165q8 0 12 -7t4 -16q0 -8 -4 -15t-12 -7h-134l-9 -105h56z" />
    <glyph glyph-name="seveneighths" unicode="&#x215e;" horiz-adv-x="747" 
d="M591 377q49 0 80.5 -20.5t31.5 -70.5q0 -33 -14.5 -53t-37.5 -28q29 -10 46 -32.5t17 -63.5v-6q0 -57 -35 -81.5t-88 -24.5q-26 0 -48.5 6t-39.5 18.5t-26.5 32.5t-9.5 49v6q0 41 17.5 63.5t46.5 32.5q-23 8 -37.5 28t-14.5 53q0 50 32 70.5t80 20.5zM665 117
q0 35 -19.5 51t-54.5 16t-54 -16t-19 -51v-9q0 -35 19.5 -52t53.5 -17q35 0 54.5 17t19.5 52v9zM591 335q-29 0 -46 -13t-17 -42t17 -41.5t46 -12.5q30 0 46.5 12.5t16.5 41.5t-16.5 42t-46.5 13zM526 769q10 0 19 -7.5t9 -19.5q0 -7 -3 -13l-379 -741q-8 -15 -24 -15
q-11 0 -18.5 7.5t-7.5 17.5q0 6 3 12l381 747q3 7 8.5 9.5t11.5 2.5zM278 663q0 -6 -2.5 -13.5t-5.5 -13.5l-161 -275q-5 -8 -16 -8q-12 0 -21.5 6.5t-9.5 17.5q0 2 2 10l164 269v30h-147v-51q0 -7 -8 -12t-18 -5q-11 0 -18 5t-7 12v79q0 6 7.5 11.5t15.5 5.5h202
q8 0 15.5 -5.5t7.5 -11.5v-51z" />
    <glyph glyph-name="arrowleft" unicode="&#x2190;" horiz-adv-x="771" 
d="M308 477q11 0 20.5 -9.5t9.5 -22.5q0 -10 -6 -16l-160 -159h505q11 0 17.5 -8.5t6.5 -21.5t-6.5 -20.5t-17.5 -7.5h-505l160 -160q6 -5 6 -16q0 -12 -8.5 -22t-21.5 -10q-10 0 -17 7l-209 208q-12 12 -12 21q0 10 12 22l209 208q7 7 17 7z" />
    <glyph glyph-name="arrowup" unicode="&#x2191;" horiz-adv-x="771" 
d="M149 319q0 10 7 17l208 209q13 11 21 11q11 0 22 -11l208 -209q7 -7 7 -17q0 -12 -9.5 -21.5t-22.5 -9.5q-10 0 -16 6l-159 161v-506q0 -11 -8.5 -17.5t-21.5 -6.5q-12 0 -20 6.5t-8 17.5v506l-160 -161q-5 -6 -16 -6q-12 0 -22 9t-10 22z" />
    <glyph glyph-name="arrowright" unicode="&#x2192;" horiz-adv-x="771" 
d="M464 477q10 0 17 -7l209 -208q11 -13 11 -22q0 -8 -11 -21l-209 -208q-7 -7 -17 -7q-13 0 -22 10t-9 22q0 11 6 16l161 160h-505q-25 0 -25 28q0 13 7 21.5t18 8.5h505l-161 159q-6 6 -6 16q0 13 9.5 22.5t21.5 9.5z" />
    <glyph glyph-name="arrowdown" unicode="&#x2193;" horiz-adv-x="771" 
d="M149 163q0 13 10 21.5t22 8.5q11 0 16 -6l160 -160v505q0 11 8 17.5t20 6.5q13 0 21.5 -6.5t8.5 -17.5v-505l159 160q6 6 16 6q13 0 22.5 -9.5t9.5 -20.5q0 -10 -7 -17l-208 -210q-11 -11 -22 -11q-8 0 -21 11l-208 210q-7 7 -7 17z" />
    <glyph glyph-name="partialdiff" unicode="&#x2202;" horiz-adv-x="490" 
d="M365 403q-1 63 -9.5 114.5t-28 88.5t-51 57.5t-77.5 20.5q-22 0 -38.5 -4t-29 -9t-21 -9t-14.5 -4q-12 0 -19.5 13.5t-7.5 21.5t11.5 17t30 16.5t43 12t50.5 4.5q108 0 167 -91t59 -282v-185q0 -38 -15.5 -72.5t-42 -61t-61 -42.5t-72.5 -16t-72.5 15.5t-60.5 42
t-41.5 60.5t-15.5 72v116q0 38 14 72t38 60t56 41t68 15q22 0 44 -6t41 -17t33.5 -26.5t21.5 -34.5zM114 183q0 -25 10 -48.5t27 -41.5t39.5 -29t48.5 -11t49 11t40 29t27 41.5t10 48.5v120q0 24 -10.5 46.5t-27.5 40t-40 27.5t-48 10q-27 0 -49.5 -11t-39.5 -29t-26.5 -41
t-9.5 -47v-116z" />
    <glyph glyph-name="Delta" unicode="&#x2206;" horiz-adv-x="515" 
d="M488 39q3 -9 3 -14q0 -25 -30 -25h-410q-29 0 -29 25v6.5t2 7.5l193 673q8 25 40 25t40 -25zM414 61l-157 573l-159 -573h316z" />
    <glyph glyph-name="product" unicode="&#x220f;" horiz-adv-x="568" 
d="M461 731q11 0 21 -6t10 -19v-681q0 -14 -10.5 -19.5t-22.5 -5.5q-13 0 -23 5.5t-10 19.5v645h-284v-645q0 -14 -10.5 -19.5t-22.5 -5.5q-13 0 -23 5.5t-10 19.5v681q0 13 9.5 19t20.5 6h355z" />
    <glyph glyph-name="summation" unicode="&#x2211;" horiz-adv-x="469" 
d="M33 679q-2 5 -4 11.5t-2 12.5q0 11 7 19.5t22 8.5h362q13 0 19.5 -9.5t6.5 -20.5t-6.5 -21t-19.5 -10h-308l187 -360l16.5 -33t6.5 -25t-6.5 -25.5t-16.5 -32.5l-187 -360h308q13 0 19.5 -10t6.5 -21t-6.5 -20.5t-19.5 -9.5h-362q-15 0 -22 8.5t-7 19.5q0 6 2 12.5
t4 11.5l221 427z" />
    <glyph glyph-name="minus" unicode="&#x2212;" horiz-adv-x="502" 
d="M66 284q0 13 7 21.5t18 8.5h320q10 0 17.5 -8.5t7.5 -21.5t-7.5 -20.5t-17.5 -7.5h-320q-25 0 -25 28z" />
    <glyph glyph-name="radical" unicode="&#x221a;" horiz-adv-x="617" 
d="M12 415q0 12 7 20.5t18 8.5h67q10 0 16 -6.5t9 -17.5l114 -356l203 685q7 19 25 19h117q11 0 18 -8.5t7 -20.5q0 -13 -7 -21t-18 -8h-85l-220 -721q-4 -12 -15.5 -18t-23.5 -6q-14 0 -25 6t-15 18l-132 397h-35q-11 0 -18 8t-7 21z" />
    <glyph glyph-name="infinity" unicode="&#x221e;" horiz-adv-x="860" 
d="M233 408q55 0 108.5 -32t88.5 -87q35 55 88.5 87t109.5 32q34 0 66 -10.5t56.5 -32t39 -54t14.5 -75.5t-14.5 -75.5t-39.5 -54t-57 -32t-66 -10.5q-55 0 -108.5 31.5t-88.5 86.5q-35 -55 -88.5 -86.5t-108.5 -31.5q-34 0 -66 10.5t-56.5 32t-39.5 54t-15 75.5t15 75.5
t39.5 54t56.5 32t66 10.5zM458 236q14 -29 33.5 -50t42 -35t46.5 -21t47 -7q24 0 45 6.5t36.5 20.5t25 35.5t9.5 50.5t-9.5 50.5t-25 35.5t-36.5 21t-45 7q-23 0 -47 -7t-46.5 -21t-42 -35.5t-33.5 -50.5zM402 236q-14 29 -33.5 50.5t-42 35.5t-46.5 21t-46 7q-24 0 -45 -7
t-37 -21t-25.5 -35.5t-9.5 -50.5t9.5 -50.5t25.5 -35.5t37 -20.5t45 -6.5q22 0 46 7t46.5 21t42 35t33.5 50z" />
    <glyph glyph-name="integral" unicode="&#x222b;" horiz-adv-x="336" 
d="M305 748q10 0 17.5 -7.5t7.5 -19.5q0 -10 -6.5 -19t-18.5 -9q-52 0 -78 -30.5t-26 -71.5v-643q0 -65 -41 -106.5t-126 -41.5q-11 0 -19 8t-8 20q0 10 5.5 19t19.5 9q19 0 38 4t33 14.5t23 28.5t9 45v644q0 31 11 59.5t32 50t53 34t74 12.5z" />
    <glyph glyph-name="approxequal" unicode="&#x2248;" horiz-adv-x="443" 
d="M159 369q-16 0 -27 -5t-19.5 -11t-14.5 -11t-12 -5q-10 0 -14.5 9t-4.5 17q0 15 9 26t22.5 18.5t29 11t27.5 3.5q19 0 35 -5.5t30.5 -12t30 -12t35.5 -5.5q17 0 27.5 4.5t18 10t13 10t12.5 4.5q10 0 15 -8.5t5 -15.5q0 -16 -9 -27t-22.5 -18t-28 -10t-25.5 -3
q-20 0 -35.5 5.5t-30.5 12t-31 12t-36 5.5zM159 166q-16 0 -27 -5t-19.5 -11t-14.5 -11t-12 -5q-10 0 -14.5 9t-4.5 17q0 15 9 26t22.5 18.5t29 11t27.5 3.5q19 0 35 -5.5t30.5 -12t30 -12t35.5 -5.5q17 0 27.5 4.5t18 10t13 10t12.5 4.5q10 0 15 -8.5t5 -15.5q0 -16 -9 -27
t-22.5 -18t-28 -10t-25.5 -3q-20 0 -35.5 5.5t-30.5 12t-31 12t-36 5.5z" />
    <glyph glyph-name="notequal" unicode="&#x2260;" horiz-adv-x="480" 
d="M326 398h74q10 0 18 -8.5t8 -20.5q0 -13 -8 -21t-18 -8h-105l-68 -145h173q10 0 18 -8.5t8 -20.5q0 -13 -8 -21t-18 -8h-204l-69 -147q-6 -11 -17 -11q-8 0 -15 5.5t-7 14.5v5.5t2 5.5l58 127h-70q-11 0 -18 8t-7 21q0 12 7 20.5t18 8.5h101l67 145h-168q-11 0 -18 8
t-7 21q0 12 7 20.5t18 8.5h199l77 163q4 9 15 9q8 0 16 -6.5t8 -17.5q0 -5 -3 -12z" />
    <glyph glyph-name="lessequal" unicode="&#x2264;" horiz-adv-x="435" 
d="M365 223q13 -7 13 -21q0 -12 -10 -21.5t-21 -9.5q-6 0 -12 3l-269 149q-8 4 -12 11.5t-4 15.5t4 16t12 12l269 149q6 3 12 3q11 0 21 -9.5t10 -21.5q0 -15 -13 -21l-236 -128zM50 85q0 12 7.5 20.5t18.5 8.5h277q11 0 18 -8.5t7 -20.5q0 -13 -7 -21t-18 -8h-277
q-11 0 -18.5 8t-7.5 21z" />
    <glyph glyph-name="greaterequal" unicode="&#x2265;" horiz-adv-x="435" 
d="M306 350l-235 128q-13 6 -13 21q0 12 9.5 21.5t21.5 9.5q5 0 11 -3l270 -149q7 -4 11 -12t4 -16t-3.5 -15.5t-11.5 -11.5l-270 -149q-6 -3 -11 -3q-12 0 -21.5 9.5t-9.5 21.5q0 15 13 21zM385 85q0 -13 -7 -21t-18 -8h-278q-10 0 -17.5 8t-7.5 21q0 12 7.5 20.5t17.5 8.5
h278q11 0 18 -8.5t7 -20.5z" />
    <glyph glyph-name="lozenge" unicode="&#x25ca;" horiz-adv-x="465" 
d="M420 424q9 -17 15 -31t6 -28q0 -13 -6 -26t-15 -30l-145 -277q-9 -17 -19 -26t-24 -9t-24 9t-18 26l-145 277q-9 17 -15 30.5t-6 25.5q0 14 5.5 27.5t15.5 31.5l144 275q9 17 18.5 26t24.5 9t25 -9t19 -26zM83 366l149 -287l149 287l-149 290z" />
    <glyph glyph-name="commaaccent" unicode="&#xf6c3;" horiz-adv-x="218" 
d="M61 -155q-6 -3 -11 -3q-11 0 -18 8.5t-7 19.5q0 12 11 18l111 62q6 2 9 2q11 0 17.5 -9t6.5 -19q0 -15 -13 -22z" />
    <glyph glyph-name="a.ss01" horiz-adv-x="450" 
d="M200 479q49 0 83 -16t55.5 -43t31 -62t9.5 -72v-171q0 -59 40 -61q22 -2 22 -27q0 -17 -9.5 -25.5t-22.5 -8.5q-42 0 -61.5 21t-24.5 56q-29 -31 -67 -54t-90 -23q-27 0 -52 8t-43.5 24t-29.5 41t-11 58q0 41 17 67.5t47.5 42t73.5 21.5t95 6h51v25q0 24 -6 48
t-20.5 43.5t-37.5 32t-56 12.5q-23 0 -40.5 -4.5t-30 -10t-20.5 -10t-14 -4.5q-13 0 -19.5 12.5t-6.5 20.5q0 11 12 20.5t31.5 17t44 11.5t49.5 4zM314 217h-42q-36 0 -68 -2.5t-56 -11.5t-38.5 -26.5t-14.5 -47.5q0 -41 24.5 -61t59.5 -20q26 0 50.5 10t43 25.5t30 34
t11.5 35.5v64z" />
    <glyph glyph-name="b.ss02" horiz-adv-x="481" 
d="M436 183q0 -33 -12 -66.5t-36 -61t-60 -45t-85 -17.5q-35 0 -67.5 10t-58.5 31t-41.5 52.5t-15.5 73.5v579q0 11 8.5 17.5t22.5 6.5t24 -6.5t10 -17.5v-336q16 29 49 52.5t83 23.5q37 0 69.5 -14.5t57 -40t38.5 -59.5t14 -73v-109zM371 292q0 24 -10 47t-27 40.5
t-39.5 28.5t-48.5 11q-23 0 -44.5 -8.5t-38.5 -25t-27.5 -40t-10.5 -53.5v-125q0 -28 9.5 -49.5t26 -35.5t38 -21.5t46.5 -7.5q36 0 60.5 13t39 32.5t20.5 42.5t6 42v109z" />
    <glyph glyph-name="caron.alt" horiz-adv-x="92" 
d="M46 741q19 0 32.5 -13.5t13.5 -32.5q0 -23 -41 -113q-5 -12 -18 -12q-8 0 -16 5.5t-8 15.5q0 6 2 9l19 52q-14 5 -22 17t-8 26q0 19 13 32.5t33 13.5z" />
    <glyph glyph-name="g.ss03" horiz-adv-x="483" 
d="M389 473q14 0 22.5 -6.5t8.5 -17.5v-474q0 -42 -11 -80.5t-35 -68t-63 -46.5t-94 -17q-29 0 -57.5 5.5t-51 14.5t-36 21.5t-13.5 27.5q0 12 7.5 22t18.5 10q7 0 17.5 -6.5t26 -14.5t37.5 -14.5t54 -6.5q45 0 72 14t41 37t18 52t4 59v89q-16 -31 -52.5 -54.5t-81.5 -23.5
q-36 0 -68 16t-56 42t-38.5 60.5t-14.5 71.5v107q0 39 14 73t38.5 59.5t57.5 40t70 14.5q50 0 83.5 -23.5t50.5 -52.5v46q0 11 8.5 17.5t22.5 6.5zM109 185q0 -25 10 -48t27 -41t39.5 -29t47.5 -11q26 0 48.5 11t39 26.5t25.5 32.5t9 28v138q0 30 -10.5 53.5t-27.5 40
t-39 25t-44 8.5q-26 0 -48.5 -11t-39.5 -28.5t-27 -40.5t-10 -47v-107z" />
    <glyph glyph-name="m.ss04" horiz-adv-x="777" 
d="M544 479q34 0 65.5 -13t55.5 -37.5t38.5 -59t14.5 -77.5v-267q0 -10 -9.5 -17.5t-23.5 -7.5q-13 0 -22.5 7.5t-9.5 17.5v267q0 30 -10 54t-26.5 40t-37 24.5t-41.5 8.5q-23 0 -44 -9.5t-37.5 -26.5t-26 -40.5t-9.5 -50.5v-267q0 -12 -9.5 -18.5t-23.5 -6.5
q-13 0 -22.5 6.5t-9.5 18.5v267q0 27 -10 50.5t-26.5 40.5t-38 26.5t-44.5 9.5q-21 0 -41 -8.5t-36 -24.5t-26 -39.5t-10 -54.5v-267q0 -10 -9.5 -17.5t-23.5 -7.5t-23 7.5t-9 17.5v267q0 43 14 77.5t37.5 59t54.5 37.5t64 13q45 0 87.5 -22.5t71.5 -70.5q28 48 69.5 70.5
t86.5 22.5z" />
    <glyph glyph-name="n.ss04" horiz-adv-x="495" 
d="M247 479q39 0 73.5 -15.5t60.5 -41t41 -59.5t15 -71v-267q0 -10 -9.5 -17.5t-23.5 -7.5q-13 0 -22.5 7.5t-9.5 17.5v267q0 24 -9.5 47t-26.5 41t-40 28.5t-49 10.5t-48.5 -10.5t-39 -28.5t-26.5 -41t-10 -47v-267q0 -10 -9.5 -17.5t-22.5 -7.5q-14 0 -23.5 7.5t-9.5 17.5
v267q0 37 15 71t41 59.5t60.5 41t72.5 15.5z" />
    <glyph glyph-name="one.lnum" horiz-adv-x="394" 
d="M16 31q0 13 7.5 21.5t18.5 8.5h126v558l-40 -65q-8 -12 -20 -12q-11 0 -18 9t-7 20q0 7 3.5 15t8.5 11l85 120q5 6 10 10.5t14 4.5q11 0 20.5 -6.5t9.5 -18.5v-646h124q10 0 18 -8.5t8 -21.5t-8 -22t-18 -9h-316q-11 0 -18.5 9t-7.5 22z" />
    <glyph glyph-name="q.ss02" horiz-adv-x="480" 
d="M223 -7q-36 0 -68.5 15t-56.5 40.5t-38.5 60t-14.5 72.5v109q0 33 11.5 66.5t34.5 60.5t59 44.5t85 17.5q34 0 67.5 -10.5t59.5 -34t42.5 -60.5t16.5 -89v-493q0 -11 -8.5 -17.5t-22.5 -6.5t-24 7t-10 18v277q-16 -29 -50 -53t-83 -24zM233 53q24 0 46.5 10.5t39.5 25.5
t27 32t10 31v126q0 38 -10 64.5t-27 43.5t-39 25t-47 8q-36 0 -60 -13t-38 -32.5t-19.5 -42t-5.5 -41.5v-109q0 -24 10 -47t27 -41t39 -29t47 -11z" />
    <glyph glyph-name="r.ss04" horiz-adv-x="325" 
d="M245 419q-27 0 -50 -14t-39 -37t-25 -52.5t-9 -61.5v-229q0 -10 -9.5 -17.5t-23.5 -7.5t-23 7.5t-9 17.5v229q0 43 12.5 83.5t36 72t57 50.5t74.5 19h52q12 0 19 -8.5t7 -20.5q0 -13 -7 -22t-18 -9h-45z" />
    <glyph glyph-name="u.ss04" horiz-adv-x="497" 
d="M237 -7q-36 0 -68.5 15t-56.5 40.5t-38.5 60t-14.5 72.5v267q0 12 9.5 18.5t23.5 6.5q13 0 22.5 -6.5t9.5 -18.5v-267q0 -24 10 -47t26.5 -41t39 -29t48.5 -11q23 0 45 9.5t39 26t27 39.5t10 50v270q0 11 10 18t24 7t22.5 -7t8.5 -18v-423q0 -11 -8.5 -18t-22.5 -7
q-13 0 -22 7t-9 18v45q-16 -29 -50.5 -53t-84.5 -24z" />
    </font>
</defs>
</svg>
